<?xml version="1.0" encoding="utf-8"?>
<!-- Generator: Adobe Illustrator 23.0.0, SVG Export Plug-In . SVG Version: 6.00 Build 0)  -->
<svg version="1.1" id="Layer_1" xmlns="http://www.w3.org/2000/svg" xmlns:xlink="http://www.w3.org/1999/xlink" x="0px" y="0px"
	 viewBox="49.17 73.83 220.14 145.33" style="enable-background:new 49.17 73.83 220.14 145.33;" xml:space="preserve">
<path d="M127.51,109.96c-0.32,0-0.83-0.04-1.51-0.08l-1.27-0.08c-0.79-0.04-1.63-0.08-2.5-0.08c-0.63,0-1.35,0-2.61,0.04
	c-1.23,0.04-1.47,0.08-2.74,0.16c-0.55,0.04-0.91,0.04-1.14,0.04c-1.04,0-1.59-0.33-1.59-0.91c0-0.21,0.08-0.37,0.16-0.5
	c0.31-0.37,0.48-0.41,2.02-0.62c1.59-0.25,1.98-0.78,1.98-2.69l0.04-1.49V89.37V87.8c-0.04-1.32-0.2-1.61-0.95-1.61
	c-0.44,0-0.75,0.08-1.62,0.46c-0.64,0.29-0.95,0.37-1.27,0.37c-0.48,0-0.79-0.29-0.79-0.79c0-0.71,0.39-0.99,2.42-1.57
	c3.33-1.04,4.96-1.66,7.1-2.77c0.27-0.16,0.52-0.25,0.67-0.25c0.44,0,0.67,0.41,0.67,1.2v1.45v1.36v18.1c0,3.35,0.28,3.89,2.07,4.18
	c1.79,0.25,2.22,0.45,2.22,1.12C128.86,109.62,128.35,109.96,127.51,109.96z M120.53,89.58c0-1.98-0.08-2.64-0.4-3.22
	c-0.31-0.58-1.1-0.95-1.98-0.95c-0.2,0-0.4,0-0.68,0.04c1.35,0.16,1.63,0.54,1.67,2.15v1.78v14.09c0,2.94,0,3.1-0.24,3.76
	c-0.16,0.54-0.55,0.87-1.43,1.25c2.39-0.26,3.06-1.25,3.06-4.51L120.53,89.58L120.53,89.58z"/>
<path d="M142,110.66c-5.79,0-10.27-3.18-10.27-7.31c0-2.61,1.9-4.96,4.92-6.08c0.56-0.21,0.91-0.42,0.91-0.58
	c0-0.04-0.08-0.12-0.23-0.21l-1.08-0.62c-2.25-1.28-3.6-3.51-3.6-6.07c0-4.84,4.12-8.14,10.07-8.14c5.79,0,9.75,2.64,9.75,6.49
	c0,2.15-1.27,3.68-3.93,4.79c-0.99,0.41-1.23,0.54-1.23,0.62c0,0.08,0.16,0.21,0.35,0.29l1.19,0.66c3.09,1.69,4.76,4.22,4.76,7.19
	C153.62,106.85,148.7,110.66,142,110.66z M136.13,107.81c-1.31-1.08-2.14-2.81-2.14-4.51c0-1.45,0.63-3.14,1.58-4.17
	c0.52-0.62,0.99-0.95,2.18-1.57c-1.66,0.62-2.22,0.9-3.17,1.69c-1.23,1.03-1.98,2.65-1.98,4.09c0,2.93,2.61,5.45,6.54,6.28
	C137.35,108.72,137.04,108.55,136.13,107.81z M144.97,97.51l-5.23-2.39c-3.57-1.66-5-3.39-5-6.12c0-2.85,1.5-4.91,4.56-6.24
	c-3.49,0.95-5.79,3.68-5.79,6.82c0,2.81,1.7,5,4.99,6.49l4.76,2.15c3.61,1.65,5.27,3.51,5.27,5.91c0,1.45-0.71,2.94-1.86,3.89
	c-0.79,0.7-1.31,0.95-2.86,1.49c3.45-0.71,5.83-3.26,5.83-6.24C149.65,100.82,148.14,99,144.97,97.51z M145.52,100.44
	c-0.83-0.53-1.9-1.11-3.21-1.77c-0.59-0.29-1.19-0.54-1.79-0.75c-0.32-0.12-0.56-0.16-0.67-0.16c-0.44,0-1.15,0.58-1.55,1.24
	c-0.63,1.12-0.99,2.48-0.99,3.89c0,3.47,2.22,6.07,5.23,6.07c2.82,0,5.11-2.19,5.11-4.79C147.66,102.68,146.91,101.36,145.52,100.44
	z M142.47,83.38c-2.34,0-4.25,1.74-4.25,3.89c0,1.36,0.8,2.6,2.07,3.3c0.63,0.33,1.71,0.83,3.18,1.45c0.99,0.46,1.5,0.62,1.74,0.62
	c0.16,0,0.32-0.08,0.51-0.29c1-0.95,1.51-2.31,1.51-3.68C147.23,85.56,145.25,83.38,142.47,83.38z M144.61,82.92
	c2.54,1.62,3.5,3.14,3.5,5.67c0,1.86-0.64,3.22-2.07,4.42c2.02-1.16,3.25-2.98,3.25-4.84C149.29,85.81,147.63,83.95,144.61,82.92z"
	/>
<path d="M168.77,110.39c-2.38,1.36-5.03,2.15-7.14,2.15c-2.61,0-4.52-1.41-4.52-3.35c0-1.41,1.15-2.52,2.62-2.52
	c1.15,0,1.98,0.58,2.58,1.91c0.24,0.53,0.43,0.91,0.55,1.11c0.28,0.58,0.6,0.78,1.15,0.78c0.43,0,0.99-0.12,1.39-0.29
	c2.69-1.16,4.68-4.42,4.68-7.77c0-4.05-2.74-7.19-6.27-7.19c-1.43,0-3.21,0.37-4.16,0.87c-0.67,0.33-0.99,0.53-1.03,0.53
	c-0.12,0.04-0.28,0.09-0.39,0.09c-0.36,0-0.64-0.33-0.64-0.75c0-0.16,0.04-0.33,0.12-0.49c0.2-0.29,0.47-0.58,0.82-0.79
	c0.32-0.21,1.08-0.66,2.31-1.32c4.2-2.4,6.22-4.84,6.22-7.44c0-1.98-1.5-3.43-3.48-3.43c-1.31,0-2.62,0.71-3.46,1.91l-0.87,1.2
	c-0.28,0.41-0.52,0.58-0.84,0.58c-0.44,0-0.71-0.29-0.71-0.71c0-0.54,0.52-1.53,1.23-2.36c1.74-2.07,4.12-3.06,7.26-3.06
	c4.32,0,7.1,1.78,7.1,4.55c0,2.11-1.67,4.13-4.52,5.62l-2.89,1.45l-0.83,0.46c1.67-0.25,2.26-0.33,3.18-0.33
	c4.84,0,8.09,3.02,8.09,7.48C176.3,103.53,173.49,107.66,168.77,110.39z M158.94,109.32c0-0.95,0.28-1.45,1.11-1.94
	c-1.34,0.04-2.1,0.7-2.1,1.86c0,1.19,0.8,2.03,2.62,2.6C159.33,111.06,158.94,110.39,158.94,109.32z M164.84,94.11
	c-1.07,0-1.66,0.08-3.17,0.54c1.11-0.17,1.55-0.21,2.14-0.21c4.13,0,7.11,3.31,7.11,7.9c0,3.18-1.35,5.79-4.21,8.14
	c1.75-0.95,2.34-1.49,3.48-3.1c1.39-1.9,1.98-3.72,1.98-5.87C172.18,97.04,169.28,94.11,164.84,94.11z M164.84,81.29
	c-0.91,0-1.46,0.16-2.29,0.62c0.59-0.16,0.87-0.21,1.26-0.21c2.27,0,4.09,1.86,4.09,4.13c0,0.66-0.12,1.36-0.36,2.03
	c-0.51,1.36-1.03,2.02-2.78,3.63l-0.83,0.79c3.52-2.36,5.23-4.67,5.23-7.15C169.17,82.91,167.38,81.29,164.84,81.29z"/>
<path d="M199.51,83.62c-0.24,0.42-0.63,1.28-1.23,2.65l-1.78,3.97c-2.26,5-4.33,9.8-5.2,11.99l-2.34,5.95
	c-0.56,1.41-0.87,2.23-0.96,2.52c-0.24,0.79-0.47,1.16-0.79,1.28c-0.19,0.04-0.87,0.12-1.47,0.12c-0.31,0-0.43-0.08-0.43-0.29
	c0-0.12,0.08-0.37,0.2-0.58c0.76-1.61,1.15-2.48,2.11-4.79c0.83-2.03,1.55-3.8,2.14-5.33c1.66-4.14,3.13-8.06,3.89-10.34l0.47-1.36
	c0.08-0.13,0.08-0.25,0.08-0.33c0-0.29-0.24-0.37-1-0.37h-6.15c-0.35,0-1.55,0-3.6,0.09c-1.83,0.04-2.54,0.08-3.38,0.21
	c-0.2,0.04-0.43,0.08-0.55,0.08c-0.64,0-0.72-0.29-0.83-2.11l-0.08-2.43l-0.04-1.36v-0.13c0-0.78,0.12-0.95,0.59-0.95
	c0.2,0,0.48,0.04,0.83,0.04c0.72,0.08,2.1,0.12,4.24,0.12h5.24h9.68c0.4,0,0.6,0.16,0.6,0.45C199.75,82.96,199.67,83.3,199.51,83.62
	z M197.25,83.21h-11.11c-2.66,0-3.88-0.04-5.55-0.12c-0.32-0.04-0.55-0.04-0.67-0.04c-0.32,0-0.39,0.13-0.39,0.54v0.66
	c2.62,0.12,3.84,0.16,7.18,0.16h11.07l0.2-0.46c0.12-0.25,0.2-0.41,0.2-0.54C198.16,83.25,198.04,83.21,197.25,83.21z"/>
<path d="M137.49,183.95c-0.05,0.15-0.14,0.79-0.27,1.84l-0.37,2.55l-0.23,1.8c-0.1,0.44-0.51,0.79-1.02,0.79
	c-0.18,0-0.36-0.04-0.5-0.16c-0.42-0.24-0.61-0.51-1.38-2.04c-1.2-2.24-2.31-2.86-5.26-2.86h-1.66c-0.74,0.03-0.83,0.11-0.83,0.75
	v17.85c0,3.19,0.27,3.7,2.26,3.97c1.98,0.24,2.44,0.43,2.44,1.06c0,0.55-0.64,0.86-1.75,0.86c-0.23,0-0.73-0.04-1.38-0.04
	c-0.56-0.04-1.02-0.07-1.39-0.07l-2.03-0.04l-2.12-0.08l-1.98,0.04l-2.26,0.08c-0.37,0-0.88,0.03-1.38,0.07
	c-0.64,0-1.15,0.04-1.34,0.04c-1.11,0-1.75-0.31-1.75-0.86c0-0.63,0.46-0.83,2.4-1.06c1.93-0.27,2.21-0.78,2.21-3.97v-17.54
	c0-0.87-0.24-1.06-1.25-1.06c-1.98,0-3.5,0.27-4.43,0.86c-0.32,0.2-0.88,0.63-1.57,1.34c-0.65,0.59-1.15,1.14-1.62,1.69
	c-0.6,0.75-0.92,0.94-1.43,0.94c-0.55,0-0.97-0.35-0.97-0.79c0-0.28,0.04-0.59,0.18-0.98l0.7-1.89c0.27-0.75,0.51-1.45,0.64-2
	c0.6-2.24,0.83-2.67,1.71-2.67c0.13,0,0.32,0.04,0.41,0.08c0.23,0.08,0.37,0.2,0.46,0.31c0.04,0.04,0.13,0.28,0.32,0.66
	c0.28,0.63,0.55,0.71,2.07,0.71h17.75l1.94-0.04c1.61-0.04,1.89-0.15,2.53-1.06c0.37-0.59,0.69-0.75,1.2-0.75
	c0.61,0,1.06,0.31,1.06,0.7C137.62,183.25,137.58,183.56,137.49,183.95z M109.78,183.47l-0.18,0.59l-0.6,2.12
	c-0.28,0.94-0.46,1.45-1.11,2.83c0.23-0.28,0.42-0.48,0.51-0.59c1.75-2.08,1.93-2.28,3.09-2.79
	C110.33,184.97,110.1,184.74,109.78,183.47z M120.47,185.71h-1.57l-0.05,18.93c0,3.22-0.14,3.69-1.56,4.24
	c0.92,0,1.29-0.08,1.89-0.43c1.01-0.62,1.29-1.37,1.29-3.65L120.47,185.71L120.47,185.71z M133.11,185.36c-0.19,0-0.32,0-1.15-0.04
	c1.1,0.48,1.47,0.75,2.02,1.42c0.41,0.59,0.6,1.02,0.88,2.08l0.09-0.91l0.14-1.33l0.18-1.34l0.09-0.48
	C134.67,185.25,134.31,185.36,133.11,185.36z"/>
<path d="M166.91,205.04c-0.09,0.39-0.18,0.86-0.27,1.41c-0.23,1.1-0.37,1.85-0.37,2.2c-0.09,1.34-0.37,1.73-1.11,1.73
	c-0.27,0-0.83,0-1.57-0.04c-0.6-0.04-2.03-0.07-4.29-0.12l-3.6-0.08l-3.73,0.04h-2.44c-1.11,0.04-2.22,0.04-3.28,0.04
	c-1.56,0-1.88,0.04-3.36,0.12c-0.6,0.04-0.97,0.04-1.25,0.04c-1.01,0-1.56-0.31-1.56-0.86c0-0.63,0.37-0.83,2.17-1.06
	c1.71-0.27,1.98-0.78,1.98-3.97v-14.52c0-3.19-0.27-3.69-1.98-3.93c-1.8-0.27-2.17-0.47-2.17-1.09c0-0.56,0.56-0.87,1.56-0.87
	c0.14,0,0.55,0.04,1.25,0.08c0.78,0.03,2.16,0.07,3.78,0.07c1.25,0.04,2.17,0.04,3.09,0.04c4.48,0,10.99-0.16,13.52-0.31
	c0.5-0.04,0.87-0.08,1.06-0.08c0.65,0,0.88,0.24,0.88,0.79c0,0.2,0,0.47-0.05,0.79v1.18c0,0.71,0,1.33,0.05,1.88
	c0.04,0.24,0.04,0.48,0.04,0.67c0,0.71-0.23,1.02-0.87,1.02c-0.65,0-0.97-0.2-1.52-0.98c-0.74-1.11-1.94-2.24-2.68-2.63
	c-0.64-0.35-1.84-0.59-2.91-0.59c-1.57,0-3.41,0.07-4.06,0.24c-0.69,0.12-0.88,0.35-0.88,1.25l-0.04,1.34v4.94
	c0,0.83,0.09,1.25,0.28,1.38c0.18,0.15,0.27,0.15,1.8,0.15c1.25,0,1.94-0.04,2.72-0.11c0.6-0.04,1.06-0.16,1.38-0.35
	c0.55-0.32,0.78-0.63,1.8-2.52c0.32-0.55,0.6-0.75,1.1-0.75c0.6,0,1.06,0.39,1.06,0.98c0,0.16-0.05,0.43-0.09,0.9
	c-0.04,0.27-0.04,0.7-0.09,1.33c-0.09,1.1-0.09,1.45-0.09,1.92c0,0.35,0,0.71,0.04,0.98l0.14,1.73c0.04,0.31,0.04,0.59,0.04,0.79
	c0,0.66-0.37,0.98-1.01,0.98c-0.74,0-1.01-0.27-1.61-1.52c-0.88-1.85-2.03-2.56-4.38-2.56c-2.82,0-3.1,0.16-3.1,1.73v4.24
	c0,2.75,0.28,3.81,1.16,4.6c0.69,0.62,1.85,0.93,3.5,0.93c3.14,0,5.4-1.06,6.87-3.21l0.92-1.42c0.37-0.51,0.74-0.71,1.29-0.71
	c0.65,0,1.02,0.35,1.02,0.9C167.05,204.32,167.01,204.71,166.91,205.04z M146.81,189.64c0-1.37-0.09-1.96-0.37-2.51
	c-0.41-0.94-1.38-1.46-2.81-1.46c1.43,0.52,1.57,0.98,1.57,4.12v14.85c0,3.22-0.14,3.69-1.57,4.24c0.93,0,1.29-0.08,1.89-0.43
	c1.01-0.62,1.29-1.37,1.29-3.65L146.81,189.64L146.81,189.64z M160.41,196.28c0-1.1,0-1.53,0.19-2.67c-0.97,2-1.57,2.43-3.73,2.63
	c1.24,0.2,1.79,0.43,2.4,1.02c0.59,0.55,0.83,0.91,1.34,2.12C160.41,198,160.41,197.38,160.41,196.28z M163.69,188.19
	c0-0.16,0-0.51-0.04-1.06v-1.07c0-0.55-0.09-0.58-1.06-0.58h-0.27h-1.71c-0.19,0-0.51,0.03-0.88,0.03c1.11,0.32,1.48,0.51,2.35,1.22
	c0.69,0.59,1.01,0.94,1.66,1.85C163.69,188.42,163.69,188.27,163.69,188.19z M163.09,207.63c-0.88,0.75-1.48,1.02-2.95,1.25
	l0.88,0.04h1.71l1.3,0.03c0.37,0,0.41-0.07,0.46-0.39c0.14-0.98,0.36-2.2,0.64-3.46C164.24,206.48,163.92,206.92,163.09,207.63z"/>
<path d="M202.34,210.37h-0.93l-3.13-0.16c-1.02-0.04-1.98-0.08-2.95-0.08c-1.39,0-3.04,0.04-5.12,0.16
	c-0.64,0.04-1.38,0.08-1.57,0.08c-0.83,0-1.29-0.27-1.29-0.82c0-0.39,0.23-0.67,0.65-0.83c0.27-0.08,0.41-0.12,1.33-0.24
	c1.2-0.16,1.7-0.44,1.7-0.9c0-0.2-0.09-0.51-0.32-0.98l-0.88-2l-1.2-2.35c-0.14-0.36-0.28-0.55-0.37-0.67
	c-0.13-0.12-0.32-0.24-0.55-0.24h-0.65h-7.28c-1.06,0-1.29,0.16-1.61,1.02l-0.46,1.34c-0.37,1.06-0.64,2.16-0.64,2.71
	c0,1.18,0.83,1.77,2.86,2.01c1.57,0.16,1.98,0.34,1.98,1.02c0,0.63-0.55,0.94-1.61,0.94c-0.23,0-0.74-0.04-1.2-0.04
	c-2.03-0.16-2.35-0.2-3.5-0.2c-1.11,0-1.56,0.04-3.46,0.2c-0.51,0.04-0.92,0.04-1.29,0.04c-0.88,0-1.38-0.35-1.38-0.94
	c0-0.55,0.41-0.83,1.43-0.98c0.97-0.12,1.43-0.27,1.8-0.58c0.65-0.48,0.92-0.91,2.26-3.7l2.35-4.83l3.59-7.66l2.21-4.48
	c0.42-0.82,0.79-1.56,1.06-2.24c0.55-1.21,1.15-1.57,2.49-1.57c0.97,0,1.34,0.27,1.8,1.34c0.64,1.33,1.47,3.1,2.63,5.38l3.46,6.94
	l2.72,5.54l1.75,3.25c1.25,2.32,1.66,2.67,3.18,2.67c1.2,0,1.62,0.23,1.62,0.9C203.81,210.17,203.49,210.37,202.34,210.37z
	 M176.75,208.53c-0.64-0.39-0.97-1.06-0.97-2c0-0.47,0.05-0.79,0.28-1.66l0.19-0.75l-0.32,0.67l-0.78,1.69
	c-0.74,1.52-1.25,2.04-2.82,2.63c1.34-0.12,1.89-0.12,2.77-0.12c0.51,0,1.29,0,2.35,0.04l1.29,0.08
	C177.48,208.84,177.21,208.75,176.75,208.53z M186.98,198.79c-0.1-0.24-0.18-0.39-0.23-0.47l-3.04-6.05
	c-0.18-0.31-0.37-0.55-0.46-0.55c-0.14,0-0.37,0.4-0.69,0.98c-0.19,0.39-0.51,1.06-0.97,1.96c-0.55,1.14-0.97,1.97-1.2,2.56
	c-0.28,0.55-0.46,0.9-0.55,1.06c-0.09,0.24-0.19,0.43-0.19,0.62c0,0.36,0.28,0.48,1.01,0.48h5.44c0.78,0,0.97-0.04,0.97-0.31
	C187.07,198.98,187.03,198.9,186.98,198.79z M192.47,204.71l-7.84-16.17l-0.83,1.65l7.42,15.2c0.65,1.38,0.84,1.85,0.84,2.35
	c0,0.43-0.24,0.75-0.84,1.1c1.38-0.2,2.08-0.71,2.08-1.69C193.3,206.64,193.02,205.89,192.47,204.71z"/>
<path d="M245.54,162.37c0,1.02-0.94,1.84-2.1,1.84c-1.15,0-2.08-0.83-2.08-1.84c0-1.03,0.93-1.84,2.08-1.84
	C244.61,160.52,245.54,161.34,245.54,162.37z M209.69,159.08c0,1.02-0.94,1.84-2.1,1.84c-1.15,0-2.09-0.82-2.09-1.84
	c0-1.02,0.94-1.84,2.09-1.84C208.75,157.23,209.69,158.06,209.69,159.08z M208.39,138.87c0,1.03-0.93,1.84-2.09,1.84
	c-1.16,0-2.09-0.82-2.09-1.84c0-1.02,0.93-1.84,2.09-1.84C207.46,137.04,208.39,137.86,208.39,138.87z M207.81,148.73
	c0,1.02-0.93,1.84-2.09,1.84c-1.15,0-2.08-0.83-2.08-1.84c0-1.02,0.93-1.84,2.08-1.84C206.88,146.88,207.81,147.71,207.81,148.73z
	 M250.74,139.09c-0.6,0.21-1.32,0.08-2.19,0.08c-0.71,0-1.82,0.15-2.23-0.08c-0.32-0.18-0.58-1.06-0.77-1.64
	c-1.39-4.21-3.05-8.2-5.49-11.28c-2.66-3.34-7.07-6.21-13.57-5.34c-5.42,0.72-8.5,4.41-10.3,8.87c-1.56,3.88-2.32,8.85-2.58,14.25
	c-0.05,1.29-0.13,2.25,0.31,3.06c0.35,0.3,0.69,0.52,1.24,0.73c0.32,0.12,1.35,0.29,1.37,0.61c0.02,0.23-0.63,0.43-0.86,0.56
	c-0.26,0.15-0.7,0.32-0.9,0.47c-0.64,0.48-0.8,1.12-1.07,1.85c0.31,6.3,1.24,11.66,3.56,16.06c2.09,3.96,5.66,8.08,12.41,6.75
	c5.55-1.08,7.02-6.15,6.78-12.74c-0.2-5.21-1.53-7.81-6.18-8.52c-0.62-0.1-1.46-0.17-2.23-0.21c-0.6-0.04-1.89,0.08-2.15-0.26
	c-0.19-0.25-0.09-1.25-0.09-1.81c0-0.73-0.15-1.44,0.09-1.76c0.34-0.44,3.1-0.21,3.91-0.21h26.79c0.72,0,1.6-0.08,1.93,0.08
	c0.47,0.24,0.38,0.91,0.38,1.77c0,0.66,0.12,1.78-0.12,2.02c-0.27,0.26-1.69,0.17-2.19,0.21c-2.62,0.2-5.05,0.43-5.88,2.58
	c-0.53,1.39-0.43,3.26-0.43,5.13v16.44c-0.48,0.63-2.38,0.61-3.22,0.3c-0.46-0.08-0.72-0.5-0.99-0.78c-0.57-0.59-1.1-1.13-1.71-1.8
	c-0.5-0.55-0.96-0.94-1.93-0.69c-0.55,0.14-1.11,0.53-1.63,0.82c-3.66,1.94-8.06,3.44-13.44,3.66c-6.34,0.25-11.16-1.7-15.28-4.22
	c-3.94-2.41-7.38-5.91-9.83-9.73c-1.85-2.89-3.38-6.31-4.12-10.54c-0.23-1.29-0.28-3.05-0.95-3.92c-0.32-0.43-1.06-0.96-1.72-1.21
	c-0.16-0.06-0.63,0-0.64-0.3c-0.01-0.24,0.47-0.35,0.68-0.43c0.34-0.13,0.51-0.19,0.82-0.25c0.65-0.51,1.11-0.78,1.37-1.47
	c0.37-0.98,0.35-2.16,0.51-3.14c0.53-3.12,1.43-5.75,2.62-8.31c1.51-3.23,3.42-6.23,5.89-8.69c4.74-4.75,10.94-8.91,19.96-9.34
	c6.44-0.31,10.39,1.81,14.55,3.91c0.58,0.29,1.42,0.75,2.14,0.64c0.66-0.1,1.19-0.73,1.59-1.21c0.41-0.48,0.84-1.24,1.38-1.42
	c0.34-0.12,2.64-0.07,2.92,0.09c0.51,0.28,0.5,1.29,0.56,2.24c0.4,5.81,0.71,11.23,1.12,17C250.94,138.37,251,138.78,250.74,139.09z
	"/>
<path d="M88.45,137.61c0,1.03-0.94,1.84-2.09,1.84c-1.16,0-2.09-0.82-2.09-1.84c0-1.02,0.94-1.84,2.09-1.84
	C87.51,135.77,88.45,136.59,88.45,137.61z M88.3,159.08c0,1.02-0.93,1.84-2.09,1.84c-1.16,0-2.09-0.83-2.09-1.84
	s0.93-1.84,2.09-1.84C87.37,157.23,88.3,158.06,88.3,159.08z M88.3,148.35c0,1.02-0.93,1.84-2.09,1.84c-1.16,0-2.09-0.83-2.09-1.84
	c0-1.02,0.93-1.84,2.09-1.84C87.37,146.5,88.3,147.33,88.3,148.35z M69.59,177.15c-0.25-0.78-0.11-2.18-0.08-3.1
	c0.51-0.43,1.19-0.27,1.76-0.3c3.27-0.14,6.29-0.55,7.38-2.93c0.44-0.96,0.48-2.05,0.48-3.61v-14.46c0-0.71,0.1-1.48,0-2.02
	c-0.18-0.94-1.31-1.57-2.24-1.85c-0.45-0.13-1.05-0.16-1.07-0.43c-0.02-0.3,0.73-0.51,1.07-0.66c1.11-0.45,1.99-1.06,2.24-2.32
	c-0.04-7.75,0.05-15.61-0.05-23.29c-0.37-0.56-1.09-0.42-1.67-0.38c-9.56,0.56-14.72,5.1-15.15,14.94
	c-0.03,0.71,0.08,1.74-0.17,1.98c-0.31,0.3-1.8,0.12-2.54,0.12c-1.02,0-1.98,0.06-2.62-0.08c-0.32-0.34-0.14-0.86-0.08-1.29
	c0.84-5.98,1.67-12,2.61-18.12c0.13-0.82,0.18-2.28,0.69-2.5c1.04-0.44,1.23,0.59,1.72,0.91h45.54c1.01,0,2.23,0.18,3.01,0
	c0.24-0.06,0.62-0.34,0.77-0.52c0.19-0.24,0.25-0.73,0.81-0.69c1.02,0.08,0.95,1.44,1.07,2.24c0.87,5.73,1.78,11.5,2.62,17.17
	c0.11,0.74,0.53,2.48,0.21,2.8c-0.21,0.21-1.98,0.08-2.62,0.08c-0.97,0-2.32,0.1-2.58-0.08c-0.3-0.23-0.22-1.29-0.26-1.89
	c-0.6-9.37-5.02-14.63-14.55-15.07c-0.65-0.03-1.52-0.11-1.88,0.13c-0.46,0.31-0.39,1.58-0.39,2.67v18.33c0,0.97-0.16,2.13,0,3.02
	c0.13,0.75,0.87,1.42,1.46,1.68c0.22,0.1,1.57,0.24,1.63,0.6c0.07,0.41-0.46,0.48-0.64,0.56c-1.16,0.49-2.15,0.97-2.4,2.37
	c-0.14,0.79-0.04,1.66-0.04,2.54v12.92c0,1.81,0.02,3.43,0.6,4.52c0.67,1.25,1.99,1.91,3.57,2.24c0.77,0.16,2.61,0.37,3.99,0.39
	c0.46,0.01,1.07-0.06,1.25,0.17c0.16,0.22,0.09,1.05,0.09,1.64c0,0.61,0.09,1.33-0.17,1.55c-0.25,0.21-1.29,0.13-1.98,0.13H77.88
	C75.06,177.24,72.07,177.3,69.59,177.15z"/>
<path d="M172.97,154.15c0,1.02-0.94,1.85-2.09,1.85c-1.15,0-2.09-0.82-2.09-1.85c0-1.02,0.93-1.84,2.09-1.84
	C172.03,152.31,172.97,153.14,172.97,154.15z M167.21,134.58c0,1.02-0.93,1.84-2.09,1.84c-1.15,0-2.09-0.82-2.09-1.84
	c0-1.02,0.94-1.84,2.09-1.84C166.28,132.74,167.21,133.56,167.21,134.58z M170.24,144.43c0,1.02-0.94,1.84-2.09,1.84
	c-1.16,0-2.09-0.82-2.09-1.84c0-1.02,0.93-1.85,2.09-1.85C169.3,142.59,170.24,143.42,170.24,144.43z M142.73,154.15
	c0,1.02-0.93,1.85-2.09,1.85c-1.15,0-2.09-0.82-2.09-1.85c0-1.02,0.94-1.84,2.09-1.84C141.8,152.31,142.73,153.14,142.73,154.15z
	 M137.69,135.47c0,1.02-0.93,1.84-2.09,1.84c-1.16,0-2.09-0.83-2.09-1.84c0-1.02,0.93-1.85,2.09-1.85
	C136.76,133.63,137.69,134.45,137.69,135.47z M140.29,144.94c0,1.02-0.94,1.84-2.09,1.84c-1.16,0-2.09-0.83-2.09-1.84
	c0-1.02,0.93-1.85,2.09-1.85C139.35,143.09,140.29,143.92,140.29,144.94z M145.91,118c0.09,0.35,0.04,0.96,0.04,1.59
	c0,0.57,0.1,1.29-0.13,1.5c-0.32,0.3-1.89,0.16-2.4,0.22c-1.77,0.21-3.28,0.75-3.48,2.59c-0.17,1.6,0.36,3.16,0.68,4.39
	c0.68,2.58,1.54,5.35,2.27,7.88c0.39,1.32,0.64,2.72,1.12,3.96c0.15,0.4,0.82,1.12,1.33,1.3c0.45,0.14,1.07,0.02,1.5,0.16
	c0.12,0.43-0.37,0.59-0.55,0.82c-0.19,0.25-0.41,0.59-0.56,0.86c-0.61,1.11-0.13,2.47,0.21,3.66c1,3.49,2.07,7.31,3.05,10.58
	c0.26-0.11,0.31-0.45,0.39-0.68c3.09-9.13,5.78-17.13,8.11-23.94c-1.69-4.66-1.91-10.96-7.43-11.63c-0.35-0.04-0.84-0.02-1.03-0.21
	c-0.44-0.43-0.09-2.53-0.08-3.14c0.47-0.3,1.09-0.17,1.63-0.17h22.92c0.87,0,2.96-0.23,3.39,0.13c0.28,0.23,0.17,0.94,0.17,1.64
	c0,0.71,0.1,1.46-0.17,1.64c-0.37,0.24-1.61,0.13-2.06,0.17c-2.01,0.17-3.95,0.53-4.85,1.85c-0.79,1.16-0.15,3.45,0.22,4.73
	l2.45,8.52c0.4,1.42,0.59,2.5,2.23,2.67c0.26,0.03,1.16-0.11,1.24,0.21c0.06,0.24-0.33,0.43-0.55,0.61
	c-0.73,0.56-1.22,1.44-1.07,2.75c0.06,0.61,0.35,1.25,0.51,1.89c1.09,4.27,2.48,8.8,3.65,12.95c0.34-0.23,0.37-0.78,0.51-1.21
	c2.65-8.02,5.43-16.06,8.12-24.19c0.57-1.75,1.27-3.39,1.5-5.3c0.5-4.25-2.38-5.25-6.18-5.55c-0.34-0.02-1.24,0.06-1.51-0.17
	c-0.25-0.22-0.17-0.88-0.17-1.55c0-0.65-0.09-1.34,0.09-1.59c0.26-0.38,1.69-0.21,2.45-0.21h15.84c0.63,0,2.16-0.21,2.44,0.17
	c0.23,0.31,0.17,2.81-0.04,3.1c-0.28,0.36-1.55,0.27-2.1,0.39c-4.73,0.95-5.76,5.82-7.21,10.07c-4.16,12.13-8.41,24.53-12.71,36.76
	c-0.62,1.75-1.28,3.61-1.93,5.47c-0.22,0.62-0.56,1.43-0.52,1.94c0.04,0.5,0.57,0.68,0.48,1.25c-0.42,0.5-1.27,0.34-2.02,0.34h-4.72
	c-0.77,0-1.6,0.15-2.1-0.26c-0.18-0.6,0.49-0.75,0.56-1.21c0.05-0.35-0.2-1-0.34-1.5c-1.98-6.97-4.07-14.31-5.97-21.18
	c-0.48-0.43-1.03-0.93-1.75-1.12c-0.37-0.1-0.93,0.1-1.25-0.21c0.15-0.49,0.7-0.66,1.03-0.99c0.41-0.42,0.85-1.04,0.73-1.93
	c-0.09-0.66-0.36-1.39-0.56-2.11c-0.55-1.92-1.21-4.32-1.81-6.12c-0.28,0.19-0.34,0.67-0.47,1.04c-3.66,10.51-7.1,21.24-10.86,31.86
	c-0.23,0.65-0.73,1.69-0.68,2.24c0.03,0.47,0.6,0.52,0.55,1.03c-0.05,0.63-1.13,0.48-2.1,0.48h-5.15c-0.6,0-1.97,0.13-2.1-0.38
	c-0.17-0.66,0.75-0.71,0.86-1.17c0.07-0.31-0.19-1.05-0.34-1.64c-1.6-5.84-3.3-11.98-4.89-17.78c-0.6-2.17-1.11-4.3-1.81-6.41
	c-0.1-0.31-0.54-0.66-0.84-0.94c-0.54-0.5-0.9-0.67-1.87-0.7c-0.38-0.01-0.81,0.2-0.95-0.13c0.21-0.52,0.88-0.63,1.33-0.98
	c0.37-0.29,0.9-0.85,0.99-1.29c0.11-0.56-0.17-1.37-0.34-1.98c-1.21-4.34-2.28-8.26-3.48-12.58c-1.19-4.29-1.97-8.7-6.31-9.73
	c-0.66-0.16-1.58-0.21-1.76-0.52c-0.27-0.46-0.16-2.53,0.08-2.89c0.45-0.66,2.54-0.39,3.86-0.39h21.29
	C145.01,117.74,145.54,117.65,145.91,118z"/>
<path d="M203.91,119.43c-0.19,0.06-0.29,0.27-0.23,0.46c0.2,0.6,0.05,3.42-0.36,3.57c-4.6-0.09-6.57,2.89-6.9,3.94
	c-0.17,0.53-16.75,48.57-16.92,49.06l-0.05,0.15l0.07,0.15c0.42,0.77,0.87,2.07,0.5,2.4c-0.53,0.47-1.89,0.64-2.37,0.58l-7.29-0.07
	c-0.2,0-0.36,0.16-0.36,0.36c0,0.21,0.16,0.36,0.36,0.36l7.25,0.07c0.16,0.02,2.02,0.01,2.89-0.77c0.28-0.25,0.38-0.61,0.38-0.99
	c0-0.84-0.45-1.77-0.66-2.15c0.98-2.83,16.72-48.46,16.87-48.94c0.23-0.75,1.97-3.51,6.2-3.44c0.18,0,0.44-0.06,0.66-0.36
	c0.66-0.92,0.55-3.7,0.4-4.17C204.3,119.47,204.09,119.37,203.91,119.43z M252.29,121.19c-0.11,0-0.2,0.06-0.27,0.14
	c-0.07,0.08-0.09,0.19-0.08,0.29c0.08,0.51,1.12,13.63,1.28,17.75c0.02,0.58-0.05,1.36-0.23,1.59c-0.26,0.25-2.19,0.23-4.04,0.21
	c-0.2,0-0.36,0.16-0.36,0.35c0,0.2,0.16,0.36,0.35,0.37c3.01,0.02,4.25,0.02,4.63-0.52c0.41-0.56,0.36-1.89,0.36-2.04l-0.69-10.51
	C252.67,121.19,252.67,121.19,252.29,121.19z M228.6,122.83c-6.63,0.46-13.44,6.94-12.67,23.75c0.01,0.2,0.17,0.35,0.38,0.34
	c0.2-0.01,0.35-0.18,0.34-0.38c-0.74-16.29,5.72-22.57,12-23c4.24-0.29,6.93,1.47,7.23,1.67c0.17,0.11,0.39,0.07,0.5-0.09
	c0.12-0.16,0.07-0.38-0.09-0.5C235.96,124.41,233.08,122.52,228.6,122.83z M218.17,150.07c-1.8,1.1-1.98,2.06-1.96,3.84
	c0.05,4.04,2.06,13.41,5.71,16.93c0.14,0.14,0.37,0.13,0.5-0.01c0.14-0.15,0.14-0.37-0.01-0.51c-3.25-3.15-5.43-11.84-5.49-16.43
	c-0.02-1.65,0.11-2.29,1.62-3.22c0.17-0.1,0.22-0.32,0.12-0.49C218.56,150.03,218.34,149.97,218.17,150.07z M261.3,150
	c-0.2,0.01-0.35,0.18-0.34,0.38c0,0.03,0.14,2.84-0.03,3.74c-0.1,0.53-0.51,0.72-1.45,0.71l-0.27-0.01
	c-1.04-0.03-3.47-0.08-4.72,0.53c-1.28,0.62-1.55,1.34-1.78,1.92l-0.08,0.22c-0.25,0.6-0.24,3.63-0.19,8.95
	c0.04,4.78,0.11,12.01-0.36,12.69c-0.56,0.35-1.92,0.53-3.74-0.23c-0.18-0.07-0.39,0.02-0.47,0.2c-0.07,0.18,0.01,0.39,0.19,0.47
	c2.07,0.87,3.65,0.64,4.44,0.13c0.65-0.41,0.73-3.66,0.64-13.26c-0.03-3.83-0.07-8.17,0.13-8.66l0.1-0.24
	c0.19-0.51,0.39-1.03,1.42-1.53c1.1-0.54,3.49-0.48,4.39-0.47l0.28,0.01c0.52,0.01,1.89,0.02,2.15-1.29
	c0.19-0.98,0.04-3.79,0.04-3.91C261.67,150.14,261.5,149.99,261.3,150z M225.79,154.79c-0.02,0.2,0.13,0.37,0.33,0.38l0.78,0.07
	c2.06,0.15,5.17,0.38,6.13,1.48c0.14,0.16,0.36,0.17,0.5,0.04c0.16-0.13,0.16-0.35,0.04-0.51c-1.16-1.33-4.31-1.57-6.62-1.74
	l-0.77-0.06C225.98,154.45,225.81,154.6,225.79,154.79z M208.26,173.81c-0.15,0.12-0.18,0.35-0.05,0.5
	c4.58,5.71,23.5,10.64,33.76,2.7c0.16-0.12,0.19-0.35,0.07-0.51c-0.12-0.16-0.35-0.18-0.5-0.06c-9.98,7.72-28.33,2.95-32.77-2.57
	C208.64,173.71,208.42,173.69,208.26,173.81z M193.92,151.05c-0.05,0.19,0.07,0.38,0.26,0.43c0.97,0.22,1.42,1.26,1.64,1.76
	l0.09,0.2c0.08,0.18,0.28,0.25,0.46,0.17c0.18-0.08,0.26-0.31,0.18-0.49l-0.08-0.16c-0.24-0.56-0.81-1.87-2.14-2.18
	C194.14,150.73,193.95,150.86,193.92,151.05z M181.11,123.49c0,0.2,0.16,0.36,0.36,0.36c1.18,0,4,0.16,4.95,1.63
	c0.1,0.16,0.32,0.21,0.5,0.11c0.16-0.11,0.21-0.33,0.11-0.5c-1.09-1.7-3.94-1.96-5.55-1.96
	C181.27,123.13,181.11,123.29,181.11,123.49z M178.16,140.24l-0.38,0.48c-0.53,0.64-0.98,1.19-0.75,2.37
	c0.16,0.84,2.07,7.4,2.18,7.79c0.05,0.18,0.25,0.29,0.45,0.24c0.19-0.07,0.3-0.26,0.24-0.45c-0.96-3.16-2.05-7.07-2.16-7.71
	c-0.16-0.85,0.09-1.16,0.6-1.78l0.4-0.52c0.13-0.15,0.09-0.37-0.06-0.49C178.51,140.05,178.29,140.09,178.16,140.24z M178.25,123.1
	c-0.62,0-4.3,0.22-5.33,1.39c-0.47,0.54-0.9,1.48-0.31,2.99c0.11,0.3,1.79,5.88,2.97,10.03c0.05,0.2,0.25,0.3,0.44,0.25
	c0.18-0.06,0.3-0.25,0.25-0.44c-0.5-1.75-2.87-9.79-2.99-10.09c-0.37-0.95-0.31-1.71,0.17-2.26c0.76-0.86,4.03-1.14,4.71-1.14
	C178.82,123.83,178.91,123.11,178.25,123.1z M159.44,154.07c0,0.2,0.16,0.36,0.36,0.36c0.78,0,1.59,0.57,1.72,0.82
	c0.09,0.17,0.31,0.24,0.48,0.15c0.17-0.09,0.24-0.31,0.15-0.48c-0.26-0.49-1.3-1.21-2.35-1.21
	C159.6,153.71,159.44,153.87,159.44,154.07z M159.43,148.29c-10.53,30.3-9.92,28.93-9.91,29.04l0.36,1.02l0.06,0.13
	c0.04,0.12,0.1,0.47-0.03,0.71c-0.09,0.15-0.24,0.24-0.48,0.3l-8.86-0.02c-0.2,0-0.36,0.16-0.36,0.36c0,0.2,0.16,0.36,0.36,0.36
	h8.94c0.62-0.13,0.89-0.44,1.01-0.66c0.32-0.56,0.12-1.22,0.1-1.3l-0.08-0.19l-0.3-0.81c0.15-0.62,6.32-18.52,9.87-28.73
	c0.07-0.18-0.04-0.38-0.23-0.45C159.7,148,159.49,148.1,159.43,148.29z M128.75,149.86c-0.2,0.01-0.35,0.17-0.34,0.37
	c0,0.2,0.17,0.35,0.37,0.34c0.61-0.02,1.98,0.56,2.43,1.27c0.1,0.16,0.32,0.21,0.49,0.11c0.17-0.1,0.22-0.32,0.11-0.49
	C131.21,150.48,129.56,149.82,128.75,149.86z M148.91,142.47c-0.45,0.45-1.46,1.65-1.11,3.03l1.61,5.62
	c-0.06-0.2,0.23,0.24,0.42,0.19c0.19-0.06,0.22-0.58,0.27-0.39l-1.61-5.6c-0.26-1.03,0.56-1.98,0.92-2.35
	c0.14-0.14,0.14-0.37,0-0.51C149.28,142.32,149.05,142.32,148.91,142.47z M148.83,123.54c-0.02,0.2,0.11,0.38,0.32,0.4
	c0.9,0.11,2.48,0.55,3.1,1.58c0.11,0.17,0.32,0.22,0.49,0.11c0.17-0.1,0.22-0.32,0.12-0.49c-0.82-1.36-2.77-1.82-3.64-1.92
	C149.03,123.2,148.86,123.34,148.83,123.54z M147.07,122.95l-0.95,0.11c-1.47,0.13-2.18-0.06-2.75,0.4
	c-0.9,0.72-1.18,1.91-0.89,2.83l0.37,1.32c3.52,12.47,3.6,12.56,3.69,12.67c0.12,0.14,0.3,0.16,0.46,0.07
	c0.15-0.1,0.21-0.3,0.13-0.46c-0.2-0.48-2.75-9.51-3.59-12.48l-0.38-1.35c-0.22-0.67,0-1.53,0.65-2.05
	c0.45-0.36,1.44-0.16,2.37-0.25l1.03-0.12C147.93,123.51,147.61,122.84,147.07,122.95z M119.91,123.39
	c-0.19,0.01-0.34,0.19-0.33,0.38c0.01,0.2,0.19,0.34,0.38,0.33c0.97-0.07,2.7,0.94,3.31,1.64c0.13,0.15,0.35,0.17,0.5,0.04
	c0.15-0.13,0.16-0.36,0.03-0.51C123.11,124.46,121.18,123.29,119.91,123.39z M115.23,118.39c-0.19,0.03-0.33,0.21-0.3,0.41
	l3.25,20.84c-0.02-0.02-0.14,0.76-0.88,0.72l-4.73-0.03c-0.2,0-0.36,0.16-0.36,0.36c0,0.2,0.16,0.35,0.36,0.36l4.71,0.02
	c1.12,0.07,1.54-0.92,1.61-1.45l-3.25-20.93C115.61,118.49,115.42,118.36,115.23,118.39z M97.31,124.24
	c-0.42,0.05-0.83,0.14-1.09,0.41l-0.17,0.61c-0.02,0.02,0.12,0.25,0.17,20.76c0,0.2,0.16,0.35,0.35,0.35c0.2,0,0.36-0.16,0.36-0.35
	c-0.02-7.01-0.22-20.16-0.18-20.63l0.02-0.29c0.04-0.04,0.26-0.11,0.62-0.15c0.56-0.07,5.43,0.53,6.22,1.72
	c0.11,0.17,0.32,0.21,0.49,0.1c0.16-0.11,0.21-0.32,0.1-0.49C103.1,124.6,97.6,124.21,97.31,124.24z M98.68,149.9
	c-0.96,0.14-2.82,1.02-2.96,3.23l0.19,17.25c0,0.2,0.16,0.35,0.36,0.35c0.2-0.01,0.36-0.16,0.36-0.36l-0.19-17.22
	c0.13-2.16,2.26-2.52,2.35-2.54c0.2-0.03,0.33-0.21,0.3-0.41C99.05,150,98.87,149.87,98.68,149.9z M105.06,176.46v2.09
	c0,0.04-0.03,0.8-0.69,1.08H71.79c-0.19,0-0.35,0.16-0.35,0.36c0,0.2,0.16,0.36,0.35,0.36h32.74c1.23-0.47,1.24-1.75,1.24-1.8v-2.09
	c0-0.2-0.16-0.36-0.36-0.36C105.22,176.11,105.06,176.27,105.06,176.46z M75.05,150.51c-0.03,0.2,0.11,0.38,0.3,0.4
	c0.83,0.12,1.98,1.52,2.11,1.77c0.09,0.17,0.3,0.25,0.47,0.16c0.17-0.08,0.26-0.28,0.18-0.45c-0.13-0.3-1.48-2.02-2.66-2.19
	C75.26,150.18,75.08,150.32,75.05,150.51z M72.85,124.91c-2.03,0.7-4.11,1.56-5.48,3.16c-2.81,3.3-3.18,8.49-3.38,11.28
	c-0.04,0.68-0.09,1.38-0.16,1.52c-0.06,0.08-0.49,0.15-0.89,0.11h-4.82c-0.2,0-0.36,0.16-0.36,0.35c0,0.21,0.16,0.36,0.36,0.36h4.78
	c0.26,0.03,1.24,0.08,1.55-0.48c0.13-0.25,0.17-0.71,0.25-1.81c0.19-2.71,0.55-7.75,3.21-10.87c1.26-1.48,3.22-2.29,5.16-2.95
	c1.68-0.57,3.22-0.93,4.3-0.77c0.19,0.03,0.37-0.11,0.41-0.3c0.02-0.19-0.11-0.37-0.3-0.41C76.18,123.91,74.46,124.35,72.85,124.91z
	"/>
</svg>
