<?xml version="1.0" encoding="utf-8"?>
<!-- Generator: Adobe Illustrator 16.0.0, SVG Export Plug-In . SVG Version: 6.00 Build 0)  -->
<!DOCTYPE svg PUBLIC "-//W3C//DTD SVG 1.1//EN" "http://www.w3.org/Graphics/SVG/1.1/DTD/svg11.dtd">
<svg version="1.1" id="Layer_1" xmlns="http://www.w3.org/2000/svg" xmlns:xlink="http://www.w3.org/1999/xlink" x="0px" y="0px"
	 width="62.36px" height="62.359px" viewBox="0 0 62.36 62.359" enable-background="new 0 0 62.36 62.359" xml:space="preserve">
<g>
	<g>
		<path d="M58.932,15.74c0-0.399,0.342-0.711,0.738-0.711c0.4,0,0.739,0.313,0.739,0.711c0,0.398-0.323,0.712-0.708,0.712
			C59.292,16.451,58.932,16.138,58.932,15.74z M59.672,16.34c0.342,0,0.63-0.265,0.63-0.601c0-0.335-0.286-0.6-0.63-0.6
			c-0.34,0-0.627,0.265-0.627,0.6C59.043,16.075,59.333,16.34,59.672,16.34z M59.307,16.072c0.092-0.01,0.116-0.016,0.116-0.125
			v-0.452c0-0.105-0.024-0.102-0.116-0.115v-0.063h0.383c0.197,0,0.346,0.031,0.346,0.205c0,0.154-0.139,0.184-0.23,0.204
			c0.195,0.117,0.133,0.291,0.215,0.291c0.049,0,0.051-0.082,0.051-0.104h0.063c0,0.07-0.029,0.219-0.168,0.219
			c-0.271,0-0.102-0.387-0.333-0.387h-0.035v0.189c0,0.125,0.012,0.121,0.118,0.137v0.061h-0.41v-0.061H59.307z M59.597,15.68h0.065
			c0.092,0,0.18-0.021,0.18-0.143c0-0.096-0.029-0.158-0.137-0.158c-0.106,0-0.108,0.041-0.108,0.121V15.68L59.597,15.68z"/>
	</g>
	<g>
		<path d="M7.464,34.236c0,8.633,10.426,15.656,23.245,15.656c12.817,0,23.243-7.023,23.243-15.656S43.526,18.579,30.708,18.579
			C17.892,18.579,7.464,25.603,7.464,34.236z M8.007,34.236c0-8.349,10.183-15.138,22.701-15.138
			c12.517,0,22.701,6.791,22.701,15.138S43.227,49.373,30.708,49.373S8.007,42.582,8.007,34.236z"/>
		<path d="M24.849,27.275c-0.061,0-0.162-0.008-0.294-0.016l-0.247-0.016c-0.154-0.008-0.318-0.016-0.487-0.016
			c-0.123,0-0.263,0-0.509,0.008c-0.24,0.008-0.287,0.016-0.534,0.031c-0.107,0.008-0.178,0.008-0.222,0.008
			c-0.203,0-0.31-0.064-0.31-0.178c0-0.041,0.016-0.071,0.031-0.097c0.061-0.072,0.093-0.08,0.394-0.121
			c0.31-0.049,0.386-0.152,0.386-0.524l0.008-0.29v-2.803v-0.306c-0.008-0.258-0.039-0.313-0.185-0.313
			c-0.086,0-0.146,0.016-0.315,0.089c-0.125,0.057-0.186,0.072-0.248,0.072c-0.094,0-0.154-0.057-0.154-0.153
			c0-0.139,0.076-0.193,0.472-0.307c0.649-0.202,0.967-0.323,1.384-0.539c0.053-0.031,0.101-0.049,0.13-0.049
			c0.086,0,0.131,0.079,0.131,0.233v0.282v0.266v3.527c0,0.652,0.054,0.758,0.403,0.814c0.349,0.049,0.433,0.088,0.433,0.218
			C25.112,27.208,25.012,27.275,24.849,27.275z M23.488,23.303c0-0.386-0.016-0.515-0.078-0.627
			c-0.061-0.113-0.214-0.186-0.386-0.186c-0.039,0-0.078,0-0.132,0.008c0.263,0.031,0.318,0.105,0.325,0.419v0.347v2.746
			c0,0.573,0,0.604-0.046,0.732c-0.031,0.105-0.107,0.17-0.279,0.244c0.466-0.051,0.596-0.244,0.596-0.879V23.303L23.488,23.303z"/>
		<path d="M27.672,27.411c-1.128,0-2.001-0.62-2.001-1.425c0-0.509,0.371-0.967,0.959-1.185c0.109-0.041,0.177-0.082,0.177-0.113
			c0-0.008-0.016-0.023-0.045-0.041l-0.21-0.121c-0.438-0.249-0.702-0.684-0.702-1.183c0-0.943,0.803-1.586,1.962-1.586
			c1.128,0,1.9,0.514,1.9,1.265c0,0.419-0.248,0.717-0.766,0.934c-0.193,0.079-0.24,0.104-0.24,0.12s0.031,0.041,0.068,0.057
			l0.232,0.129c0.602,0.329,0.928,0.822,0.928,1.401C29.937,26.668,28.978,27.411,27.672,27.411z M26.528,26.856
			c-0.255-0.211-0.417-0.548-0.417-0.879c0-0.282,0.123-0.612,0.308-0.813c0.101-0.121,0.193-0.186,0.425-0.306
			c-0.324,0.12-0.433,0.175-0.618,0.329c-0.24,0.2-0.386,0.517-0.386,0.797c0,0.571,0.509,1.062,1.275,1.224
			C26.766,27.033,26.706,27,26.528,26.856z M28.251,24.849l-1.019-0.466c-0.696-0.324-0.974-0.661-0.974-1.193
			c0-0.555,0.292-0.956,0.888-1.216c-0.68,0.186-1.128,0.717-1.128,1.329c0,0.548,0.331,0.975,0.972,1.265l0.928,0.419
			c0.704,0.321,1.027,0.685,1.027,1.152c0,0.282-0.138,0.57-0.362,0.758c-0.154,0.137-0.255,0.185-0.558,0.29
			c0.672-0.139,1.136-0.635,1.136-1.216C29.163,25.493,28.869,25.139,28.251,24.849z M28.358,25.419
			c-0.162-0.104-0.37-0.216-0.625-0.345c-0.115-0.057-0.232-0.105-0.349-0.146c-0.062-0.023-0.109-0.031-0.13-0.031
			c-0.086,0-0.224,0.113-0.302,0.242c-0.123,0.218-0.193,0.483-0.193,0.758c0,0.677,0.433,1.183,1.02,1.183
			c0.549,0,0.996-0.427,0.996-0.933C28.775,25.856,28.629,25.599,28.358,25.419z M27.764,22.095c-0.456,0-0.828,0.339-0.828,0.758
			c0,0.266,0.156,0.507,0.403,0.644c0.123,0.063,0.333,0.161,0.62,0.282c0.193,0.09,0.292,0.121,0.339,0.121
			c0.031,0,0.063-0.016,0.1-0.057c0.195-0.186,0.294-0.45,0.294-0.718C28.691,22.52,28.306,22.095,27.764,22.095z M28.181,22.005
			c0.495,0.315,0.682,0.612,0.682,1.105c0,0.362-0.125,0.627-0.404,0.861c0.394-0.227,0.634-0.581,0.634-0.943
			C29.093,22.569,28.77,22.206,28.181,22.005z"/>
		<path d="M32.889,27.359c-0.464,0.265-0.98,0.419-1.391,0.419c-0.509,0-0.881-0.275-0.881-0.653c0-0.274,0.224-0.491,0.51-0.491
			c0.224,0,0.386,0.113,0.503,0.373c0.047,0.103,0.084,0.177,0.106,0.216c0.055,0.113,0.117,0.152,0.225,0.152
			c0.084,0,0.193-0.023,0.271-0.057c0.523-0.227,0.912-0.861,0.912-1.515c0-0.789-0.535-1.4-1.223-1.4
			c-0.278,0-0.625,0.071-0.811,0.169c-0.13,0.064-0.193,0.104-0.201,0.104c-0.023,0.008-0.054,0.018-0.076,0.018
			c-0.07,0-0.125-0.064-0.125-0.146c0-0.031,0.008-0.064,0.023-0.096c0.039-0.056,0.092-0.112,0.16-0.153
			c0.063-0.041,0.21-0.129,0.45-0.258c0.819-0.468,1.212-0.942,1.212-1.449c0-0.386-0.292-0.669-0.679-0.669
			c-0.255,0-0.51,0.139-0.674,0.372l-0.169,0.234c-0.055,0.08-0.102,0.113-0.164,0.113c-0.085,0-0.138-0.057-0.138-0.139
			c0-0.105,0.102-0.298,0.24-0.46c0.339-0.403,0.802-0.597,1.415-0.597c0.843,0,1.384,0.348,1.384,0.887
			c0,0.411-0.325,0.805-0.881,1.096l-0.563,0.282l-0.162,0.09c0.325-0.049,0.439-0.064,0.619-0.064c0.943,0,1.576,0.589,1.576,1.458
			C34.356,26.022,33.809,26.826,32.889,27.359z M30.974,27.15c0-0.185,0.055-0.282,0.216-0.378
			c-0.261,0.008-0.409,0.137-0.409,0.362c0,0.232,0.156,0.396,0.511,0.507C31.05,27.489,30.974,27.359,30.974,27.15z M32.124,24.186
			c-0.209,0-0.324,0.016-0.618,0.105c0.217-0.033,0.302-0.041,0.417-0.041c0.805,0,1.386,0.645,1.386,1.539
			c0,0.62-0.263,1.129-0.82,1.587c0.341-0.186,0.456-0.291,0.679-0.604c0.271-0.37,0.385-0.725,0.385-1.144
			C33.553,24.757,32.989,24.186,32.124,24.186z M32.124,21.688c-0.178,0-0.285,0.031-0.446,0.121
			c0.114-0.031,0.169-0.041,0.245-0.041c0.443,0,0.797,0.362,0.797,0.805c0,0.128-0.023,0.265-0.07,0.396
			c-0.099,0.265-0.2,0.394-0.541,0.707l-0.162,0.154c0.686-0.46,1.02-0.91,1.02-1.394C32.965,22.003,32.618,21.688,32.124,21.688z"
			/>
		<path d="M38.879,22.142c-0.047,0.082-0.123,0.249-0.239,0.517l-0.347,0.773c-0.441,0.975-0.844,1.909-1.014,2.336l-0.456,1.16
			c-0.108,0.274-0.169,0.435-0.187,0.491c-0.047,0.153-0.092,0.226-0.154,0.249c-0.037,0.008-0.17,0.023-0.287,0.023
			c-0.061,0-0.084-0.016-0.084-0.057c0-0.023,0.016-0.072,0.039-0.113c0.148-0.313,0.225-0.482,0.412-0.933
			c0.162-0.396,0.302-0.741,0.416-1.039c0.324-0.807,0.611-1.57,0.759-2.015l0.092-0.266c0.015-0.025,0.015-0.049,0.015-0.064
			c0-0.057-0.046-0.072-0.194-0.072h-1.198c-0.068,0-0.303,0-0.701,0.018c-0.357,0.008-0.496,0.016-0.659,0.041
			c-0.039,0.008-0.084,0.016-0.106,0.016c-0.125,0-0.141-0.057-0.162-0.411l-0.016-0.474l-0.008-0.265v-0.025
			c0-0.152,0.023-0.186,0.115-0.186c0.039,0,0.093,0.008,0.161,0.008c0.141,0.016,0.409,0.023,0.826,0.023h1.021h1.886
			c0.078,0,0.117,0.031,0.117,0.09C38.926,22.013,38.911,22.079,38.879,22.142z M38.44,22.062h-2.166
			c-0.518,0-0.756-0.008-1.081-0.023c-0.063-0.008-0.107-0.008-0.131-0.008c-0.063,0-0.075,0.025-0.075,0.105v0.128
			c0.51,0.023,0.748,0.031,1.398,0.031h2.157l0.039-0.089c0.023-0.049,0.039-0.08,0.039-0.105
			C38.617,22.07,38.593,22.062,38.44,22.062z"/>
		<path d="M26.793,41.694c-0.01,0.029-0.027,0.154-0.053,0.358l-0.072,0.497L26.624,42.9c-0.02,0.086-0.1,0.154-0.199,0.154
			c-0.035,0-0.07-0.008-0.098-0.031c-0.082-0.047-0.119-0.1-0.269-0.397c-0.234-0.437-0.45-0.558-1.025-0.558H24.71
			c-0.145,0.006-0.162,0.021-0.162,0.146v3.479c0,0.621,0.053,0.721,0.44,0.773c0.386,0.047,0.476,0.084,0.476,0.206
			c0,0.107-0.125,0.168-0.341,0.168c-0.045,0-0.143-0.008-0.269-0.008c-0.109-0.008-0.199-0.014-0.271-0.014l-0.396-0.008
			l-0.413-0.016l-0.386,0.008l-0.44,0.016c-0.072,0-0.171,0.006-0.269,0.014c-0.125,0-0.224,0.008-0.261,0.008
			c-0.216,0-0.341-0.061-0.341-0.168c0-0.122,0.089-0.161,0.468-0.206c0.376-0.053,0.431-0.152,0.431-0.773v-3.418
			c0-0.17-0.047-0.207-0.244-0.207c-0.386,0-0.682,0.053-0.863,0.168c-0.063,0.039-0.171,0.122-0.306,0.261
			c-0.126,0.115-0.224,0.223-0.315,0.329c-0.117,0.146-0.18,0.184-0.279,0.184c-0.107,0-0.189-0.068-0.189-0.154
			c0-0.055,0.01-0.114,0.035-0.19l0.136-0.368c0.053-0.146,0.099-0.283,0.125-0.391c0.117-0.437,0.162-0.52,0.333-0.52
			c0.025,0,0.062,0.008,0.08,0.016c0.045,0.016,0.072,0.038,0.09,0.06c0.008,0.008,0.025,0.055,0.063,0.129
			c0.055,0.123,0.107,0.139,0.403,0.139h3.459l0.378-0.008c0.314-0.008,0.369-0.029,0.493-0.207
			c0.072-0.114,0.134-0.146,0.234-0.146c0.119,0,0.207,0.061,0.207,0.136C26.819,41.557,26.811,41.617,26.793,41.694z M21.394,41.6
			l-0.035,0.115l-0.117,0.413c-0.055,0.183-0.09,0.282-0.216,0.552c0.044-0.055,0.082-0.094,0.099-0.115
			c0.341-0.405,0.376-0.444,0.602-0.544C21.5,41.892,21.456,41.848,21.394,41.6z M23.477,42.036h-0.304l-0.01,3.689
			c0,0.627-0.027,0.719-0.304,0.826c0.179,0,0.251-0.016,0.368-0.084c0.197-0.121,0.251-0.267,0.251-0.711L23.477,42.036
			L23.477,42.036z M25.94,41.968c-0.037,0-0.063,0-0.224-0.008c0.214,0.094,0.287,0.146,0.394,0.277
			c0.08,0.114,0.117,0.198,0.171,0.405l0.018-0.178l0.027-0.259l0.035-0.262l0.018-0.093C26.244,41.947,26.174,41.968,25.94,41.968z
			"/>
		<path d="M32.527,45.803c-0.018,0.076-0.035,0.168-0.053,0.275c-0.045,0.214-0.072,0.36-0.072,0.429
			c-0.018,0.261-0.071,0.337-0.216,0.337c-0.053,0-0.162,0-0.307-0.008c-0.117-0.008-0.395-0.014-0.835-0.023l-0.702-0.016
			l-0.727,0.008H29.14c-0.216,0.008-0.433,0.008-0.639,0.008c-0.304,0-0.366,0.008-0.655,0.023
			c-0.117,0.008-0.189,0.008-0.244,0.008c-0.197,0-0.304-0.061-0.304-0.168c0-0.122,0.072-0.161,0.423-0.206
			c0.333-0.053,0.386-0.152,0.386-0.773v-2.83c0-0.621-0.053-0.719-0.386-0.766c-0.351-0.053-0.423-0.092-0.423-0.213
			c0-0.108,0.109-0.169,0.304-0.169c0.027,0,0.107,0.008,0.244,0.016c0.152,0.006,0.421,0.014,0.737,0.014
			c0.244,0.008,0.423,0.008,0.602,0.008c0.873,0,2.142-0.031,2.634-0.061c0.098-0.008,0.17-0.016,0.207-0.016
			c0.127,0,0.172,0.047,0.172,0.154c0,0.038,0,0.091-0.01,0.153v0.23c0,0.138,0,0.259,0.01,0.366
			c0.008,0.047,0.008,0.094,0.008,0.131c0,0.138-0.045,0.198-0.17,0.198c-0.127,0-0.189-0.039-0.297-0.19
			c-0.144-0.217-0.377-0.437-0.521-0.513c-0.125-0.068-0.358-0.115-0.567-0.115c-0.306,0-0.664,0.014-0.791,0.047
			c-0.134,0.023-0.171,0.068-0.171,0.243l-0.008,0.262v0.963c0,0.161,0.018,0.243,0.055,0.269c0.035,0.029,0.052,0.029,0.351,0.029
			c0.244,0,0.378-0.008,0.53-0.021c0.117-0.008,0.207-0.031,0.269-0.068c0.107-0.063,0.152-0.123,0.351-0.491
			c0.063-0.107,0.117-0.146,0.214-0.146c0.117,0,0.207,0.076,0.207,0.191c0,0.031-0.01,0.084-0.018,0.176
			c-0.008,0.053-0.008,0.136-0.018,0.261c-0.018,0.215-0.018,0.282-0.018,0.374c0,0.068,0,0.139,0.008,0.191l0.027,0.337
			c0.008,0.061,0.008,0.115,0.008,0.154c0,0.128-0.072,0.19-0.197,0.19c-0.145,0-0.197-0.053-0.314-0.296
			c-0.171-0.36-0.396-0.499-0.854-0.499c-0.549,0-0.604,0.031-0.604,0.337v0.826c0,0.536,0.055,0.743,0.226,0.896
			c0.134,0.121,0.36,0.182,0.682,0.182c0.612,0,1.052-0.207,1.338-0.626l0.18-0.276c0.072-0.1,0.145-0.139,0.252-0.139
			c0.126,0,0.198,0.068,0.198,0.176C32.554,45.663,32.546,45.74,32.527,45.803z M28.61,42.802c0-0.267-0.018-0.382-0.072-0.489
			c-0.08-0.183-0.269-0.284-0.547-0.284c0.278,0.102,0.306,0.191,0.306,0.803v2.895c0,0.627-0.027,0.719-0.306,0.826
			c0.181,0,0.251-0.016,0.368-0.084c0.197-0.121,0.251-0.267,0.251-0.711V42.802L28.61,42.802z M31.26,44.096
			c0-0.214,0-0.298,0.037-0.52c-0.189,0.39-0.306,0.474-0.727,0.512c0.242,0.039,0.349,0.084,0.468,0.199
			c0.115,0.107,0.162,0.178,0.261,0.413C31.26,44.432,31.26,44.311,31.26,44.096z M31.899,42.52c0-0.031,0-0.1-0.008-0.207v-0.208
			c0-0.107-0.018-0.113-0.206-0.113h-0.053h-0.333c-0.037,0-0.099,0.006-0.171,0.006c0.216,0.063,0.289,0.1,0.458,0.238
			c0.135,0.114,0.196,0.183,0.323,0.36C31.899,42.565,31.899,42.535,31.899,42.52z M31.782,46.308
			c-0.171,0.146-0.288,0.199-0.574,0.244l0.171,0.008h0.333l0.253,0.006c0.072,0,0.08-0.014,0.09-0.076
			c0.027-0.191,0.07-0.429,0.125-0.675C32.006,46.084,31.944,46.17,31.782,46.308z"/>
		<path d="M39.431,46.842H39.25l-0.61-0.031c-0.198-0.008-0.386-0.016-0.575-0.016c-0.271,0-0.592,0.008-0.998,0.031
			c-0.124,0.008-0.269,0.016-0.306,0.016c-0.161,0-0.251-0.053-0.251-0.16c0-0.075,0.045-0.13,0.127-0.161
			c0.053-0.016,0.08-0.023,0.259-0.047c0.233-0.031,0.333-0.086,0.333-0.176c0-0.039-0.018-0.099-0.063-0.19l-0.172-0.39
			l-0.233-0.458c-0.027-0.07-0.054-0.107-0.071-0.131c-0.025-0.023-0.063-0.047-0.107-0.047h-0.127h-1.419
			c-0.206,0-0.251,0.031-0.313,0.199l-0.09,0.261c-0.072,0.207-0.125,0.421-0.125,0.528c0,0.229,0.162,0.345,0.558,0.392
			c0.306,0.031,0.386,0.066,0.386,0.199c0,0.122-0.107,0.183-0.313,0.183c-0.045,0-0.145-0.008-0.233-0.008
			c-0.396-0.031-0.459-0.039-0.683-0.039c-0.216,0-0.304,0.008-0.675,0.039c-0.099,0.008-0.179,0.008-0.251,0.008
			c-0.171,0-0.269-0.068-0.269-0.183c0-0.107,0.08-0.162,0.278-0.191c0.188-0.023,0.278-0.053,0.351-0.113
			c0.127-0.094,0.18-0.177,0.441-0.721l0.457-0.941l0.699-1.493l0.432-0.873c0.082-0.159,0.154-0.304,0.206-0.437
			c0.107-0.235,0.224-0.306,0.485-0.306c0.189,0,0.262,0.053,0.352,0.262c0.124,0.259,0.285,0.604,0.512,1.048l0.674,1.353
			l0.531,1.08l0.34,0.633c0.244,0.452,0.324,0.521,0.62,0.521c0.233,0,0.315,0.045,0.315,0.176
			C39.717,46.803,39.655,46.842,39.431,46.842z M34.444,46.484c-0.124-0.076-0.188-0.207-0.188-0.39c0-0.092,0.01-0.154,0.055-0.323
			l0.037-0.146l-0.063,0.131l-0.152,0.329c-0.144,0.296-0.243,0.397-0.55,0.513c0.262-0.023,0.369-0.023,0.54-0.023
			c0.1,0,0.251,0,0.458,0.008l0.252,0.016C34.586,46.544,34.534,46.527,34.444,46.484z M36.438,44.585
			c-0.02-0.047-0.035-0.076-0.045-0.092l-0.592-1.179c-0.035-0.061-0.072-0.107-0.09-0.107c-0.027,0-0.072,0.078-0.135,0.191
			c-0.037,0.076-0.1,0.207-0.189,0.382c-0.107,0.223-0.188,0.384-0.233,0.499c-0.055,0.107-0.09,0.176-0.107,0.207
			c-0.018,0.046-0.037,0.083-0.037,0.12c0,0.07,0.055,0.094,0.197,0.094h1.06c0.152,0,0.189-0.008,0.189-0.061
			C36.456,44.622,36.448,44.607,36.438,44.585z M37.508,45.74l-1.528-3.151l-0.161,0.321l1.445,2.962
			c0.127,0.27,0.164,0.361,0.164,0.458c0,0.084-0.047,0.146-0.164,0.215c0.27-0.039,0.405-0.139,0.405-0.329
			C37.669,46.115,37.615,45.969,37.508,45.74z"/>
		<path d="M8.524,34.251c0,8.008,9.954,14.524,22.188,14.524c12.232,0,22.187-6.517,22.187-14.524s-9.952-14.524-22.187-14.524
			S8.524,26.241,8.524,34.251z M8.705,34.251c0-7.912,9.873-14.351,22.007-14.351c12.133,0,22.005,6.438,22.005,14.351
			s-9.872,14.353-22.005,14.353C18.578,48.602,8.705,42.163,8.705,34.251z"/>
		<path d="M47.85,37.489c0,0.198-0.184,0.358-0.41,0.358c-0.224,0-0.404-0.162-0.404-0.358c0-0.201,0.181-0.359,0.404-0.359
			C47.668,37.127,47.85,37.287,47.85,37.489z M40.864,36.847c0,0.199-0.184,0.358-0.409,0.358c-0.225,0-0.407-0.159-0.407-0.358
			s0.183-0.358,0.407-0.358C40.68,36.487,40.864,36.648,40.864,36.847z M40.61,32.908c0,0.201-0.181,0.358-0.406,0.358
			c-0.227,0-0.408-0.159-0.408-0.358c0-0.198,0.182-0.358,0.408-0.358C40.429,32.552,40.61,32.712,40.61,32.908z M40.497,34.83
			c0,0.198-0.181,0.358-0.406,0.358c-0.225,0-0.406-0.162-0.406-0.358c0-0.199,0.182-0.359,0.406-0.359
			C40.316,34.469,40.497,34.631,40.497,34.83z M48.864,32.951c-0.117,0.041-0.258,0.016-0.428,0.016
			c-0.138,0-0.354,0.029-0.434-0.016c-0.063-0.035-0.113-0.207-0.15-0.319c-0.271-0.82-0.595-1.599-1.07-2.198
			c-0.518-0.651-1.377-1.21-2.645-1.041c-1.057,0.141-1.656,0.859-2.007,1.729c-0.304,0.756-0.452,1.725-0.503,2.777
			c-0.01,0.251-0.025,0.438,0.061,0.596c0.068,0.059,0.135,0.102,0.242,0.143c0.062,0.023,0.263,0.057,0.267,0.119
			c0.003,0.045-0.123,0.084-0.168,0.109c-0.051,0.028-0.136,0.062-0.175,0.091c-0.125,0.094-0.156,0.219-0.209,0.361
			c0.061,1.228,0.242,2.271,0.693,3.129c0.408,0.772,1.104,1.575,2.419,1.315c1.081-0.21,1.368-1.198,1.321-2.482
			c-0.039-1.016-0.299-1.521-1.205-1.66c-0.12-0.02-0.284-0.033-0.434-0.041c-0.117-0.008-0.369,0.016-0.42-0.051
			c-0.037-0.049-0.018-0.243-0.018-0.353c0-0.143-0.029-0.281,0.018-0.343c0.066-0.086,0.604-0.041,0.763-0.041h5.221
			c0.14,0,0.312-0.016,0.376,0.016c0.092,0.047,0.074,0.177,0.074,0.345c0,0.129,0.023,0.347-0.023,0.394
			c-0.053,0.051-0.33,0.033-0.427,0.041c-0.511,0.039-0.984,0.084-1.146,0.503c-0.104,0.271-0.084,0.635-0.084,0.999v3.204
			c-0.094,0.123-0.465,0.119-0.628,0.059c-0.089-0.016-0.14-0.098-0.192-0.152c-0.111-0.114-0.215-0.22-0.334-0.351
			c-0.098-0.107-0.188-0.183-0.376-0.135c-0.106,0.027-0.216,0.104-0.317,0.16c-0.713,0.378-1.57,0.671-2.619,0.713
			c-1.236,0.049-2.175-0.331-2.979-0.822c-0.768-0.47-1.438-1.151-1.915-1.896c-0.36-0.563-0.659-1.229-0.803-2.055
			c-0.045-0.251-0.055-0.594-0.185-0.764c-0.063-0.084-0.207-0.187-0.336-0.235c-0.031-0.012-0.123,0-0.125-0.059
			c-0.002-0.047,0.092-0.068,0.133-0.084c0.066-0.025,0.1-0.037,0.16-0.049c0.127-0.1,0.217-0.152,0.267-0.286
			c0.072-0.191,0.068-0.421,0.1-0.612c0.103-0.607,0.278-1.12,0.511-1.619c0.294-0.63,0.666-1.214,1.147-1.693
			c0.924-0.926,2.132-1.738,3.89-1.82c1.256-0.061,2.025,0.353,2.836,0.762c0.113,0.057,0.276,0.146,0.417,0.125
			c0.128-0.02,0.231-0.143,0.31-0.236c0.08-0.093,0.164-0.241,0.27-0.276c0.065-0.023,0.514-0.014,0.568,0.018
			c0.1,0.055,0.098,0.251,0.109,0.437c0.078,1.132,0.139,2.188,0.219,3.313C48.903,32.811,48.915,32.891,48.864,32.951z"/>
		<path d="M17.237,32.663c0,0.2-0.183,0.358-0.407,0.358c-0.226,0-0.407-0.16-0.407-0.358c0-0.199,0.183-0.359,0.407-0.359
			S17.237,32.464,17.237,32.663z M17.208,36.847c0,0.199-0.181,0.358-0.407,0.358s-0.407-0.161-0.407-0.358s0.181-0.358,0.407-0.358
			C17.026,36.487,17.208,36.648,17.208,36.847z M17.208,34.756c0,0.198-0.181,0.358-0.407,0.358s-0.407-0.162-0.407-0.358
			c0-0.199,0.181-0.358,0.407-0.358C17.026,34.396,17.208,34.557,17.208,34.756z M13.562,40.368
			c-0.049-0.152-0.021-0.425-0.016-0.604c0.099-0.083,0.232-0.053,0.343-0.059c0.637-0.026,1.226-0.106,1.438-0.57
			c0.085-0.188,0.093-0.399,0.093-0.704v-2.817c0-0.139,0.02-0.288,0-0.394c-0.035-0.184-0.255-0.307-0.437-0.36
			c-0.087-0.025-0.205-0.031-0.208-0.084c-0.004-0.059,0.143-0.1,0.208-0.129c0.216-0.088,0.388-0.206,0.437-0.452
			c-0.008-1.51,0.01-3.042-0.01-4.538c-0.072-0.109-0.212-0.082-0.325-0.074c-1.863,0.108-2.869,0.993-2.953,2.911
			c-0.006,0.139,0.016,0.339-0.033,0.386c-0.061,0.059-0.351,0.023-0.495,0.023c-0.199,0-0.386,0.012-0.511-0.016
			c-0.063-0.066-0.027-0.168-0.016-0.251c0.164-1.166,0.326-2.339,0.509-3.531c0.025-0.16,0.035-0.444,0.134-0.487
			c0.203-0.086,0.24,0.115,0.335,0.177h8.875c0.197,0,0.435,0.035,0.586,0c0.047-0.011,0.121-0.065,0.15-0.101
			c0.037-0.047,0.048-0.143,0.16-0.135c0.199,0.016,0.185,0.28,0.208,0.437c0.169,1.116,0.347,2.241,0.511,3.346
			c0.021,0.145,0.103,0.483,0.041,0.546c-0.041,0.041-0.386,0.016-0.51,0.016c-0.189,0-0.452,0.02-0.503-0.016
			c-0.059-0.045-0.043-0.251-0.051-0.368c-0.117-1.826-0.978-2.852-2.835-2.937c-0.126-0.006-0.296-0.021-0.366,0.025
			c-0.09,0.06-0.076,0.308-0.076,0.52v3.572c0,0.189-0.031,0.415,0,0.589c0.025,0.146,0.17,0.276,0.285,0.327
			c0.043,0.02,0.306,0.047,0.318,0.117c0.013,0.08-0.09,0.094-0.125,0.109c-0.226,0.095-0.419,0.188-0.468,0.462
			c-0.027,0.153-0.008,0.323-0.008,0.494v2.519c0,0.353,0.004,0.668,0.117,0.881c0.13,0.243,0.388,0.372,0.696,0.437
			c0.15,0.031,0.508,0.071,0.777,0.075c0.09,0.002,0.208-0.012,0.244,0.033c0.031,0.043,0.018,0.205,0.018,0.32
			c0,0.118,0.018,0.259-0.033,0.302c-0.049,0.041-0.251,0.025-0.386,0.025h-4.504C14.627,40.386,14.045,40.398,13.562,40.368z"/>
		<path d="M33.708,35.886c0,0.199-0.184,0.36-0.407,0.36s-0.407-0.159-0.407-0.36c0-0.198,0.182-0.358,0.407-0.358
			C33.524,35.528,33.708,35.69,33.708,35.886z M32.585,32.073c0,0.199-0.182,0.358-0.407,0.358c-0.225,0-0.408-0.159-0.408-0.358
			s0.184-0.358,0.408-0.358C32.404,31.714,32.585,31.873,32.585,32.073z M33.176,33.992c0,0.198-0.184,0.358-0.408,0.358
			c-0.226,0-0.406-0.16-0.406-0.358c0-0.199,0.181-0.361,0.406-0.361C32.993,33.633,33.176,33.793,33.176,33.992z M27.814,35.886
			c0,0.199-0.181,0.36-0.407,0.36c-0.224,0-0.407-0.159-0.407-0.36c0-0.198,0.181-0.358,0.407-0.358S27.814,35.69,27.814,35.886z
			 M26.833,32.246c0,0.198-0.181,0.358-0.407,0.358s-0.407-0.162-0.407-0.358c0-0.199,0.181-0.361,0.407-0.361
			C26.651,31.887,26.833,32.047,26.833,32.246z M27.339,34.091c0,0.199-0.184,0.359-0.407,0.359c-0.227,0-0.408-0.162-0.408-0.359
			c0-0.198,0.181-0.36,0.408-0.36C27.156,33.731,27.339,33.893,27.339,34.091z M28.435,28.841c0.017,0.068,0.008,0.188,0.008,0.311
			c0,0.11,0.019,0.251-0.025,0.292c-0.063,0.059-0.369,0.031-0.468,0.043c-0.345,0.041-0.639,0.146-0.678,0.505
			c-0.033,0.312,0.07,0.615,0.132,0.855c0.133,0.503,0.3,1.042,0.442,1.535c0.076,0.258,0.125,0.53,0.218,0.771
			c0.029,0.078,0.16,0.219,0.259,0.254c0.088,0.027,0.208,0.004,0.292,0.031c0.023,0.084-0.072,0.115-0.107,0.159
			c-0.037,0.049-0.08,0.115-0.109,0.168c-0.119,0.217-0.025,0.481,0.041,0.713c0.195,0.681,0.403,1.425,0.594,2.063
			c0.051-0.021,0.061-0.088,0.076-0.133c0.602-1.779,1.126-3.338,1.58-4.665c-0.329-0.908-0.372-2.136-1.448-2.267
			c-0.068-0.008-0.164-0.004-0.201-0.041c-0.086-0.086-0.018-0.493-0.016-0.612c0.091-0.058,0.212-0.032,0.317-0.032h4.467
			c0.17,0,0.576-0.045,0.66,0.024c0.055,0.045,0.033,0.184,0.033,0.32c0,0.138,0.02,0.284-0.033,0.319
			c-0.072,0.047-0.313,0.025-0.4,0.033c-0.393,0.033-0.771,0.104-0.945,0.36c-0.154,0.227-0.029,0.673,0.043,0.922l0.477,1.66
			c0.078,0.277,0.115,0.487,0.436,0.521c0.05,0.006,0.226-0.021,0.241,0.041c0.012,0.047-0.064,0.084-0.107,0.119
			c-0.142,0.108-0.237,0.28-0.208,0.535c0.012,0.119,0.068,0.244,0.1,0.369c0.212,0.832,0.482,1.715,0.711,2.523
			c0.066-0.045,0.072-0.152,0.1-0.236c0.516-1.563,1.058-3.13,1.582-4.714c0.111-0.341,0.247-0.66,0.292-1.033
			c0.098-0.828-0.464-1.022-1.204-1.081c-0.066-0.004-0.242,0.012-0.295-0.033c-0.049-0.043-0.033-0.172-0.033-0.302
			c0-0.127-0.018-0.262,0.018-0.311c0.051-0.073,0.33-0.04,0.479-0.04h3.086c0.123,0,0.422-0.041,0.477,0.032
			c0.044,0.061,0.032,0.548-0.008,0.604c-0.055,0.07-0.303,0.053-0.41,0.076c-0.922,0.185-1.122,1.134-1.404,1.962
			c-0.811,2.364-1.639,4.78-2.478,7.164c-0.12,0.341-0.249,0.703-0.376,1.065c-0.043,0.121-0.109,0.279-0.102,0.379
			c0.008,0.097,0.111,0.132,0.094,0.243c-0.082,0.098-0.248,0.066-0.394,0.066h-0.92c-0.149,0-0.312,0.029-0.409-0.051
			c-0.035-0.117,0.096-0.146,0.109-0.235c0.01-0.068-0.039-0.195-0.066-0.293c-0.386-1.358-0.793-2.788-1.164-4.127
			c-0.093-0.084-0.2-0.182-0.34-0.219c-0.072-0.02-0.181,0.02-0.244-0.041c0.029-0.095,0.136-0.128,0.201-0.192
			c0.08-0.082,0.166-0.203,0.142-0.376c-0.018-0.129-0.07-0.271-0.109-0.411c-0.107-0.375-0.236-0.843-0.353-1.193
			c-0.054,0.037-0.066,0.131-0.091,0.203c-0.713,2.048-1.384,4.139-2.116,6.209c-0.045,0.126-0.143,0.329-0.133,0.437
			c0.006,0.091,0.117,0.101,0.107,0.2c-0.01,0.123-0.22,0.094-0.409,0.094H27.44c-0.117,0-0.384,0.025-0.409-0.074
			c-0.033-0.129,0.146-0.139,0.167-0.228c0.014-0.061-0.037-0.205-0.066-0.32c-0.312-1.138-0.643-2.334-0.953-3.465
			c-0.117-0.423-0.216-0.838-0.353-1.249c-0.02-0.061-0.105-0.129-0.164-0.183c-0.105-0.098-0.175-0.131-0.364-0.137
			c-0.074-0.002-0.158,0.039-0.185-0.025c0.041-0.102,0.171-0.123,0.259-0.191c0.072-0.056,0.175-0.165,0.193-0.251
			c0.021-0.109-0.033-0.267-0.066-0.386c-0.236-0.846-0.444-1.609-0.678-2.452c-0.232-0.836-0.384-1.695-1.229-1.896
			c-0.129-0.031-0.308-0.041-0.343-0.102c-0.052-0.09-0.031-0.493,0.016-0.563c0.088-0.128,0.495-0.075,0.752-0.075h4.149
			C28.259,28.79,28.362,28.774,28.435,28.841z"/>
		<path d="M39.737,29.12c-0.037,0.012-0.057,0.053-0.045,0.09c0.039,0.116,0.01,0.666-0.07,0.695
			c-0.896-0.018-1.279,0.563-1.344,0.768c-0.033,0.104-3.265,9.465-3.297,9.561l-0.01,0.029l0.014,0.029
			c0.081,0.15,0.169,0.403,0.097,0.468c-0.103,0.092-0.368,0.125-0.462,0.113L33.2,40.86c-0.039,0-0.07,0.031-0.07,0.07
			c0,0.041,0.031,0.069,0.07,0.069l1.412,0.014c0.031,0.004,0.394,0.002,0.563-0.149c0.054-0.049,0.073-0.119,0.073-0.193
			c0-0.163-0.087-0.345-0.128-0.419c0.19-0.552,3.259-9.443,3.288-9.537c0.045-0.146,0.383-0.684,1.209-0.67
			c0.035,0,0.086-0.012,0.129-0.07c0.129-0.18,0.107-0.722,0.078-0.813C39.813,29.128,39.772,29.109,39.737,29.12z M49.166,29.463
			c-0.021,0-0.039,0.012-0.053,0.027s-0.018,0.037-0.016,0.057c0.016,0.1,0.218,2.656,0.249,3.459
			c0.004,0.113-0.01,0.265-0.045,0.31c-0.051,0.049-0.426,0.045-0.787,0.041c-0.039,0-0.07,0.031-0.07,0.068
			c0,0.039,0.031,0.07,0.068,0.072c0.587,0.004,0.828,0.004,0.902-0.102c0.08-0.109,0.07-0.368,0.07-0.397L49.35,30.95
			C49.239,29.463,49.239,29.463,49.166,29.463z M44.549,29.782c-1.293,0.09-2.619,1.353-2.47,4.629
			c0.002,0.039,0.033,0.067,0.074,0.065c0.039-0.002,0.067-0.034,0.065-0.073c-0.144-3.175,1.115-4.398,2.34-4.482
			c0.826-0.057,1.35,0.286,1.408,0.325c0.033,0.021,0.076,0.014,0.098-0.018c0.023-0.031,0.014-0.074-0.018-0.098
			C45.983,30.091,45.422,29.722,44.549,29.782z M42.516,35.091c-0.351,0.215-0.386,0.401-0.38,0.748
			c0.01,0.788,0.401,2.613,1.112,3.3c0.027,0.027,0.072,0.025,0.098-0.002c0.027-0.029,0.027-0.072-0.002-0.1
			c-0.633-0.614-1.059-2.308-1.07-3.202c-0.004-0.321,0.021-0.446,0.316-0.627c0.033-0.02,0.043-0.063,0.023-0.096
			C42.592,35.083,42.549,35.072,42.516,35.091z M50.92,35.077c-0.038,0.002-0.067,0.035-0.065,0.074
			c0,0.006,0.027,0.554-0.006,0.729c-0.02,0.104-0.1,0.141-0.282,0.139l-0.053-0.002c-0.203-0.006-0.677-0.016-0.92,0.104
			c-0.25,0.12-0.303,0.261-0.348,0.374l-0.016,0.043c-0.049,0.116-0.047,0.707-0.037,1.744c0.008,0.932,0.021,2.34-0.069,2.473
			c-0.109,0.068-0.374,0.104-0.729-0.045c-0.035-0.014-0.076,0.004-0.092,0.039c-0.013,0.035,0.002,0.076,0.037,0.092
			c0.404,0.169,0.712,0.125,0.865,0.025c0.127-0.08,0.143-0.714,0.125-2.584c-0.006-0.747-0.014-1.591,0.025-1.688l0.02-0.047
			c0.037-0.1,0.076-0.201,0.277-0.299c0.214-0.104,0.68-0.093,0.855-0.091l0.055,0.002c0.102,0.002,0.367,0.004,0.418-0.252
			c0.037-0.19,0.008-0.738,0.008-0.762C50.993,35.105,50.959,35.075,50.92,35.077z M44,36.011c-0.004,0.039,0.025,0.072,0.064,0.074
			l0.152,0.014c0.401,0.029,1.008,0.074,1.195,0.288c0.027,0.031,0.069,0.033,0.097,0.008c0.031-0.025,0.031-0.068,0.008-0.1
			c-0.226-0.259-0.84-0.306-1.29-0.339l-0.15-0.012C44.038,35.945,44.004,35.974,44,36.011z M40.584,39.717
			c-0.029,0.023-0.035,0.068-0.01,0.098c0.893,1.113,4.58,2.073,6.58,0.526c0.031-0.023,0.037-0.068,0.014-0.1
			s-0.068-0.035-0.098-0.012c-1.945,1.505-5.521,0.575-6.387-0.501C40.659,39.698,40.616,39.694,40.584,39.717z M37.791,35.282
			c-0.01,0.037,0.014,0.073,0.05,0.083c0.189,0.043,0.277,0.246,0.32,0.344l0.018,0.039c0.016,0.034,0.055,0.048,0.09,0.032
			s0.051-0.06,0.035-0.095l-0.016-0.031c-0.047-0.109-0.158-0.364-0.418-0.425C37.833,35.22,37.796,35.245,37.791,35.282z
			 M35.293,29.911c0,0.039,0.031,0.07,0.07,0.07c0.23,0,0.779,0.031,0.965,0.317c0.02,0.031,0.063,0.041,0.098,0.021
			c0.031-0.021,0.041-0.064,0.021-0.098c-0.213-0.333-0.768-0.382-1.082-0.382C35.325,29.841,35.293,29.872,35.293,29.911z
			 M34.719,33.175l-0.074,0.094c-0.104,0.125-0.191,0.232-0.146,0.462c0.031,0.164,0.404,1.442,0.426,1.519
			c0.01,0.035,0.049,0.057,0.087,0.047c0.037-0.014,0.059-0.051,0.047-0.088c-0.187-0.616-0.399-1.378-0.421-1.503
			c-0.031-0.165,0.018-0.226,0.117-0.347l0.078-0.102c0.025-0.029,0.018-0.072-0.012-0.096
			C34.788,33.139,34.745,33.147,34.719,33.175z M34.737,29.835c-0.121,0-0.838,0.043-1.039,0.271
			c-0.092,0.105-0.176,0.289-0.061,0.583c0.021,0.059,0.35,1.146,0.579,1.955c0.01,0.039,0.049,0.059,0.086,0.049
			c0.035-0.012,0.058-0.049,0.048-0.086c-0.097-0.341-0.559-1.908-0.582-1.967c-0.072-0.185-0.061-0.333,0.033-0.44
			c0.148-0.167,0.785-0.222,0.918-0.222C34.848,29.978,34.866,29.837,34.737,29.835z M31.071,35.87c0,0.039,0.031,0.07,0.07,0.07
			c0.152,0,0.31,0.111,0.335,0.16c0.018,0.033,0.06,0.047,0.093,0.029s0.047-0.061,0.029-0.094
			c-0.051-0.096-0.253-0.234-0.458-0.234C31.102,35.8,31.071,35.831,31.071,35.87z M31.069,34.744
			c-2.052,5.904-1.933,5.638-1.931,5.659l0.07,0.198l0.012,0.025c0.008,0.023,0.02,0.092-0.006,0.139
			c-0.018,0.029-0.047,0.047-0.094,0.059l-1.727-0.004c-0.039,0-0.07,0.031-0.07,0.07s0.031,0.07,0.07,0.07h1.742
			c0.121-0.025,0.174-0.086,0.197-0.129c0.063-0.109,0.023-0.238,0.02-0.252l-0.016-0.036l-0.058-0.158
			c0.029-0.121,1.231-3.609,1.923-5.599c0.014-0.035-0.008-0.074-0.045-0.088C31.122,34.688,31.081,34.707,31.069,34.744z
			 M25.09,35.05c-0.039,0.002-0.068,0.033-0.066,0.072c0,0.039,0.033,0.068,0.072,0.066c0.119-0.004,0.386,0.109,0.474,0.247
			c0.02,0.031,0.062,0.041,0.095,0.021s0.043-0.063,0.021-0.096C25.57,35.171,25.248,35.042,25.09,35.05z M29.019,33.61
			c-0.088,0.088-0.285,0.322-0.216,0.591l0.314,1.096c-0.012-0.039,0.044,0.046,0.082,0.036c0.037-0.011,0.043-0.112,0.053-0.075
			l-0.314-1.092c-0.051-0.2,0.109-0.386,0.18-0.458c0.027-0.027,0.027-0.072,0-0.1C29.091,33.581,29.046,33.581,29.019,33.61z
			 M29.003,29.921c-0.004,0.039,0.021,0.074,0.063,0.078c0.175,0.021,0.483,0.106,0.604,0.308c0.021,0.033,0.063,0.043,0.095,0.021
			c0.033-0.02,0.043-0.063,0.023-0.096c-0.16-0.265-0.54-0.354-0.709-0.374C29.042,29.855,29.009,29.882,29.003,29.921z
			 M28.661,29.806l-0.186,0.021c-0.286,0.025-0.425-0.012-0.536,0.078c-0.175,0.141-0.23,0.372-0.173,0.552l0.072,0.257
			c0.686,2.431,0.702,2.447,0.719,2.469c0.023,0.027,0.059,0.031,0.09,0.014c0.029-0.02,0.041-0.058,0.025-0.089
			c-0.039-0.094-0.536-1.854-0.7-2.433l-0.074-0.263c-0.043-0.131,0-0.299,0.126-0.399c0.088-0.07,0.281-0.031,0.462-0.049
			l0.201-0.023C28.828,29.915,28.766,29.784,28.661,29.806z M23.368,29.892c-0.037,0.002-0.066,0.037-0.064,0.074
			c0.002,0.039,0.037,0.066,0.074,0.064c0.189-0.014,0.526,0.183,0.645,0.319c0.025,0.029,0.068,0.033,0.097,0.008
			s0.031-0.07,0.006-0.1C23.991,30.1,23.615,29.872,23.368,29.892z M22.456,28.917c-0.037,0.006-0.064,0.041-0.059,0.08l0.633,4.062
			c-0.004-0.004-0.027,0.147-0.171,0.14l-0.922-0.006c-0.039,0-0.07,0.031-0.07,0.07s0.031,0.068,0.07,0.07l0.918,0.004
			c0.218,0.014,0.3-0.18,0.314-0.282l-0.633-4.079C22.53,28.937,22.493,28.911,22.456,28.917z M18.963,30.058
			c-0.082,0.01-0.162,0.027-0.212,0.079l-0.033,0.119c-0.004,0.004,0.023,0.049,0.033,4.046c0,0.039,0.031,0.068,0.068,0.068
			c0.039,0,0.07-0.031,0.07-0.068c-0.004-1.366-0.042-3.929-0.035-4.021l0.004-0.057c0.008-0.008,0.051-0.021,0.121-0.029
			c0.109-0.014,1.058,0.104,1.212,0.336c0.021,0.032,0.063,0.04,0.096,0.019c0.031-0.021,0.041-0.062,0.02-0.095
			C20.092,30.127,19.02,30.052,18.963,30.058z M19.23,35.058c-0.187,0.027-0.55,0.199-0.577,0.63l0.037,3.361
			c0,0.039,0.031,0.068,0.07,0.068c0.039-0.002,0.07-0.031,0.07-0.07l-0.037-3.355c0.025-0.421,0.44-0.491,0.458-0.495
			c0.039-0.006,0.064-0.041,0.058-0.08C19.302,35.077,19.268,35.052,19.23,35.058z M20.474,40.234v0.407
			c0,0.008-0.006,0.156-0.134,0.211H13.99c-0.037,0-0.068,0.031-0.068,0.07s0.031,0.07,0.068,0.07h6.38
			c0.239-0.092,0.241-0.342,0.241-0.352v-0.407c0-0.039-0.031-0.07-0.07-0.07C20.505,40.165,20.474,40.197,20.474,40.234z
			 M14.625,35.177c-0.006,0.039,0.021,0.074,0.059,0.078c0.162,0.023,0.386,0.296,0.411,0.345c0.018,0.033,0.059,0.049,0.091,0.031
			c0.033-0.016,0.051-0.055,0.035-0.088c-0.025-0.059-0.289-0.394-0.518-0.427C14.667,35.113,14.631,35.14,14.625,35.177z
			 M14.197,30.188c-0.396,0.137-0.801,0.305-1.068,0.616c-0.548,0.643-0.62,1.654-0.659,2.198c-0.008,0.133-0.018,0.269-0.031,0.296
			c-0.012,0.016-0.096,0.029-0.173,0.021h-0.939c-0.039,0-0.07,0.031-0.07,0.068c0,0.041,0.031,0.07,0.07,0.07h0.932
			c0.051,0.006,0.242,0.016,0.302-0.094c0.025-0.049,0.033-0.139,0.049-0.353c0.037-0.528,0.107-1.511,0.625-2.118
			c0.246-0.289,0.627-0.446,1.006-0.575c0.327-0.111,0.627-0.182,0.838-0.15c0.037,0.006,0.072-0.021,0.08-0.059
			c0.003-0.036-0.021-0.071-0.059-0.079C14.846,29.993,14.51,30.079,14.197,30.188z"/>
		<path d="M32.922,16.246c-0.146-0.09-0.433-0.07-0.615-0.074c0.648,0.23,1.502,0.513,2.24,0.79c0.07-0.143-0.243-0.33-0.261-0.509
			c0.208,0.031,0.46,0.403,0.407,0.666c-0.865-0.243-1.771-0.592-2.645-0.855c-0.339-0.462-0.277-1.063-0.487-1.572
			c-0.014-0.203-0.111-0.495-0.187-0.805c-0.061-0.248-0.218-0.638-0.125-0.807c0.158-0.285,0.631-0.205,0.971-0.213
			c0.337-0.014,0.74,0.012,1.085,0.014c0.714,0.053,1.384,0.043,2.122,0.156c4.439,0.31,9.302,1.611,14.401,3.698
			c4.089,1.672,7.444,3.95,10.028,6.32c-0.035,0.108-0.035,0.206-0.049,0.308c-0.457,0.405-0.943,0.74-1.428,1.081
			c-0.477,0.344-0.914,0.78-1.429,1.021c-2.304-1.077-4.348-1.49-6.3-1.668c0.277-0.563,0.838-0.869,1.34-1.031
			c-1.346-0.454-2.531-0.497-3.874-0.941c0.722-0.555,1.729-0.378,2.619-0.504c0.39,0.049,0.747,0.012,1.157,0.112
			c-2.726-1.576-5.92-2.917-9.354-3.79c-3.338-0.85-6.556-1.261-9.57-1.433c0.1,0.129,0.415-0.014,0.435,0.201
			c-0.006,0.078-0.731-0.045-0.509-0.174C32.905,16.239,32.913,16.242,32.922,16.246z M57.493,21.249
			c-2.168-1.579-4.582-3.062-7.546-4.289C44.022,14.508,39,13.302,33.866,13.113c-0.709-0.04-1.444-0.147-2.094-0.032
			c0.008,0.5,0.186,0.944,0.279,1.416c0.029,0.24,0.105,0.46,0.146,0.696c0.084,0.226,0.055,0.493,0.208,0.695
			c3.95,0.244,8.037,0.867,12.513,2.245c4.65,1.431,9.267,4.028,12.007,6.779c0.644-0.496,1.306-1.019,1.935-1.508
			c0.203-0.158,0.48-0.294,0.591-0.54C58.963,22.268,58.079,21.811,57.493,21.249z M55.056,23.516
			c-0.715-0.548-1.515-1.086-2.351-1.562c-1.539-0.354-3.008-0.532-4.264-0.161c1.437,0.437,2.844,0.504,4.27,1.093
			c-0.633,0.102-1.213,0.333-1.717,0.768c1.842,0.207,3.951,0.681,5.833,1.604C56.465,24.575,55.756,24.051,55.056,23.516z"/>
		<path d="M27.938,16.276c0.212,0.121-0.485,0.244-0.491,0.17c0.021-0.205,0.324-0.07,0.421-0.193
			c-2.9,0.191-5.996,0.608-9.216,1.442c-3.311,0.857-6.392,2.153-9.028,3.672c0.394-0.1,0.739-0.066,1.113-0.117
			c0.854,0.111,1.824-0.066,2.514,0.454c-1.294,0.435-2.436,0.483-3.736,0.926c0.483,0.147,1.02,0.433,1.283,0.962
			c-1.881,0.186-3.849,0.593-6.075,1.636c-0.495-0.223-0.912-0.634-1.366-0.953c-0.462-0.317-0.926-0.632-1.362-1.01
			c-0.012-0.098-0.012-0.187-0.045-0.29c2.506-2.265,5.755-4.449,9.701-6.07c4.924-2.021,9.611-3.298,13.883-3.631
			c0.709-0.113,1.353-0.109,2.042-0.168c0.33-0.004,0.717-0.032,1.043-0.022c0.327,0.004,0.783-0.076,0.934,0.192
			c0.087,0.16-0.068,0.53-0.129,0.764c-0.076,0.295-0.171,0.573-0.187,0.765c-0.207,0.48-0.152,1.052-0.483,1.49
			c-0.842,0.258-1.715,0.597-2.551,0.834c-0.049-0.247,0.197-0.602,0.397-0.633c-0.02,0.171-0.324,0.351-0.255,0.485
			c0.711-0.27,1.536-0.544,2.161-0.769c-0.177,0.006-0.45-0.01-0.592,0.076C27.92,16.283,27.928,16.28,27.938,16.276z M2.342,22.79
			c0.104,0.23,0.369,0.356,0.562,0.505c0.602,0.458,1.233,0.945,1.845,1.409c2.664-2.627,7.127-5.125,11.611-6.522
			c4.316-1.343,8.253-1.971,12.053-2.237c0.148-0.193,0.121-0.444,0.205-0.659c0.041-0.222,0.117-0.433,0.146-0.66
			c0.094-0.448,0.269-0.867,0.281-1.343c-0.624-0.104-1.331,0.004-2.013,0.051c-4.94,0.226-9.781,1.411-15.5,3.784
			c-2.861,1.188-5.195,2.613-7.294,4.126C3.669,21.78,2.814,22.222,2.342,22.79z M4.841,25.031c1.818-0.891,3.853-1.358,5.624-1.568
			c-0.479-0.407-1.035-0.622-1.645-0.714c1.377-0.568,2.73-0.648,4.116-1.073c-1.205-0.337-2.619-0.158-4.103,0.192
			c-0.811,0.456-1.584,0.973-2.276,1.499C5.881,23.88,5.195,24.383,4.841,25.031z"/>
		<path stroke="#000000" stroke-width="0.1" stroke-miterlimit="10" d="M29.278,14.257c-0.016,0.006-0.021,0.021-0.016,0.037
			c0.006,0.014,0.023,0.021,0.037,0.016c0.974-0.388,2.185-0.072,2.196-0.068c0.013,0.004,0.031-0.006,0.035-0.021
			s-0.004-0.031-0.02-0.035C31.498,14.183,30.27,13.864,29.278,14.257z"/>
		<path stroke="#000000" stroke-width="0.1" stroke-miterlimit="10" d="M28.729,16.203c-0.014,0.004-0.023,0.02-0.018,0.035
			c0.004,0.014,0.02,0.023,0.035,0.018c2.011-0.623,3.491,0.027,3.504,0.033c0.016,0.006,0.031,0,0.039-0.014
			c0.006-0.014,0-0.029-0.014-0.037C32.258,16.233,30.761,15.573,28.729,16.203z"/>
		<path d="M58.514,22.198c-0.021,0.147-0.381,0.354-0.555,0.464c-0.183,0.216-0.42,0.284-0.602,0.5
			c-0.219,0.123-0.417,0.301-0.615,0.466c-0.213,0.072-0.418,0.438-0.622,0.344C56.919,23.393,57.683,22.71,58.514,22.198z"/>
		<path d="M58.772,22.377c0.045,0.012,0.033,0.043,0.066,0.061c-0.398,0.321-0.809,0.62-1.207,0.941
			c-0.213,0.143-0.4,0.341-0.616,0.466c-0.213,0.121-0.356,0.417-0.62,0.403C57.172,23.591,57.975,22.993,58.772,22.377z"/>
		<path d="M59.008,22.606C59,22.767,58.623,22.9,58.481,23.081c-0.622,0.452-1.221,0.962-1.852,1.396
			c0.043-0.21,0.306-0.333,0.502-0.486c0.195-0.15,0.412-0.303,0.581-0.452c0.399-0.283,0.786-0.606,1.185-0.893
			c0.023-0.014,0.047-0.027,0.061-0.063C58.975,22.59,58.991,22.598,59.008,22.606z"/>
		<path d="M59.192,22.749c0.016,0.023,0.029,0.045,0.066,0.061c-0.82,0.595-1.596,1.298-2.433,1.85
			c-0.008-0.188,0.372-0.298,0.503-0.489c0.215-0.115,0.394-0.317,0.605-0.44c0.383-0.333,0.784-0.615,1.172-0.93
			C59.129,22.771,59.168,22.781,59.192,22.749z"/>
		<path d="M52.37,22.011c0.11,0.092,0.029,0.433,0.018,0.638C52.313,22.459,52.417,22.208,52.37,22.011z"/>
		<path d="M52.143,21.966c0.105,0.08,0.008,0.413,0.004,0.601C52.059,22.397,52.186,22.152,52.143,21.966z"/>
		<path d="M32.854,13.157c0.045,0.012,0.033,0.043,0.066,0.061c0.102,0.448,0.227,0.889,0.313,1.343
			c0.052,0.225,0.12,0.44,0.155,0.671c0.029,0.204,0.188,0.47,0.104,0.646C33.227,15.005,32.987,14.011,32.854,13.157z"/>
		<path d="M53.938,22.851c0.066,0.394,0.008,0.826-0.018,1.251C53.875,23.702,53.93,23.268,53.938,22.851z"/>
		<path d="M51.662,21.865c0.1,0.063,0.057,0.354,0.037,0.526C51.652,22.228,51.693,22.034,51.662,21.865z"/>
		<path d="M54.12,22.993c0.116,0.368,0.027,0.807,0.104,1.187c-0.153-0.088-0.108-0.366-0.114-0.562
			C54.104,23.401,54.131,23.178,54.12,22.993z"/>
		<path d="M54.287,23.103c0.188,0.327,0.072,0.762,0.092,1.149C54.251,23.902,54.3,23.49,54.287,23.103z"/>
		<path d="M32.527,13.128c0.28,0.891,0.46,1.816,0.628,2.746c-0.252-0.415-0.209-0.938-0.389-1.378
			c-0.021-0.241-0.096-0.466-0.146-0.695C32.616,13.578,32.455,13.308,32.527,13.128z"/>
		<path d="M51.424,21.845c0.092,0.045,0.045,0.316,0.033,0.466C51.393,22.175,51.459,21.991,51.424,21.845z"/>
		<path d="M54.467,23.244c0.064,0.02,0.035,0.072,0.117,0.084c-0.023,0.339,0.029,0.653,0.008,0.994
			c-0.202-0.104-0.029-0.335-0.123-0.476c0.035-0.186-0.02-0.339-0.012-0.515C54.454,23.305,54.452,23.278,54.467,23.244z"/>
		<path d="M51.184,21.825c0.121,0.006,0.014,0.271,0.043,0.379C51.094,22.202,51.252,21.919,51.184,21.825z"/>
		<path d="M54.649,23.389c0.018,0.008,0.035,0.016,0.051,0.023c0.084,0.282,0.064,0.711,0.059,0.955
			C54.569,24.094,54.698,23.71,54.649,23.389z"/>
		<path d="M32.252,13.12c0.257,0.85,0.48,1.822,0.609,2.648c-0.203-0.392-0.219-0.85-0.347-1.269
			c-0.105-0.427-0.173-0.865-0.31-1.282C32.241,13.154,32.186,13.15,32.252,13.12z"/>
		<path d="M54.817,23.496c0.269,0.237,0.135,0.615,0.156,0.94C54.713,24.196,54.899,23.8,54.817,23.496z"/>
		<path d="M55.125,23.636c0.059,0.264,0.078,0.54,0.053,0.832c-0.241-0.163-0.049-0.537-0.147-0.758
			C55.042,23.636,55.101,23.685,55.125,23.636z"/>
		<path d="M55.232,23.745c0.052-0.057,0.062,0.07,0.153,0.07c-0.008,0.251,0.004,0.495-0.004,0.748
			C55.142,24.358,55.323,24.002,55.232,23.745z"/>
		<path d="M32,13.124c0.266,0.855,0.483,1.836,0.599,2.674C32.331,14.945,32.118,13.962,32,13.124z"/>
		<path d="M55.461,23.911c0.02,0.008,0.035,0.016,0.053,0.023c0.152,0.194,0.035,0.485,0.107,0.709
			c-0.027,0.053-0.115-0.039-0.164-0.045C55.491,24.36,55.448,24.147,55.461,23.911z"/>
		<path d="M50.693,21.748c0.057,0.104,0.035,0.235,0.018,0.368C50.647,22.015,50.689,21.874,50.693,21.748z"/>
		<path d="M55.67,24.067c0.074,0.051,0.123,0.109,0.172,0.168c-0.033,0.178-0.006,0.333,0.023,0.491
			c-0.049,0.021-0.109,0.006-0.178-0.021C55.684,24.491,55.667,24.283,55.67,24.067z"/>
		<path d="M55.918,24.27c0.238,0.282,0.551,0.54,0.801,0.818c-0.264-0.059-0.465-0.158-0.79-0.304
			C55.941,24.609,55.907,24.448,55.918,24.27z"/>
		<path d="M50.163,21.686c0.07,0.086,0.018,0.214,0.004,0.331C50.1,21.929,50.157,21.799,50.163,21.686z"/>
		<path d="M49.688,21.707c0.045,0.068,0.049,0.149,0.012,0.245C49.69,21.872,49.647,21.805,49.688,21.707z"/>
		<path d="M49.475,21.699c0.059,0.063,0.021,0.157,0.012,0.243C49.442,21.876,49.44,21.795,49.475,21.699z"/>
		<path d="M49.25,21.715c0.043,0.047,0.045,0.108,0.008,0.185C49.217,21.853,49.213,21.791,49.25,21.715z"/>
		<path d="M52.297,23.116c0.057,0.169,0.055,0.459,0.002,0.6C52.272,23.526,52.282,23.321,52.297,23.116z"/>
		<path d="M52.096,23.143c0.012,0.176,0.043,0.346,0,0.54C52.081,23.508,52.032,23.348,52.096,23.143z"/>
		<path d="M51.642,23.324c0.033,0.092,0.012,0.203,0.016,0.306C51.553,23.562,51.628,23.434,51.642,23.324z"/>
		<path d="M34.13,16.381c0.041,0.102,0.123,0.28,0.055,0.354C34.1,16.65,34.024,16.469,34.13,16.381z"/>
		<path d="M33.954,16.362c0.088,0.072,0.133,0.247,0.076,0.306C33.944,16.593,33.899,16.418,33.954,16.362z"/>
		<path d="M33.778,16.34c0.129,0.059,0.135,0.247,0.076,0.306C33.756,16.569,33.768,16.453,33.778,16.34z"/>
		<path d="M33.637,16.305c0.107,0.072,0.066,0.197,0.078,0.306C33.586,16.545,33.625,16.422,33.637,16.305z"/>
		<path d="M34.33,16.622c0.046,0.053,0.081,0.174-0.002,0.209C34.279,16.779,34.246,16.659,34.33,16.622z"/>
		<path d="M33.487,16.297c0.059,0.055,0.072,0.127,0.059,0.207C33.445,16.465,33.4,16.336,33.487,16.297z"/>
		<path d="M53.28,22.459c0.116,0.051,0.021,0.199,0.016,0.306c-0.02,0.307-0.059,0.741-0.053,1.057
			c-0.025,0.014-0.051,0.031-0.021,0.049C53.133,23.52,53.299,22.902,53.28,22.459z"/>
		<path d="M53.549,22.614c0.021,0.442-0.024,0.906-0.073,1.374C53.455,23.545,53.5,23.081,53.549,22.614z"/>
		<path d="M51.915,21.921c0.123,0.055-0.031,0.386,0.037,0.526C51.842,22.389,51.936,22.081,51.915,21.921z"/>
		<path d="M53.743,22.732c0.039,0.401-0.045,0.846-0.018,1.252c-0.109,0-0.049-0.184-0.049-0.232
			C53.68,23.446,53.704,23.05,53.743,22.732z"/>
		<path d="M50.967,21.756c0.029,0.12,0.002,0.263-0.031,0.405C50.919,22.036,50.934,21.9,50.967,21.756z"/>
		<path d="M50.43,21.717c0.09,0.072-0.01,0.21,0.014,0.306C50.409,22.013,50.395,21.82,50.43,21.717z"/>
		<path d="M49.914,21.692c0.063,0.074,0.006,0.19,0.025,0.28C49.851,21.906,49.921,21.785,49.914,21.692z"/>
		<path d="M51.848,23.209c0.063,0.115,0.012,0.362-0.018,0.442C51.793,23.56,51.833,23.375,51.848,23.209z"/>
		<path d="M3.247,22.15c0.02,0.14,0.362,0.331,0.528,0.435c0.173,0.202,0.403,0.265,0.575,0.47c0.21,0.114,0.397,0.278,0.588,0.435
			c0.203,0.064,0.396,0.409,0.597,0.319C4.769,23.266,4.04,22.627,3.247,22.15z"/>
		<path d="M2.997,22.321c-0.043,0.012-0.033,0.041-0.064,0.057c0.382,0.301,0.771,0.579,1.153,0.881
			c0.203,0.131,0.38,0.319,0.589,0.435c0.203,0.113,0.339,0.392,0.592,0.378C4.523,23.457,3.757,22.898,2.997,22.321z"/>
		<path d="M2.767,22.539c0.008,0.153,0.371,0.274,0.505,0.446c0.594,0.421,1.166,0.9,1.768,1.306
			C5,24.092,4.749,23.978,4.558,23.833c-0.183-0.141-0.392-0.282-0.553-0.423c-0.382-0.266-0.75-0.567-1.132-0.834
			c-0.021-0.014-0.043-0.027-0.057-0.059C2.8,22.524,2.785,22.531,2.767,22.539z"/>
		<path d="M2.59,22.678c-0.014,0.021-0.029,0.042-0.063,0.056c0.782,0.556,1.522,1.215,2.321,1.727
			c0.008-0.177-0.355-0.278-0.479-0.456c-0.205-0.106-0.376-0.298-0.579-0.411c-0.365-0.312-0.749-0.574-1.119-0.869
			C2.65,22.697,2.613,22.708,2.59,22.678z"/>
		<path d="M9.157,21.917c-0.107,0.088-0.031,0.409-0.021,0.603C9.208,22.34,9.112,22.107,9.157,21.917z"/>
		<path d="M9.375,21.872c-0.102,0.078-0.012,0.39-0.008,0.567C9.452,22.28,9.333,22.048,9.375,21.872z"/>
		<path d="M28.006,13.365c-0.043,0.012-0.033,0.041-0.063,0.057c-0.102,0.427-0.226,0.844-0.314,1.272
			c-0.053,0.212-0.121,0.419-0.156,0.637c-0.029,0.195-0.185,0.446-0.105,0.614C27.631,15.116,27.871,14.173,28.006,13.365z"/>
		<path d="M7.643,22.726c-0.066,0.373-0.018,0.784,0.006,1.184C7.696,23.531,7.647,23.121,7.643,22.726z"/>
		<path d="M9.839,21.774c-0.096,0.06-0.059,0.335-0.041,0.498C9.847,22.116,9.808,21.933,9.839,21.774z"/>
		<path d="M7.468,22.863c-0.117,0.349-0.033,0.764-0.113,1.125c0.148-0.084,0.107-0.348,0.115-0.532
			C7.478,23.248,7.454,23.038,7.468,22.863z"/>
		<path d="M7.304,22.966c-0.186,0.312-0.074,0.723-0.098,1.089C7.331,23.724,7.289,23.334,7.304,22.966z"/>
		<path d="M28.319,13.333c-0.279,0.844-0.46,1.723-0.629,2.604c0.248-0.396,0.21-0.889,0.388-1.308
			c0.021-0.23,0.094-0.44,0.146-0.659C28.232,13.762,28.388,13.503,28.319,13.333z"/>
		<path d="M10.069,21.752c-0.088,0.043-0.047,0.3-0.037,0.44C10.097,22.062,10.034,21.89,10.069,21.752z"/>
		<path d="M7.128,23.105c-0.062,0.017-0.035,0.065-0.113,0.079c0.018,0.322-0.037,0.618-0.018,0.939
			c0.197-0.098,0.031-0.317,0.123-0.452c-0.031-0.173,0.021-0.321,0.014-0.487C7.14,23.16,7.144,23.135,7.128,23.105z"/>
		<path d="M10.299,21.731c-0.117,0.008-0.018,0.257-0.045,0.358C10.381,22.087,10.231,21.82,10.299,21.731z"/>
		<path d="M6.951,23.24c-0.018,0.008-0.031,0.014-0.049,0.021c-0.082,0.27-0.066,0.675-0.062,0.904
			C7.023,23.909,6.904,23.547,6.951,23.24z"/>
		<path d="M28.584,13.323c-0.255,0.807-0.479,1.729-0.612,2.512c0.199-0.374,0.218-0.807,0.345-1.202
			c0.105-0.405,0.177-0.82,0.31-1.216C28.596,13.355,28.647,13.351,28.584,13.323z"/>
		<path d="M6.792,23.344c-0.259,0.228-0.135,0.585-0.16,0.893C6.885,24.006,6.709,23.632,6.792,23.344z"/>
		<path d="M6.493,23.481c-0.056,0.249-0.08,0.512-0.056,0.789c0.233-0.158,0.052-0.511,0.15-0.717
			C6.573,23.479,6.515,23.528,6.493,23.481z"/>
		<path d="M6.392,23.583c-0.053-0.052-0.063,0.068-0.148,0.068c0.006,0.238-0.008,0.47-0.004,0.708
			C6.468,24.162,6.298,23.829,6.392,23.583z"/>
		<path d="M28.826,13.325c-0.261,0.813-0.481,1.742-0.6,2.535C28.493,15.052,28.707,14.12,28.826,13.325z"/>
		<path d="M6.166,23.743c-0.018,0.008-0.033,0.016-0.049,0.021c-0.148,0.188-0.041,0.46-0.111,0.672
			c0.027,0.049,0.109-0.038,0.158-0.044C6.135,24.166,6.18,23.966,6.166,23.743z"/>
		<path d="M10.773,21.655c-0.055,0.1-0.037,0.224-0.02,0.347C10.813,21.904,10.775,21.774,10.773,21.655z"/>
		<path d="M5.965,23.894c-0.074,0.049-0.119,0.103-0.166,0.159c0.029,0.168,0.004,0.316-0.025,0.464
			c0.045,0.02,0.105,0.004,0.17-0.021C5.948,24.295,5.965,24.096,5.965,23.894z"/>
		<path d="M5.726,24.088c-0.234,0.27-0.536,0.515-0.778,0.781c0.253-0.056,0.448-0.153,0.762-0.294
			C5.698,24.408,5.735,24.254,5.726,24.088z"/>
		<path d="M11.281,21.59c-0.068,0.082-0.02,0.203-0.006,0.313C11.34,21.82,11.285,21.696,11.281,21.59z"/>
		<path d="M11.737,21.606c-0.043,0.064-0.047,0.143-0.014,0.231C11.735,21.762,11.778,21.698,11.737,21.606z"/>
		<path d="M11.942,21.596c-0.057,0.059-0.021,0.15-0.014,0.231C11.973,21.764,11.977,21.686,11.942,21.596z"/>
		<path d="M12.158,21.61c-0.043,0.045-0.045,0.104-0.01,0.174C12.191,21.739,12.193,21.68,12.158,21.61z"/>
		<path d="M9.218,22.962c-0.057,0.161-0.057,0.438-0.008,0.569C9.239,23.35,9.231,23.156,9.218,22.962z"/>
		<path d="M9.411,22.988c-0.012,0.167-0.045,0.327-0.006,0.511C9.422,23.332,9.469,23.178,9.411,22.988z"/>
		<path d="M9.845,23.153c-0.031,0.088-0.014,0.191-0.018,0.289C9.931,23.379,9.857,23.256,9.845,23.153z"/>
		<path d="M26.749,16.426c-0.041,0.098-0.121,0.267-0.054,0.335C26.776,16.679,26.852,16.508,26.749,16.426z"/>
		<path d="M26.918,16.405c-0.084,0.07-0.131,0.235-0.076,0.288C26.926,16.624,26.973,16.459,26.918,16.405z"/>
		<path d="M27.088,16.383c-0.123,0.057-0.133,0.233-0.076,0.288C27.107,16.599,27.096,16.49,27.088,16.383z"/>
		<path d="M27.222,16.35c-0.103,0.07-0.066,0.188-0.076,0.288C27.271,16.576,27.234,16.459,27.222,16.35z"/>
		<path d="M26.556,16.657c-0.045,0.051-0.08,0.164,0,0.199C26.603,16.804,26.636,16.689,26.556,16.657z"/>
		<path d="M27.369,16.34c-0.059,0.053-0.07,0.119-0.059,0.195C27.407,16.498,27.452,16.377,27.369,16.34z"/>
		<path d="M8.278,22.35c-0.113,0.049-0.023,0.189-0.016,0.291c0.016,0.288,0.047,0.699,0.041,0.997
			c0.023,0.014,0.049,0.029,0.021,0.047C8.409,23.352,8.257,22.769,8.278,22.35z"/>
		<path d="M8.017,22.498c-0.025,0.417,0.018,0.859,0.059,1.3C8.101,23.379,8.062,22.939,8.017,22.498z"/>
		<path d="M9.596,21.827c-0.119,0.053,0.027,0.363-0.041,0.499C9.662,22.27,9.574,21.978,9.596,21.827z"/>
		<path d="M7.83,22.614c-0.041,0.38,0.037,0.799,0.006,1.183c0.104-0.002,0.049-0.172,0.049-0.221
			C7.885,23.287,7.863,22.913,7.83,22.614z"/>
		<path d="M10.506,21.664c-0.029,0.115-0.004,0.247,0.027,0.382C10.553,21.929,10.537,21.799,10.506,21.664z"/>
		<path d="M11.026,21.621c-0.087,0.07,0.008,0.198-0.016,0.29C11.045,21.902,11.057,21.717,11.026,21.621z"/>
		<path d="M11.521,21.592c-0.061,0.072-0.008,0.182-0.027,0.267C11.58,21.797,11.513,21.68,11.521,21.592z"/>
		<path d="M9.646,23.048c-0.061,0.106-0.014,0.343,0.012,0.417C9.699,23.377,9.66,23.203,9.646,23.048z"/>
		<path d="M12.866,48.584c0.07-0.609-0.033-0.885-0.251-1.01c-0.255-0.146-0.639-0.004-1.125,0.846
			c-0.382,0.669-0.304,1.012-0.068,1.146c0.265,0.152,0.477-0.004,0.651-0.308c0.146-0.256,0.201-0.478,0.097-0.679l0.667,0.38
			c-0.078,0.033-0.16,0.119-0.224,0.229l-0.688,1.204c-0.016-0.15-0.052-0.209-0.115-0.243c-0.107-0.059-0.33,0.006-0.674-0.191
			c-0.59-0.337-0.425-1.134-0.055-1.781c0.413-0.723,1.074-1.421,1.764-1.025c0.25,0.143,0.275,0.283,0.399,0.355
			c0.068,0.04,0.145,0.035,0.234,0.008L12.866,48.584z"/>
		<path d="M13.727,48.273c0.096-0.191,0.132-0.36,0.066-0.54c0.082,0.066,0.154,0.107,0.274,0.166
			c0.098,0.049,0.483,0.206,0.646,0.286c0.577,0.284,0.534,0.762,0.37,1.096c-0.179,0.362-0.407,0.533-0.713,0.5
			c0.13,0.201,0.189,0.367-0.089,1.041c-0.107,0.257-0.15,0.448-0.094,0.644l-0.405-0.199c-0.129-0.064-0.098-0.191,0.105-0.674
			c0.22-0.53,0.195-0.687-0.152-0.856l-0.175-0.085l-0.369,0.75c-0.103,0.208-0.107,0.39-0.048,0.55l-0.729-0.358
			c0.16-0.068,0.242-0.135,0.347-0.348L13.727,48.273z M13.76,49.241l0.128,0.063c0.371,0.184,0.593,0.166,0.747-0.144
			c0.138-0.279,0.084-0.464-0.214-0.614c-0.197-0.096-0.296-0.045-0.343,0.049L13.76,49.241z"/>
		<path d="M14.317,51.529c0.187-0.124,0.413-0.411,0.563-0.613l1.304-1.699c0.041-0.057,0.083-0.123,0.105-0.174
			c0.014-0.035,0.021-0.07,0.008-0.102l0.589,0.244c-0.025,0.014-0.041,0.033-0.053,0.063c-0.018,0.042-0.053,0.196-0.072,0.325
			l-0.325,1.989c-0.039,0.25-0.084,0.61-0.043,0.83l-0.696-0.29c0.102-0.08,0.173-0.189,0.222-0.306
			c0.031-0.076,0.066-0.189,0.066-0.258l-0.799-0.333c-0.056,0.055-0.117,0.145-0.162,0.25c-0.053,0.126-0.066,0.267-0.037,0.353
			L14.317,51.529z M16.063,51.078l0.24-1.373l-0.006-0.004l-0.824,1.13L16.063,51.078z"/>
		<path d="M17.669,49.978c0.055-0.16,0.041-0.337-0.027-0.476l0.774,0.263c-0.018,0.033-0.037,0.066-0.051,0.104
			c-0.016,0.047-0.025,0.117-0.021,0.195l0.027,1.888l0.006,0.004l0.429-1.253c0.128-0.38,0.148-0.564,0.023-0.795l0.801,0.274
			c-0.138,0.066-0.257,0.199-0.312,0.361l-0.805,2.35c-0.035,0.104-0.043,0.172-0.025,0.227l-0.571-0.195
			c0.018-0.018,0.031-0.037,0.043-0.072c0.012-0.033,0.01-0.116,0.01-0.198l-0.031-2.106l-0.008-0.004l-0.483,1.416
			c-0.128,0.379-0.15,0.563-0.023,0.794l-0.801-0.273c0.138-0.068,0.257-0.2,0.312-0.36L17.669,49.978z"/>
		<path d="M19.868,50.755c0.057-0.206,0.059-0.38-0.041-0.544c0.094,0.049,0.216,0.086,0.38,0.129
			c0.21,0.059,0.403,0.08,0.573,0.127c0.674,0.181,0.904,0.846,0.667,1.736c-0.259,0.967-0.713,1.564-1.569,1.337
			c-0.173-0.047-0.362-0.127-0.544-0.174c-0.164-0.043-0.248-0.049-0.333-0.061c0.125-0.076,0.251-0.247,0.317-0.499L19.868,50.755z
			 M19.819,52.7c-0.066,0.251-0.023,0.347,0.199,0.407c0.47,0.126,0.778-0.24,0.975-0.971c0.179-0.672,0.109-1.112-0.32-1.228
			c-0.259-0.07-0.368-0.023-0.427,0.196L19.819,52.7z"/>
		<path d="M21.688,52.781c0.14,0.544,0.313,0.821,0.633,0.885c0.288,0.057,0.456-0.12,0.5-0.349
			c0.045-0.214-0.014-0.366-0.187-0.519l-0.411-0.351c-0.23-0.2-0.319-0.505-0.259-0.805c0.105-0.517,0.517-0.803,0.979-0.711
			c0.226,0.045,0.288,0.128,0.433,0.155c0.091,0.02,0.154,0.012,0.257-0.049l-0.212,1.053c-0.072-0.38-0.287-0.627-0.542-0.68
			c-0.205-0.041-0.386,0.033-0.433,0.271c-0.033,0.166,0.023,0.288,0.236,0.456l0.296,0.231c0.255,0.199,0.401,0.499,0.308,0.971
			c-0.117,0.581-0.536,0.904-1.021,0.805c-0.234-0.047-0.435-0.198-0.552-0.222c-0.072-0.014-0.16,0.02-0.271,0.088L21.688,52.781z"
			/>
		<path d="M25.963,51.405c0.208,0.023,0.358,0.151,0.468,0.163c0.083,0.008,0.146-0.025,0.218-0.086l-0.148,1.298
			c-0.001,0.004-0.001,0.01-0.003,0.01c-0.004-0.002-0.002-0.006-0.006-0.012c-0.129-0.545-0.292-0.834-0.54-0.863
			c-0.261-0.03-0.559,0.174-0.665,1.092c-0.09,0.777,0.148,1.049,0.45,1.083c0.304,0.033,0.565-0.188,0.766-0.518l0.01,0.006
			c-0.087,0.723-0.396,1.149-0.949,1.085c-0.438-0.051-0.869-0.483-0.727-1.723C24.959,51.845,25.437,51.344,25.963,51.405z"/>
		<path d="M27.105,52.078c0.014-0.212-0.02-0.384-0.148-0.524c0.1,0.029,0.183,0.039,0.316,0.047
			c0.109,0.006,0.528,0.004,0.706,0.014c0.643,0.037,0.789,0.491,0.768,0.865c-0.023,0.403-0.167,0.651-0.462,0.74
			c0.199,0.135,0.32,0.264,0.324,0.994c0,0.279,0.035,0.472,0.162,0.63l-0.452-0.027c-0.142-0.008-0.164-0.139-0.164-0.661
			c-0.004-0.572-0.088-0.705-0.474-0.729l-0.195-0.012l-0.049,0.836c-0.014,0.232,0.053,0.399,0.169,0.524l-0.811-0.047
			c0.119-0.127,0.171-0.218,0.185-0.456L27.105,52.078z M27.511,52.961l0.144,0.008c0.411,0.023,0.612-0.078,0.631-0.425
			c0.018-0.308-0.103-0.462-0.437-0.481c-0.22-0.014-0.292,0.074-0.298,0.18L27.511,52.961z"/>
		<path d="M29.249,52.145c0-0.17-0.07-0.333-0.179-0.44l0.777-0.002c-0.105,0.156-0.144,0.245-0.144,0.433l0.002,1.713
			c0,0.438,0.132,0.589,0.409,0.589c0.236,0,0.452-0.15,0.452-0.589v-1.715c0-0.186-0.039-0.276-0.144-0.431H31.2
			c-0.109,0.109-0.179,0.272-0.179,0.44v1.456c0,0.873-0.244,1.319-0.934,1.321c-0.497,0-0.838-0.314-0.838-0.943V52.145z"/>
		<path d="M31.56,53.676c0.272,0.491,0.511,0.716,0.836,0.696c0.292-0.014,0.411-0.232,0.399-0.464
			c-0.012-0.219-0.107-0.351-0.313-0.452l-0.485-0.236c-0.274-0.136-0.437-0.409-0.454-0.713c-0.031-0.528,0.298-0.91,0.767-0.936
			c0.229-0.012,0.309,0.051,0.457,0.043c0.094-0.006,0.154-0.027,0.236-0.113l0.059,1.072c-0.166-0.351-0.438-0.536-0.695-0.522
			c-0.209,0.012-0.365,0.129-0.352,0.37c0.01,0.168,0.096,0.273,0.346,0.382l0.344,0.15c0.299,0.129,0.518,0.382,0.542,0.863
			c0.033,0.589-0.292,1.01-0.785,1.037c-0.237,0.014-0.472-0.084-0.591-0.076c-0.072,0.004-0.149,0.057-0.239,0.154L31.56,53.676z"
			/>
		<path d="M34.706,51.932c-0.027-0.212-0.09-0.374-0.242-0.486c0.104,0.01,0.188,0.004,0.32-0.014
			c0.107-0.014,0.518-0.094,0.695-0.119c0.435-0.057,0.783,0.22,0.861,0.82c0.047,0.358,0.014,0.814-0.57,1.023
			c-0.383,0.136-0.42,0.2-0.389,0.444l0.051,0.403c0.029,0.229,0.127,0.382,0.266,0.483l-0.807,0.103
			c0.096-0.146,0.126-0.245,0.098-0.481L34.706,51.932z M35.293,52.938l0.008-0.002c0.031-0.082,0.104-0.141,0.289-0.224
			c0.26-0.117,0.345-0.307,0.312-0.569c-0.023-0.191-0.149-0.435-0.442-0.397c-0.191,0.025-0.302,0.129-0.265,0.415L35.293,52.938z"
			/>
		<path d="M36.684,51.665c-0.037-0.212-0.107-0.37-0.268-0.476c0.105,0.004,0.188-0.006,0.319-0.029
			c0.107-0.02,0.513-0.119,0.69-0.149c0.633-0.111,0.881,0.296,0.947,0.664c0.07,0.397-0.014,0.672-0.279,0.824
			c0.227,0.086,0.371,0.186,0.542,0.893c0.066,0.269,0.144,0.45,0.306,0.575l-0.444,0.078c-0.14,0.025-0.19-0.096-0.315-0.604
			c-0.139-0.56-0.25-0.668-0.629-0.601l-0.193,0.033l0.146,0.824c0.041,0.229,0.146,0.377,0.284,0.472l-0.8,0.143
			c0.086-0.15,0.115-0.253,0.074-0.483L36.684,51.665z M37.282,52.425l0.141-0.025c0.407-0.071,0.576-0.216,0.516-0.559
			c-0.055-0.305-0.206-0.425-0.533-0.367c-0.219,0.039-0.27,0.139-0.25,0.244L37.282,52.425z"/>
		<path d="M38.834,51.221c-0.037-0.164-0.142-0.308-0.271-0.392l1.546-0.351c0.1-0.021,0.147-0.057,0.208-0.119l0.233,1.031
			c-0.278-0.348-0.514-0.431-0.898-0.342c-0.271,0.061-0.348,0.176-0.292,0.425l0.1,0.435c0.072-0.006,0.159-0.021,0.239-0.04
			c0.252-0.057,0.43-0.139,0.5-0.398l0.222,0.98c-0.174-0.198-0.366-0.196-0.622-0.138c-0.078,0.018-0.166,0.04-0.231,0.065
			l0.132,0.589c0.057,0.251,0.162,0.327,0.494,0.251c0.393-0.089,0.596-0.321,0.668-0.828l0.269,1.184
			c-0.079-0.051-0.165-0.064-0.343-0.023l-1.523,0.345c0.08-0.131,0.112-0.306,0.078-0.47L38.834,51.221z"/>
		<path d="M41.228,52.258c0.37,0.423,0.649,0.592,0.963,0.507c0.284-0.078,0.353-0.314,0.292-0.536
			c-0.057-0.213-0.178-0.32-0.399-0.376l-0.526-0.131c-0.298-0.074-0.514-0.306-0.594-0.601c-0.141-0.509,0.1-0.951,0.553-1.075
			c0.225-0.061,0.316-0.016,0.458-0.055c0.092-0.025,0.143-0.059,0.207-0.162l0.282,1.037c-0.236-0.308-0.537-0.433-0.789-0.364
			c-0.203,0.055-0.33,0.202-0.266,0.437c0.043,0.161,0.15,0.245,0.418,0.3l0.368,0.074c0.319,0.064,0.585,0.265,0.711,0.73
			c0.156,0.571-0.071,1.049-0.55,1.179c-0.229,0.063-0.479,0.018-0.592,0.049c-0.07,0.02-0.135,0.09-0.203,0.201L41.228,52.258z"/>
		<path d="M43.432,50.326c-0.059-0.183-0.127-0.261-0.279-0.212c-0.239,0.073-0.31,0.423-0.249,0.857l-0.006,0.002l-0.384-1.205
			c0.053,0.018,0.129,0.031,0.197,0.01l1.422-0.452c0.07-0.023,0.123-0.077,0.156-0.122l0.384,1.206l-0.008,0.002
			c-0.202-0.39-0.458-0.634-0.7-0.556c-0.149,0.049-0.161,0.152-0.103,0.333l0.595,1.875c0.053,0.16,0.169,0.294,0.304,0.366
			l-0.776,0.246c0.072-0.137,0.088-0.314,0.037-0.476L43.432,50.326z"/>
		<path d="M44.899,49.524c-0.057-0.158-0.177-0.288-0.315-0.356l0.767-0.271c-0.066,0.139-0.078,0.318-0.021,0.476l0.758,2.134
			c0.057,0.16,0.176,0.291,0.315,0.357l-0.766,0.271c0.065-0.139,0.075-0.315,0.021-0.474L44.899,49.524z"/>
		<path d="M47.739,49.222c-0.431-0.437-0.709-0.528-0.943-0.435c-0.272,0.106-0.403,0.495-0.043,1.404
			c0.281,0.716,0.597,0.869,0.848,0.771c0.285-0.111,0.297-0.376,0.168-0.702c-0.109-0.274-0.248-0.456-0.47-0.501l0.716-0.28
			c-0.023,0.084-0.008,0.199,0.039,0.315l0.508,1.292c-0.127-0.083-0.197-0.089-0.263-0.063c-0.113,0.044-0.201,0.263-0.571,0.405
			c-0.633,0.249-1.15-0.379-1.422-1.072c-0.307-0.775-0.436-1.725,0.303-2.017c0.27-0.105,0.395-0.037,0.527-0.09
			c0.073-0.029,0.118-0.09,0.151-0.178L47.739,49.222z"/>
		<path d="M48.065,48.302c-0.068-0.154-0.199-0.275-0.344-0.331l1.446-0.644c0.093-0.041,0.136-0.084,0.183-0.156l0.43,0.965
			c-0.342-0.288-0.588-0.321-0.949-0.161c-0.252,0.112-0.307,0.241-0.203,0.473l0.182,0.407c0.066-0.019,0.151-0.054,0.226-0.085
			c0.237-0.105,0.394-0.219,0.413-0.487l0.409,0.918c-0.21-0.16-0.399-0.121-0.638-0.016c-0.073,0.033-0.155,0.076-0.216,0.11
			l0.245,0.554c0.105,0.236,0.223,0.289,0.533,0.152c0.367-0.164,0.521-0.431,0.492-0.943l0.493,1.11
			c-0.087-0.034-0.175-0.03-0.341,0.041l-1.429,0.636c0.055-0.145,0.053-0.321-0.018-0.476L48.065,48.302z"/>
		<polygon points="39.376,14.105 38.948,14.234 38.956,14.318 39.408,14.251 		"/>
		<path d="M34.193,13.982c0.01-0.085-0.018-0.173-0.068-0.235l0.503,0.055c-0.012,0.01-0.021,0.031-0.023,0.049
			c-0.002,0.023-0.002,0.061,0,0.094l0.133,1.044h0.004l0.351-0.994c0.012-0.031,0.018-0.067,0.021-0.091
			c0.002-0.018-0.002-0.039-0.012-0.053l0.513,0.055c-0.063,0.049-0.105,0.128-0.117,0.214l-0.123,1.153
			c-0.01,0.086,0.018,0.174,0.066,0.234l-0.397-0.043c0.051-0.047,0.109-0.133,0.125-0.292l0.116-1.082H35.28l-0.432,1.214
			c-0.008,0.018-0.012,0.035-0.016,0.059c-0.002,0.023-0.004,0.053,0.006,0.08l-0.307-0.033c0.016-0.025,0.02-0.055,0.023-0.078
			c0.002-0.025,0-0.041-0.004-0.062l-0.148-1.234h-0.002l-0.11,1.041c-0.018,0.16,0.021,0.257,0.06,0.313l-0.396-0.043
			c0.061-0.051,0.107-0.128,0.115-0.214L34.193,13.982z"/>
		<path d="M35.931,14.175c0.012-0.086-0.016-0.174-0.064-0.235l0.417,0.05c-0.063,0.049-0.109,0.127-0.119,0.213l-0.14,1.151
			c-0.01,0.086,0.016,0.174,0.066,0.236l-0.419-0.051c0.063-0.049,0.111-0.127,0.121-0.213L35.931,14.175z"/>
		<path d="M36.635,14.263c0.012-0.086-0.014-0.174-0.063-0.238l0.416,0.057c-0.062,0.047-0.108,0.125-0.12,0.211l-0.129,0.963
			c-0.017,0.134,0.014,0.185,0.086,0.194c0.169,0.029,0.292-0.125,0.39-0.335l-0.09,0.662c-0.029-0.041-0.068-0.061-0.161-0.073
			l-0.604-0.08c0.063-0.049,0.109-0.127,0.121-0.213L36.635,14.263z"/>
		<path d="M37.642,14.401c0.014-0.085-0.01-0.173-0.056-0.237L38,14.226c-0.063,0.047-0.111,0.125-0.125,0.21l-0.144,0.959
			c-0.021,0.135,0.01,0.186,0.082,0.197c0.169,0.033,0.294-0.121,0.396-0.329l-0.102,0.66c-0.027-0.041-0.066-0.061-0.16-0.076
			l-0.604-0.09c0.064-0.047,0.113-0.124,0.125-0.21L37.642,14.401z"/>
		<path d="M38.628,14.551c0.016-0.086-0.006-0.173-0.055-0.239l0.807,0.138c0.053,0.01,0.082,0.002,0.123-0.014l-0.092,0.532
			c-0.063-0.218-0.161-0.304-0.362-0.339c-0.141-0.023-0.201,0.016-0.225,0.145l-0.039,0.226c0.035,0.01,0.08,0.021,0.121,0.027
			c0.133,0.021,0.232,0.018,0.318-0.09l-0.086,0.507c-0.045-0.127-0.139-0.166-0.27-0.187c-0.041-0.008-0.088-0.012-0.125-0.014
			l-0.052,0.306c-0.023,0.131,0.012,0.185,0.185,0.216c0.205,0.035,0.35-0.035,0.481-0.261l-0.104,0.614
			c-0.027-0.041-0.066-0.063-0.16-0.08l-0.797-0.137c0.066-0.045,0.115-0.123,0.131-0.206L38.628,14.551z"/>
		<path d="M39.604,15.528c0.076,0.278,0.166,0.419,0.332,0.452c0.15,0.029,0.236-0.063,0.26-0.18c0.021-0.108-0.01-0.187-0.1-0.265
			l-0.215-0.18c-0.121-0.103-0.168-0.257-0.139-0.411c0.051-0.265,0.264-0.413,0.501-0.366c0.119,0.021,0.15,0.064,0.226,0.08
			c0.049,0.01,0.078,0.006,0.133-0.025l-0.105,0.54c-0.041-0.195-0.151-0.322-0.281-0.347c-0.107-0.021-0.199,0.017-0.225,0.14
			c-0.016,0.084,0.014,0.146,0.125,0.232l0.153,0.118c0.133,0.102,0.21,0.256,0.164,0.497c-0.057,0.299-0.272,0.464-0.522,0.415
			c-0.121-0.023-0.229-0.099-0.287-0.11c-0.037-0.008-0.083,0.01-0.14,0.046L39.604,15.528z"/>
		<path d="M40.971,14.991c0.018-0.086,0-0.173-0.045-0.239l0.41,0.087c-0.065,0.043-0.118,0.117-0.138,0.201l-0.239,1.134
			c-0.018,0.086,0,0.174,0.043,0.24l-0.412-0.088c0.066-0.043,0.119-0.117,0.137-0.202L40.971,14.991z"/>
		<path d="M41.649,15.136c0.02-0.084,0.004-0.174-0.037-0.242l0.491,0.119c-0.014,0.008-0.025,0.027-0.029,0.045
			c-0.006,0.023-0.012,0.061-0.012,0.094l-0.004,1.052l0.004,0.002l0.476-0.938c0.016-0.029,0.027-0.066,0.033-0.088
			c0.004-0.018,0.002-0.041-0.006-0.055l0.499,0.121c-0.068,0.04-0.123,0.114-0.143,0.196l-0.272,1.129
			c-0.02,0.083-0.004,0.173,0.037,0.241l-0.389-0.094c0.055-0.039,0.125-0.119,0.164-0.274l0.256-1.059h-0.004l-0.585,1.148
			c-0.01,0.018-0.018,0.031-0.023,0.056c-0.006,0.023-0.012,0.053-0.004,0.08l-0.3-0.072c0.02-0.021,0.027-0.05,0.033-0.073
			c0.006-0.025,0.008-0.041,0.006-0.061l0.012-1.243h-0.004l-0.246,1.017c-0.037,0.156-0.012,0.258,0.02,0.32l-0.39-0.094
			c0.068-0.041,0.122-0.113,0.142-0.199L41.649,15.136z"/>
		<path d="M43.352,15.559c0.023-0.084,0.01-0.174-0.029-0.244l0.789,0.219c0.051,0.014,0.082,0.01,0.125-0.002l-0.145,0.521
			c-0.043-0.227-0.129-0.32-0.327-0.374c-0.138-0.037-0.2-0.004-0.235,0.12l-0.063,0.221c0.033,0.014,0.08,0.029,0.119,0.041
			c0.13,0.037,0.229,0.041,0.325-0.057l-0.139,0.495c-0.031-0.133-0.118-0.178-0.249-0.215c-0.039-0.012-0.086-0.021-0.123-0.027
			l-0.082,0.299c-0.035,0.128-0.006,0.187,0.162,0.233c0.201,0.057,0.349,0,0.506-0.209l-0.165,0.599
			c-0.023-0.043-0.061-0.07-0.149-0.096l-0.78-0.216c0.068-0.039,0.125-0.109,0.15-0.193L43.352,15.559z"/>
		<path d="M44.227,16.63c0.045,0.285,0.121,0.435,0.281,0.483c0.146,0.045,0.241-0.037,0.276-0.151
			c0.032-0.107,0.01-0.188-0.07-0.273l-0.194-0.2c-0.109-0.115-0.139-0.275-0.094-0.423c0.08-0.26,0.306-0.384,0.537-0.313
			c0.115,0.035,0.143,0.08,0.217,0.104c0.047,0.014,0.078,0.014,0.135-0.012l-0.162,0.526c-0.018-0.199-0.117-0.335-0.246-0.376
			c-0.104-0.031-0.2-0.002-0.235,0.115c-0.027,0.081-0.002,0.147,0.098,0.245l0.142,0.135c0.121,0.114,0.182,0.274,0.109,0.511
			c-0.09,0.29-0.321,0.433-0.564,0.358c-0.117-0.035-0.213-0.125-0.271-0.143c-0.037-0.012-0.086,0-0.146,0.031L44.227,16.63z"/>
		<path d="M46.208,16.453c0.037-0.102,0.045-0.191,0-0.279c0.047,0.027,0.109,0.053,0.19,0.082c0.107,0.039,0.204,0.059,0.288,0.09
			c0.342,0.121,0.434,0.472,0.273,0.916c-0.174,0.481-0.431,0.768-0.863,0.614c-0.088-0.031-0.182-0.08-0.275-0.113
			c-0.082-0.029-0.125-0.035-0.167-0.045c0.065-0.033,0.138-0.115,0.183-0.24L46.208,16.453z M46.104,17.446
			c-0.045,0.124-0.025,0.175,0.088,0.216c0.237,0.086,0.408-0.088,0.539-0.452c0.121-0.335,0.102-0.565-0.113-0.641
			c-0.132-0.047-0.188-0.027-0.228,0.081L46.104,17.446z"/>
		<path d="M47.469,16.781c0.008-0.025,0.014-0.045,0.02-0.061c0.025-0.063,0.057-0.078,0.113-0.057s0.07,0.055,0.047,0.117
			c-0.008,0.018-0.016,0.035-0.027,0.061l-0.125,0.255c-0.016,0.029-0.035,0.045-0.071,0.031c-0.037-0.014-0.041-0.037-0.033-0.072
			L47.469,16.781z"/>
		<path d="M47.954,17.076c0.033-0.079,0.031-0.171,0-0.243l0.758,0.31c0.049,0.02,0.08,0.02,0.123,0.014l-0.205,0.499
			c-0.016-0.228-0.092-0.331-0.281-0.409c-0.132-0.055-0.198-0.029-0.247,0.092l-0.085,0.212c0.031,0.018,0.073,0.037,0.112,0.055
			c0.125,0.051,0.222,0.068,0.329-0.02l-0.194,0.476c-0.016-0.135-0.098-0.19-0.222-0.241c-0.039-0.016-0.084-0.031-0.119-0.041
			l-0.119,0.286c-0.051,0.123-0.029,0.186,0.133,0.252c0.194,0.079,0.349,0.04,0.527-0.15l-0.235,0.577
			c-0.018-0.045-0.051-0.076-0.139-0.111l-0.748-0.307c0.072-0.03,0.138-0.093,0.171-0.173L47.954,17.076z"/>
		<path d="M48.346,18.738c0.098-0.031,0.252-0.139,0.396-0.271l0.386-0.345l0.002-0.495c0-0.15-0.021-0.274-0.051-0.329l0.396,0.177
			c-0.041,0.006-0.059,0.027-0.078,0.07c-0.012,0.025-0.023,0.064-0.023,0.115c-0.002,0.088,0.006,0.304,0,0.341l0.229-0.202
			c0.045-0.039,0.074-0.074,0.09-0.107c0.023-0.051,0.023-0.088,0.006-0.119l0.387,0.174c-0.118,0.037-0.309,0.187-0.445,0.308
			l-0.244,0.223l-0.004,0.568c0,0.084,0.016,0.24,0.063,0.384l-0.394-0.177c0.035-0.012,0.064-0.051,0.08-0.086
			c0.014-0.031,0.023-0.107,0.023-0.182c0-0.144-0.016-0.292-0.008-0.397l-0.302,0.273c-0.041,0.035-0.072,0.082-0.09,0.118
			c-0.018,0.043-0.021,0.092-0.006,0.137L48.346,18.738z"/>
		<path d="M50.701,18.008c0.098,0.049,0.15,0.135,0.199,0.16c0.038,0.02,0.075,0.014,0.12-0.004l-0.292,0.602
			c0,0.002-0.002,0.004-0.004,0.004c0,0,0-0.002,0-0.006c0.031-0.286,0-0.453-0.116-0.51c-0.121-0.059-0.301-0.012-0.51,0.413
			c-0.175,0.358-0.104,0.531,0.035,0.6c0.143,0.068,0.307,0.006,0.463-0.118l0.004,0.004c-0.166,0.335-0.389,0.486-0.647,0.36
			c-0.204-0.1-0.341-0.384-0.063-0.957C50.137,18.047,50.454,17.887,50.701,18.008z"/>
		<path d="M51.256,18.575c0.039-0.076,0.047-0.168,0.021-0.242l0.727,0.383c0.047,0.025,0.076,0.027,0.121,0.025l-0.252,0.477
			c0.006-0.228-0.059-0.337-0.239-0.435c-0.126-0.065-0.194-0.048-0.255,0.066l-0.107,0.203c0.031,0.021,0.07,0.045,0.107,0.064
			c0.117,0.063,0.214,0.089,0.329,0.014l-0.239,0.456c-0.002-0.137-0.08-0.199-0.199-0.262c-0.037-0.02-0.08-0.039-0.113-0.053
			l-0.145,0.275c-0.063,0.116-0.047,0.181,0.109,0.263c0.184,0.098,0.342,0.074,0.54-0.098l-0.29,0.55
			c-0.014-0.047-0.043-0.08-0.127-0.125l-0.715-0.376c0.076-0.023,0.146-0.08,0.187-0.155L51.256,18.575z"/>
		<path d="M52.346,19.186c0.055-0.096,0.078-0.182,0.051-0.273c0.038,0.035,0.075,0.061,0.134,0.094
			c0.049,0.027,0.243,0.123,0.323,0.168c0.197,0.11,0.256,0.333,0.104,0.602c-0.094,0.162-0.246,0.337-0.553,0.24
			c-0.199-0.063-0.234-0.049-0.299,0.06l-0.102,0.18c-0.059,0.104-0.066,0.197-0.041,0.28l-0.366-0.208
			c0.084-0.029,0.129-0.061,0.189-0.166L52.346,19.186z M52.278,19.78l0.004,0.002c0.039-0.023,0.086-0.027,0.188-0.002
			c0.143,0.033,0.235-0.018,0.304-0.137c0.049-0.083,0.072-0.224-0.061-0.3c-0.087-0.049-0.163-0.043-0.237,0.088L52.278,19.78z"/>
		<path d="M53.59,20.067c0.051-0.084,0.059-0.137-0.01-0.18c-0.11-0.068-0.271,0.02-0.418,0.187l-0.004-0.002l0.341-0.551
			c0.012,0.027,0.031,0.061,0.062,0.08l0.657,0.405c0.031,0.021,0.07,0.023,0.1,0.021l-0.341,0.551l-0.004-0.002
			c0.084-0.208,0.092-0.39-0.02-0.458c-0.068-0.043-0.113-0.012-0.164,0.07l-0.527,0.857c-0.045,0.074-0.059,0.164-0.041,0.24
			l-0.357-0.221c0.078-0.018,0.152-0.07,0.197-0.144L53.59,20.067z"/>
		<path d="M54.458,20.431c0.047-0.072,0.063-0.164,0.047-0.24l0.352,0.23c-0.076,0.018-0.154,0.066-0.201,0.138L54.02,21.53
			c-0.047,0.072-0.063,0.162-0.047,0.24l-0.352-0.23c0.078-0.016,0.154-0.066,0.201-0.139L54.458,20.431z"/>
		<path d="M55.45,21.807c-0.3,0.433-0.592,0.611-0.887,0.407c-0.294-0.205-0.228-0.542,0.072-0.975
			c0.377-0.544,0.662-0.563,0.887-0.407C55.749,20.988,55.829,21.263,55.45,21.807z M55.257,21.672
			c0.253-0.362,0.259-0.544,0.124-0.638c-0.134-0.094-0.3-0.025-0.553,0.34c-0.229,0.329-0.271,0.535-0.125,0.637
			S55.03,22.001,55.257,21.672z"/>
		<path d="M56.126,21.578c0.05-0.068,0.071-0.158,0.062-0.235l0.338,0.253c-0.016,0.012-0.029,0.025-0.041,0.043
			c-0.016,0.02-0.031,0.053-0.041,0.09l-0.283,0.926l0.002,0.002l0.408-0.54c0.123-0.164,0.162-0.252,0.137-0.384l0.35,0.265
			c-0.077,0.01-0.157,0.055-0.208,0.125l-0.766,1.015c-0.033,0.045-0.049,0.078-0.049,0.107l-0.249-0.187
			c0.012-0.006,0.021-0.014,0.033-0.029c0.01-0.014,0.023-0.055,0.035-0.096L56.17,21.9l-0.002-0.002l-0.461,0.612
			c-0.123,0.164-0.162,0.251-0.139,0.384l-0.349-0.263c0.077-0.012,0.157-0.057,0.208-0.125L56.126,21.578z"/>
		<path d="M5.537,21.312c-0.045-0.074-0.121-0.125-0.201-0.143l0.462-0.28c-0.004,0.018,0,0.039,0.01,0.054
			c0.012,0.02,0.035,0.049,0.059,0.074l0.754,0.741l0.004-0.002l-0.31-1.012c-0.012-0.031-0.025-0.066-0.039-0.086
			c-0.01-0.016-0.027-0.029-0.045-0.033l0.472-0.286c-0.023,0.078-0.012,0.171,0.033,0.243l0.602,0.992
			c0.045,0.074,0.121,0.125,0.203,0.143l-0.366,0.222c0.016-0.068,0.012-0.175-0.072-0.313l-0.565-0.93l-0.002,0.002l0.376,1.237
			c0.004,0.02,0.01,0.035,0.023,0.057c0.014,0.02,0.029,0.045,0.055,0.059l-0.283,0.172c-0.002-0.029-0.016-0.057-0.027-0.076
			c-0.014-0.021-0.025-0.035-0.039-0.047l-0.885-0.881L5.753,21.22l0.542,0.895c0.084,0.138,0.177,0.188,0.244,0.208l-0.366,0.223
			c0.021-0.08,0.014-0.172-0.033-0.244L5.537,21.312z"/>
		<polygon points="7.633,19.404 7.374,19.772 7.435,19.834 7.75,19.501 		"/>
		<path d="M7.292,20.253c-0.043-0.074-0.119-0.129-0.199-0.146l0.76-0.438c0.049-0.027,0.07-0.054,0.094-0.093l0.271,0.468
			c-0.199-0.125-0.331-0.125-0.522-0.014c-0.133,0.075-0.156,0.146-0.092,0.259l0.115,0.199c0.035-0.016,0.08-0.039,0.119-0.061
			c0.125-0.072,0.205-0.143,0.205-0.283L8.3,20.59c-0.119-0.068-0.22-0.033-0.345,0.037c-0.039,0.023-0.08,0.051-0.111,0.074
			l0.154,0.269c0.066,0.115,0.133,0.133,0.294,0.039c0.195-0.11,0.267-0.261,0.232-0.523l0.31,0.539
			c-0.048-0.012-0.095-0.004-0.183,0.047L7.9,21.504c0.025-0.08,0.016-0.171-0.027-0.245L7.292,20.253z"/>
		<path d="M8.637,19.49c-0.041-0.076-0.115-0.131-0.195-0.15l0.396-0.216c-0.025,0.077-0.019,0.169,0.021,0.245l0.466,0.854
			c0.066,0.119,0.123,0.141,0.191,0.104c0.164-0.082,0.18-0.284,0.137-0.513L9.972,20.4c-0.048-0.014-0.095-0.006-0.185,0.043
			l-0.575,0.313c0.027-0.078,0.021-0.17-0.021-0.246L8.637,19.49z"/>
		<path d="M10.208,20.212c0.02-0.117-0.014-0.302-0.043-0.429l-0.212-1.081c-0.006-0.035-0.018-0.076-0.031-0.1
			c-0.008-0.018-0.02-0.031-0.037-0.037l0.313-0.16c-0.004,0.014-0.002,0.025,0.006,0.041c0.01,0.021,0.061,0.084,0.105,0.135
			l0.686,0.777c0.087,0.098,0.216,0.232,0.319,0.286l-0.37,0.191c0.004-0.068-0.014-0.133-0.045-0.191
			c-0.018-0.036-0.051-0.089-0.08-0.11l-0.427,0.218c0,0.041,0.014,0.094,0.041,0.146c0.031,0.063,0.084,0.115,0.129,0.131
			L10.208,20.212z M10.666,19.353l-0.468-0.544l-0.004,0.002l0.156,0.702L10.666,19.353z"/>
		<path d="M11.114,18.203c-0.037-0.078-0.107-0.137-0.185-0.162l0.409-0.19c0.004,0.018,0.008,0.036,0.018,0.054
			c0.012,0.023,0.033,0.053,0.063,0.08l0.707,0.675l0.004-0.002l-0.288-0.614c-0.088-0.185-0.148-0.261-0.283-0.296l0.425-0.199
			c-0.031,0.076-0.031,0.17,0.006,0.248l0.54,1.151c0.025,0.051,0.046,0.08,0.074,0.094l-0.302,0.143c0-0.012,0-0.025-0.008-0.041
			c-0.008-0.018-0.039-0.047-0.07-0.076l-0.787-0.752l-0.004,0.002l0.325,0.693c0.088,0.185,0.148,0.259,0.283,0.296l-0.427,0.199
			c0.031-0.076,0.031-0.168-0.006-0.246L11.114,18.203z"/>
		<path d="M13.544,17.521c-0.236-0.212-0.388-0.253-0.517-0.198c-0.15,0.064-0.22,0.269-0.025,0.729
			c0.154,0.362,0.328,0.433,0.466,0.374c0.154-0.066,0.162-0.202,0.092-0.368c-0.059-0.141-0.137-0.228-0.255-0.245l0.39-0.168
			c-0.014,0.045-0.004,0.104,0.021,0.164l0.277,0.652c-0.07-0.039-0.107-0.041-0.142-0.025c-0.064,0.027-0.111,0.141-0.314,0.229
			c-0.347,0.147-0.629-0.162-0.78-0.515c-0.166-0.392-0.237-0.881,0.17-1.055c0.146-0.063,0.214-0.031,0.288-0.063
			c0.041-0.017,0.064-0.05,0.084-0.095L13.544,17.521z"/>
		<path d="M14.016,16.933c-0.031-0.08-0.098-0.145-0.173-0.176l0.818-0.313c0.053-0.02,0.078-0.043,0.107-0.08l0.195,0.505
			c-0.175-0.152-0.31-0.176-0.514-0.096c-0.143,0.055-0.177,0.121-0.131,0.241l0.08,0.213c0.039-0.01,0.086-0.025,0.128-0.041
			c0.135-0.051,0.226-0.109,0.248-0.247l0.183,0.479c-0.107-0.086-0.212-0.066-0.347-0.016c-0.041,0.016-0.088,0.035-0.121,0.054
			l0.109,0.291c0.049,0.123,0.109,0.151,0.285,0.086c0.208-0.08,0.304-0.217,0.312-0.481l0.222,0.58
			c-0.049-0.02-0.095-0.018-0.189,0.018l-0.809,0.311c0.037-0.074,0.043-0.166,0.012-0.248L14.016,16.933z"/>
		<path d="M15.621,17.178c0.212,0.201,0.371,0.274,0.54,0.219c0.154-0.053,0.187-0.178,0.15-0.291
			c-0.037-0.104-0.105-0.155-0.228-0.175l-0.292-0.043c-0.166-0.025-0.289-0.135-0.339-0.285c-0.086-0.255,0.035-0.492,0.281-0.576
			c0.121-0.041,0.173-0.021,0.25-0.049c0.049-0.018,0.078-0.037,0.111-0.094l0.177,0.521c-0.136-0.148-0.304-0.199-0.442-0.152
			c-0.109,0.037-0.175,0.121-0.136,0.236c0.027,0.082,0.088,0.118,0.236,0.136l0.205,0.021c0.175,0.02,0.326,0.111,0.405,0.346
			c0.098,0.286-0.018,0.541-0.277,0.631c-0.125,0.043-0.263,0.029-0.325,0.053c-0.039,0.014-0.072,0.051-0.107,0.113L15.621,17.178z
			"/>
		<path d="M17.626,15.703c-0.023-0.084-0.082-0.154-0.156-0.191l0.846-0.232c0.055-0.015,0.082-0.034,0.115-0.067l0.143,0.52
			c-0.16-0.167-0.289-0.202-0.501-0.144c-0.148,0.041-0.191,0.104-0.154,0.228l0.061,0.221c0.039-0.004,0.087-0.018,0.13-0.029
			c0.138-0.037,0.234-0.086,0.269-0.223l0.136,0.497c-0.1-0.098-0.205-0.09-0.345-0.051c-0.043,0.012-0.092,0.027-0.127,0.041
			l0.082,0.301c0.037,0.128,0.093,0.161,0.275,0.112c0.214-0.059,0.323-0.187,0.354-0.448l0.166,0.599
			c-0.045-0.023-0.093-0.027-0.189,0l-0.834,0.229c0.043-0.069,0.057-0.159,0.035-0.243L17.626,15.703z"/>
		<path d="M19.209,16.708c0.064-0.084,0.128-0.263,0.169-0.456l0.113-0.513l-0.31-0.392c-0.094-0.118-0.193-0.204-0.251-0.229
			l0.452-0.104c-0.031,0.029-0.035,0.057-0.023,0.104c0.006,0.027,0.021,0.064,0.053,0.105c0.055,0.069,0.197,0.235,0.216,0.269
			l0.068-0.3c0.014-0.059,0.016-0.105,0.006-0.141c-0.012-0.055-0.035-0.082-0.07-0.096l0.444-0.104
			c-0.078,0.104-0.148,0.338-0.189,0.519l-0.07,0.328l0.356,0.453c0.053,0.066,0.164,0.18,0.298,0.264l-0.452,0.105
			c0.021-0.031,0.023-0.08,0.014-0.117c-0.006-0.031-0.047-0.1-0.093-0.158c-0.092-0.11-0.199-0.222-0.257-0.308l-0.088,0.401
			c-0.012,0.053-0.012,0.111-0.002,0.15c0.012,0.045,0.041,0.086,0.082,0.112L19.209,16.708z"/>
		<path d="M21.502,16.205l0.09,0.094c0.029,0.031,0.068,0.051,0.1,0.045c0.05-0.01,0.074-0.037,0.097-0.1
			c0.016,0.008,0.031,0.035,0.037,0.072c0.023,0.125-0.027,0.258-0.158,0.284c-0.24,0.045-0.298-0.306-0.479-0.272
			c-0.096,0.018-0.156,0.117-0.156,0.24c-0.051-0.029-0.078-0.07-0.09-0.127c-0.012-0.063-0.002-0.125,0.033-0.189
			c-0.181-0.096-0.296-0.337-0.363-0.686c-0.123-0.651,0.078-0.871,0.369-0.926c0.288-0.055,0.555,0.078,0.678,0.729
			C21.734,15.771,21.7,16.062,21.502,16.205z M21.411,15.414c-0.084-0.435-0.212-0.565-0.386-0.532
			c-0.174,0.033-0.246,0.201-0.164,0.636c0.074,0.394,0.197,0.567,0.384,0.532C21.433,16.015,21.485,15.808,21.411,15.414z"/>
		<path d="M22.115,14.705c-0.012-0.086-0.063-0.164-0.131-0.209l0.427-0.063c-0.047,0.086-0.061,0.137-0.047,0.232l0.127,0.869
			c0.031,0.22,0.115,0.286,0.267,0.265c0.128-0.02,0.236-0.112,0.205-0.333l-0.125-0.869c-0.014-0.094-0.041-0.139-0.111-0.206
			l0.425-0.063c-0.051,0.064-0.078,0.151-0.066,0.237l0.107,0.738c0.064,0.442-0.037,0.688-0.417,0.743
			c-0.273,0.039-0.483-0.094-0.528-0.411L22.115,14.705z"/>
		<path d="M23.775,14.483c-0.008-0.085-0.057-0.163-0.123-0.212l0.446-0.049c-0.052,0.061-0.082,0.15-0.074,0.235l0.125,1.154
			c0.01,0.086,0.057,0.163,0.123,0.214l-0.448,0.049c0.053-0.063,0.083-0.15,0.074-0.235L23.775,14.483z"/>
		<path d="M24.693,15.187c0.154,0.247,0.288,0.358,0.468,0.345c0.164-0.012,0.226-0.125,0.218-0.244
			c-0.008-0.11-0.063-0.177-0.178-0.228l-0.271-0.115c-0.154-0.066-0.246-0.202-0.257-0.358c-0.021-0.269,0.156-0.47,0.415-0.489
			c0.128-0.01,0.173,0.021,0.253,0.016c0.053-0.004,0.083-0.016,0.128-0.061l0.041,0.548c-0.094-0.178-0.246-0.269-0.39-0.257
			c-0.115,0.01-0.201,0.071-0.191,0.194c0.008,0.086,0.054,0.139,0.193,0.191l0.193,0.072c0.166,0.062,0.289,0.188,0.308,0.435
			c0.023,0.302-0.154,0.52-0.427,0.541c-0.13,0.01-0.263-0.037-0.327-0.031c-0.039,0.004-0.082,0.031-0.132,0.082L24.693,15.187z"/>
		<path d="M4.289,13.91c-0.07-0.189-0.146-0.27-0.302-0.213c-0.25,0.092-0.308,0.462-0.224,0.918l-0.008,0.002l-0.46-1.255
			c0.057,0.016,0.136,0.027,0.208,0l1.481-0.542c0.072-0.025,0.127-0.088,0.16-0.135l0.46,1.256l-0.008,0.002
			c-0.23-0.402-0.512-0.647-0.762-0.556c-0.158,0.059-0.164,0.167-0.096,0.356l0.717,1.953c0.061,0.167,0.189,0.304,0.337,0.372
			l-0.807,0.294c0.068-0.146,0.078-0.335,0.018-0.503L4.289,13.91z"/>
		<path d="M5.7,13.061c-0.057-0.168-0.185-0.309-0.332-0.379l0.778-0.269c-0.053,0.191-0.059,0.294,0.006,0.481l0.279,0.805
			l0.832-0.288l-0.279-0.805c-0.064-0.188-0.134-0.264-0.292-0.383l0.778-0.269c-0.072,0.146-0.086,0.333-0.027,0.503l0.783,2.263
			c0.059,0.167,0.185,0.308,0.332,0.38l-0.778,0.269c0.053-0.19,0.059-0.294-0.006-0.481l-0.353-1.022l-0.832,0.288l0.353,1.023
			c0.064,0.187,0.135,0.265,0.292,0.382l-0.778,0.269c0.072-0.146,0.086-0.335,0.027-0.503L5.7,13.061z"/>
		<path d="M8.08,12.245C8.025,12.076,7.9,11.934,7.758,11.86l1.592-0.515c0.104-0.034,0.15-0.073,0.21-0.144l0.343,1.062
			c-0.328-0.339-0.581-0.403-0.979-0.274c-0.279,0.09-0.349,0.219-0.267,0.476l0.146,0.448c0.072-0.014,0.166-0.039,0.248-0.064
			c0.261-0.086,0.438-0.188,0.487-0.466l0.328,1.012C9.664,13.2,9.461,13.22,9.2,13.306c-0.082,0.025-0.171,0.061-0.24,0.092
			l0.199,0.607c0.084,0.262,0.199,0.332,0.542,0.221c0.406-0.131,0.597-0.394,0.624-0.936l0.394,1.222
			c-0.09-0.047-0.181-0.053-0.362,0.006l-1.571,0.509c0.072-0.146,0.091-0.333,0.035-0.503L8.08,12.245z"/>
		<path d="M11.27,11.242c-0.048-0.172-0.169-0.316-0.312-0.396l1.397-0.405c0.102-0.029,0.152-0.07,0.214-0.139l0.294,1.012
			c-0.216-0.314-0.476-0.383-0.809-0.287c-0.259,0.076-0.287,0.209-0.23,0.401l0.146,0.505c0.049-0.01,0.127-0.027,0.22-0.055
			c0.242-0.07,0.316-0.146,0.399-0.405l0.289,0.988c-0.171-0.17-0.349-0.18-0.554-0.121c-0.078,0.023-0.154,0.051-0.212,0.072
			l0.289,0.992c0.049,0.171,0.169,0.317,0.312,0.396l-0.827,0.243c0.078-0.144,0.102-0.331,0.051-0.501L11.27,11.242z"/>
		<path d="M13.133,10.71c-0.047-0.172-0.164-0.317-0.304-0.399l0.828-0.227c-0.08,0.143-0.107,0.33-0.06,0.499l0.633,2.31
			c0.047,0.172,0.164,0.319,0.306,0.401l-0.828,0.227c0.08-0.143,0.105-0.328,0.059-0.501L13.133,10.71z"/>
		<path d="M14.302,10.393c-0.042-0.174-0.158-0.324-0.296-0.405l0.836-0.211c0.002,0.039,0.004,0.078,0.016,0.119
			c0.014,0.053,0.045,0.119,0.091,0.185l1.113,1.659l0.008-0.002l-0.343-1.356c-0.104-0.411-0.193-0.587-0.435-0.72l0.869-0.218
			c-0.084,0.141-0.113,0.325-0.068,0.497l0.641,2.547c0.027,0.111,0.061,0.177,0.107,0.216l-0.618,0.154
			c0.004-0.025,0.006-0.051-0.002-0.088c-0.01-0.037-0.059-0.109-0.107-0.183l-1.241-1.85l-0.008,0.002l0.386,1.533
			c0.104,0.411,0.193,0.585,0.435,0.718l-0.867,0.218c0.084-0.14,0.113-0.325,0.068-0.499L14.302,10.393z"/>
		<path d="M16.767,9.784c-0.039-0.174-0.148-0.327-0.285-0.415l1.633-0.36c0.105-0.023,0.158-0.059,0.224-0.123l0.24,1.09
			c-0.292-0.369-0.54-0.458-0.949-0.367c-0.285,0.063-0.368,0.186-0.31,0.448l0.101,0.46c0.074-0.006,0.169-0.021,0.253-0.041
			c0.267-0.058,0.454-0.144,0.53-0.417l0.228,1.039c-0.183-0.21-0.388-0.21-0.655-0.15c-0.083,0.018-0.177,0.043-0.247,0.07
			l0.138,0.624c0.059,0.269,0.167,0.347,0.519,0.271c0.417-0.092,0.631-0.335,0.711-0.871l0.277,1.255
			c-0.084-0.057-0.175-0.07-0.364-0.027L17.2,12.624c0.088-0.139,0.123-0.324,0.084-0.495L16.767,9.784z"/>
		<path d="M19.182,10.936c0.354,0.476,0.635,0.677,0.973,0.612c0.306-0.059,0.399-0.302,0.353-0.542
			c-0.043-0.226-0.162-0.351-0.392-0.429l-0.542-0.181c-0.306-0.102-0.514-0.366-0.575-0.683c-0.105-0.548,0.183-0.995,0.672-1.087
			c0.24-0.047,0.333,0.01,0.487-0.02c0.097-0.02,0.156-0.049,0.23-0.152L20.6,9.571c-0.224-0.346-0.532-0.501-0.803-0.448
			c-0.216,0.041-0.362,0.187-0.315,0.437c0.033,0.175,0.14,0.272,0.415,0.351l0.382,0.109c0.331,0.093,0.594,0.327,0.69,0.828
			c0.117,0.613-0.164,1.099-0.678,1.196c-0.248,0.047-0.505-0.021-0.629,0.002c-0.078,0.014-0.15,0.082-0.232,0.194L19.182,10.936z"
			/>
		<path d="M21.651,9.142c-0.031-0.199-0.092-0.293-0.255-0.266C21.132,8.917,21.006,9.27,21,9.734h-0.008l-0.21-1.319
			c0.052,0.025,0.128,0.053,0.205,0.041l1.557-0.249c0.076-0.012,0.14-0.061,0.183-0.102l0.212,1.319h-0.008
			c-0.15-0.438-0.38-0.732-0.641-0.69c-0.166,0.027-0.193,0.135-0.162,0.334l0.329,2.052c0.027,0.176,0.128,0.335,0.259,0.431
			l-0.848,0.137c0.093-0.133,0.14-0.316,0.111-0.491L21.651,9.142z"/>
		<path d="M24.794,8.703c-0.023-0.201-0.078-0.297-0.244-0.279c-0.265,0.029-0.409,0.374-0.435,0.836h-0.008L23.96,7.931
			c0.053,0.027,0.127,0.059,0.203,0.051l1.567-0.175c0.076-0.008,0.142-0.055,0.187-0.094l0.148,1.329l-0.007,0.002
			c-0.127-0.446-0.343-0.751-0.608-0.722c-0.166,0.018-0.199,0.123-0.175,0.324l0.23,2.065c0.02,0.178,0.113,0.341,0.24,0.442
			L24.89,11.25c0.101-0.127,0.156-0.309,0.136-0.483L24.794,8.703z"/>
		<path d="M26.419,8.214c-0.014-0.178-0.1-0.346-0.222-0.452l1.67-0.123c0.107-0.008,0.164-0.037,0.238-0.09l0.084,1.113
			c-0.238-0.407-0.47-0.53-0.889-0.499c-0.291,0.021-0.392,0.13-0.37,0.397l0.035,0.47c0.074,0.004,0.172,0.002,0.255-0.004
			c0.273-0.02,0.47-0.078,0.585-0.337l0.078,1.06c-0.15-0.233-0.353-0.263-0.625-0.243c-0.086,0.006-0.181,0.018-0.253,0.033
			l0.047,0.637c0.021,0.275,0.117,0.368,0.474,0.341c0.425-0.031,0.674-0.243,0.828-0.76l0.095,1.28
			c-0.076-0.066-0.164-0.094-0.356-0.08l-1.646,0.123c0.105-0.123,0.167-0.3,0.154-0.479L26.419,8.214z"/>
		<path d="M28.504,10.924c0.127-0.202,0.218-0.574,0.273-0.838l0.505-2.206c0.016-0.073,0.029-0.153,0.027-0.212
			c-0.002-0.037-0.01-0.076-0.037-0.1l0.674-0.021c-0.018,0.025-0.023,0.049-0.023,0.084c0,0.049,0.035,0.211,0.074,0.343
			l0.562,2.057c0.072,0.257,0.189,0.625,0.323,0.818l-0.795,0.025c0.063-0.123,0.084-0.258,0.08-0.395
			c-0.002-0.085-0.018-0.21-0.051-0.276l-0.914,0.031c-0.029,0.078-0.049,0.189-0.045,0.31c0.006,0.145,0.055,0.287,0.119,0.357
			L28.504,10.924z M29.989,9.726l-0.374-1.427h-0.008l-0.296,1.45L29.989,9.726z"/>
		<path d="M30.962,9.63c0.255,0.536,0.491,0.788,0.833,0.79c0.313,0.002,0.451-0.217,0.453-0.462c0.002-0.23-0.09-0.376-0.299-0.497
			l-0.499-0.283c-0.279-0.161-0.433-0.459-0.431-0.783c0.004-0.557,0.374-0.939,0.869-0.936c0.246,0.002,0.326,0.074,0.482,0.076
			c0.099,0.002,0.163-0.018,0.254-0.104l-0.008,1.137c-0.151-0.382-0.424-0.595-0.699-0.599c-0.222-0.002-0.394,0.113-0.396,0.368
			c0,0.178,0.084,0.295,0.339,0.427l0.355,0.182c0.306,0.156,0.518,0.437,0.514,0.947c-0.004,0.625-0.373,1.044-0.896,1.04
			c-0.251-0.002-0.491-0.118-0.617-0.118c-0.078,0-0.164,0.051-0.263,0.146L30.962,9.63z"/>
		<path d="M36.12,9.393c-0.077,1.083-0.402,1.711-1.133,1.66C34.253,11,34.02,10.334,34.096,9.25
			c0.095-1.362,0.576-1.699,1.133-1.66C35.79,7.629,36.217,8.031,36.12,9.393z M35.639,9.36c0.064-0.912-0.109-1.237-0.446-1.261
			s-0.554,0.274-0.62,1.185c-0.059,0.824,0.084,1.235,0.446,1.261S35.581,10.184,35.639,9.36z"/>
		<path d="M36.734,8.255c0.02-0.178-0.032-0.357-0.134-0.485l1.445,0.163c0.107,0.012,0.168-0.006,0.252-0.045L38.18,8.935
			c-0.078-0.372-0.291-0.536-0.637-0.577c-0.27-0.029-0.344,0.082-0.367,0.283l-0.059,0.522c0.047,0.009,0.129,0.022,0.223,0.034
			c0.252,0.029,0.349-0.014,0.525-0.222l-0.114,1.023c-0.094-0.225-0.253-0.301-0.462-0.324c-0.082-0.01-0.164-0.014-0.227-0.016
			l-0.116,1.027c-0.02,0.178,0.034,0.356,0.134,0.485l-0.854-0.098c0.127-0.102,0.221-0.265,0.24-0.442L36.734,8.255z"/>
		<path d="M40.141,9.038c0.035-0.199,0.01-0.307-0.156-0.335c-0.264-0.047-0.497,0.245-0.652,0.682h-0.008l0.229-1.317
			c0.04,0.041,0.103,0.092,0.181,0.105l1.556,0.272c0.075,0.012,0.151-0.012,0.204-0.037l-0.229,1.315h-0.008
			c0.002-0.464-0.121-0.816-0.384-0.863c-0.164-0.029-0.227,0.063-0.26,0.262l-0.358,2.046c-0.031,0.176,0.012,0.358,0.105,0.491
			l-0.846-0.148c0.132-0.094,0.233-0.251,0.265-0.427L40.141,9.038z"/>
		<path d="M41.864,9.031c0.041-0.174,0.004-0.358-0.084-0.495l0.803,0.178c-0.143,0.136-0.205,0.22-0.248,0.413l-0.183,0.832
			l0.859,0.19l0.183-0.83c0.045-0.192,0.025-0.296-0.049-0.479l0.803,0.178c-0.138,0.088-0.246,0.239-0.285,0.415l-0.52,2.339
			c-0.039,0.173-0.004,0.358,0.084,0.496l-0.803-0.177c0.145-0.137,0.205-0.221,0.248-0.413l0.235-1.057l-0.861-0.19l-0.233,1.056
			c-0.043,0.193-0.023,0.296,0.049,0.478l-0.803-0.178c0.138-0.087,0.247-0.239,0.285-0.415L41.864,9.031z"/>
		<path d="M44.385,9.611c0.047-0.171,0.02-0.358-0.061-0.498l1.615,0.438c0.104,0.027,0.168,0.02,0.256-0.006l-0.293,1.075
			c-0.09-0.462-0.269-0.654-0.672-0.764c-0.281-0.076-0.414-0.008-0.483,0.253l-0.123,0.456c0.068,0.029,0.162,0.059,0.243,0.08
			c0.266,0.072,0.469,0.082,0.663-0.125l-0.276,1.025c-0.066-0.271-0.246-0.366-0.511-0.437c-0.082-0.023-0.175-0.043-0.249-0.053
			l-0.168,0.618c-0.072,0.265-0.012,0.386,0.335,0.479c0.411,0.11,0.716-0.006,1.032-0.442l-0.334,1.239
			c-0.049-0.088-0.123-0.143-0.309-0.193l-1.594-0.433c0.141-0.082,0.257-0.229,0.302-0.401L44.385,9.611z"/>
		<path d="M48.317,10.278c-0.118,0.061-0.22,0.174-0.266,0.308c-0.021,0.064-0.045,0.168-0.066,0.283l-0.334,1.762l0.008,0.002
			l1.053-1.84c0.041-0.072,0.08-0.145,0.098-0.195c0.016-0.045,0.025-0.098,0.025-0.144l0.592,0.204
			c-0.023,0.047-0.043,0.092-0.059,0.137c-0.018,0.055-0.041,0.144-0.055,0.226l-0.351,2.122l0.006,0.002l0.819-1.549
			c0.081-0.154,0.14-0.255,0.181-0.374c0.049-0.146,0.027-0.275-0.063-0.399l0.787,0.272c-0.183,0.135-0.351,0.356-0.513,0.651
			l-1.104,2.034c-0.031,0.059-0.059,0.111-0.068,0.139c-0.014,0.035-0.008,0.079,0.008,0.114l-0.634-0.218
			c0.021-0.039,0.043-0.088,0.057-0.129c0.027-0.076,0.043-0.188,0.068-0.353l0.309-1.893l-0.008-0.002l-1.053,1.824
			c-0.033,0.061-0.057,0.107-0.074,0.158c-0.021,0.059-0.008,0.118,0.02,0.159l-0.689-0.239c0.041-0.031,0.07-0.066,0.082-0.1
			c0.018-0.051,0.031-0.105,0.043-0.167l0.373-2.141c0.053-0.302,0.107-0.727,0.039-0.927L48.317,10.278z"/>
		<path d="M52.176,13.491c-0.403,1.009-0.904,1.508-1.586,1.237c-0.681-0.271-0.702-0.979-0.301-1.988
			c0.505-1.269,1.066-1.443,1.586-1.237C52.397,11.71,52.68,12.224,52.176,13.491z M51.728,13.314
			c0.337-0.85,0.272-1.212-0.041-1.337c-0.313-0.123-0.61,0.094-0.949,0.943c-0.306,0.768-0.296,1.202,0.043,1.337
			C51.116,14.39,51.422,14.081,51.728,13.314z"/>
		<path d="M53.071,12.626c0.092-0.207,0.121-0.389,0.045-0.573c0.09,0.064,0.168,0.105,0.296,0.162
			c0.105,0.046,0.521,0.196,0.694,0.272c0.625,0.272,0.6,0.777,0.441,1.138c-0.171,0.392-0.404,0.583-0.727,0.563
			c0.148,0.207,0.219,0.38-0.047,1.103c-0.102,0.277-0.139,0.481-0.068,0.685l-0.438-0.191c-0.139-0.061-0.111-0.194,0.077-0.715
			c0.206-0.571,0.172-0.732-0.2-0.896l-0.191-0.084L52.599,14.9c-0.1,0.225-0.094,0.417-0.025,0.581l-0.787-0.345
			c0.163-0.08,0.249-0.154,0.349-0.382L53.071,12.626z M53.149,13.647l0.139,0.061c0.398,0.176,0.635,0.146,0.781-0.187
			c0.132-0.301,0.068-0.495-0.256-0.638c-0.215-0.094-0.315-0.035-0.36,0.066L53.149,13.647z"/>
		<path d="M55.271,13.551c0.075-0.161,0.083-0.349,0.028-0.502l0.778,0.366c-0.154,0.055-0.294,0.181-0.37,0.341l-0.857,1.813
			c-0.119,0.251-0.09,0.372,0.045,0.437c0.312,0.163,0.648-0.066,0.971-0.419l-0.589,1.249c-0.033-0.096-0.096-0.162-0.269-0.244
			l-1.129-0.531c0.154-0.057,0.293-0.182,0.37-0.342L55.271,13.551z"/>
		<path d="M56.919,14.388c0.102-0.203,0.142-0.381,0.076-0.571c0.085,0.07,0.204,0.137,0.364,0.216
			c0.205,0.104,0.399,0.17,0.564,0.254c0.659,0.333,0.755,1.069,0.314,1.94c-0.478,0.945-1.076,1.468-1.912,1.045
			c-0.17-0.086-0.349-0.209-0.525-0.298c-0.16-0.08-0.248-0.104-0.332-0.135c0.146-0.051,0.314-0.203,0.439-0.446L56.919,14.388z
			 M56.448,16.391c-0.123,0.243-0.1,0.353,0.119,0.464c0.459,0.231,0.857-0.08,1.216-0.793c0.331-0.657,0.354-1.129-0.064-1.341
			c-0.255-0.129-0.376-0.104-0.483,0.111L56.448,16.391z"/>
	</g>
</g>
</svg>
