<?xml version="1.0" encoding="utf-8"?>

<!-- Generator: Adobe Illustrator 22.1.0, SVG Export Plug-In . SVG Version: 6.00 Build 0)  -->

<svg version="1.1" id="Capa_1" xmlns="http://www.w3.org/2000/svg" xmlns:xlink="http://www.w3.org/1999/xlink" x="0px" y="0px"

	 viewBox="0 0 612 612" style="enable-background:new 0 0 612 612;" xml:space="preserve">

<style type="text/css">

	.st0{fill:#FFFFFF;}

</style>

<g>

	<g id="_x35__11_">

		<g>

			<path class="st0" d="M342.3,597l254.6-254.6c20.1-20.1,20.1-52.6,0-72.7c-20.1-20.1-52.6-20.1-72.7,0L306,487.9L87.8,269.7

				c-20.1-20.1-52.6-20.1-72.7,0s-20.1,52.6,0,72.7L269.7,597C289.7,617,322.3,617,342.3,597z M357.8,290.9l213-202.1

				c21.4-20.3,21.4-53.2,0-73.5s-56.1-20.3-77.5,0L319,180.6L144.7,15.2c-21.4-20.3-56.1-20.3-77.5,0s-21.4,53.2,0,73.5l213,202.1

				C301.7,311.2,336.4,311.2,357.8,290.9z"/>

		</g>

	</g>

</g>

</svg>