<?xml version="1.0" encoding="utf-8"?>
<!-- Generator: Adobe Illustrator 22.1.0, SVG Export Plug-In . SVG Version: 6.00 Build 0)  -->
<svg version="1.1" id="Layer_1" xmlns="http://www.w3.org/2000/svg" xmlns:xlink="http://www.w3.org/1999/xlink" x="0px" y="0px"
	 viewBox="0 0 188 71.9" style="enable-background:new 0 0 188 71.9;" xml:space="preserve">
<style type="text/css">
	.st0{display:none;}
	.st1{fill:none;stroke:#000000;stroke-miterlimit:10;}
</style>
<g id="Layer_1_1_" class="st0">
</g>
<path class="st1" d="M19.4,71.9c-3.7,0-7.3-0.5-10.9-1.3C5,69.7,2.1,68.5,0,67.1l4.1-13.6h1L6.5,60c0.4,1.9,1,3.5,1.7,5
	c0.7,1.4,1.8,2.5,3.5,3.3c1.1,0.7,2.3,1.1,3.5,1.4c1.1,0.2,2.5,0.3,4,0.3c4.1,0,7.6-1.1,10.5-3.3c3-2.2,4.9-5,5.9-8.5
	c0.9-3.3,0.8-5.8-0.3-7.7c-1.1-1.8-3.2-3.6-6.3-5.3l-3.6-1.9c-5-2.5-8.7-5.5-11.1-8.8c-2.3-3.3-2.7-7.7-1.3-13.2
	c1-3.9,3-7.3,5.7-10.2S25,6,29,4.5s8.5-2.3,13.4-2.3c3.5,0,6.8,0.5,9.6,1.4c3,0.9,5.3,2.2,7.2,3.8l-3.8,12h-1l-2-7.4
	c-0.5-2.3-1.2-4-2.1-4.9c-0.8-1-1.9-1.7-3.3-2.1c-0.8-0.3-1.6-0.4-2.3-0.5S43,4.4,41.9,4.4c-3.4,0-6.6,1-9.4,2.9
	c-2.8,2-4.7,4.6-5.6,8s-0.7,6.1,0.5,8.1s3.4,3.9,6.4,5.5l4.1,2c5.6,2.8,9.4,5.8,11.4,9c1.9,3.2,2.3,7.2,0.9,12.2
	c-1.6,5.9-5,10.6-10.5,14.3C34.3,70.1,27.5,71.9,19.4,71.9z"/>
<path class="st1" d="M50.5,70.1l0.3-1l1.5-0.4c1.4-0.4,2.5-1,3.3-1.8s1.3-1.9,1.7-3.2l8.4-31.3c0.4-1.4,0.4-2.4,0-3.1
	c-0.3-0.7-1.1-1.2-2.4-1.4L62,27.6l0.3-1L82,20.7l0.7,1l-4.1,14.2l-7.5,28c-0.3,1.3-0.4,2.4-0.1,3.2c0.3,0.8,1,1.4,2.1,1.8l0.9,0.3
	l-0.3,1H50.5V70.1z M77,15.3c-2.3,0-4-0.7-5.2-2.2c-1.1-1.4-1.4-3.2-0.9-5.4c0.6-2.3,1.9-4.1,3.9-5.5s4.1-2.1,6.4-2.1s4,0.7,5.1,2.1
	s1.4,3.2,0.8,5.5c-0.6,2.2-1.9,4-3.7,5.4C81.4,14.6,79.3,15.3,77,15.3z"/>
<path class="st1" d="M78.5,70.1l0.3-1l1.6-0.5c2.5-0.7,4-2.4,4.7-4.9l14.3-53.5c0.3-1.3,0.3-2.3,0-3S98.3,6,97.1,5.6l-1.2-0.3l0.3-1
	L115.6,0l1,0.9l-4.1,14L99.4,63.7c-0.7,2.7-0.1,4.3,2,5l1.3,0.4l-0.3,1H78.5z M115.6,70.1l-11.1-25L127.6,28
	c1.1-0.8,1.8-1.6,2.2-2.5c0.4-0.9,0-1.6-1.3-2l-1.6-0.5l0.3-1h14.9l-0.3,1l-3.2,0.8c-1.6,0.5-2.9,1-3.9,1.6s-2.4,1.5-3.9,2.6
	l-14,10.5l11.2,25c0.7,1.5,1.4,2.6,2.1,3.4s1.7,1.5,3.1,2l0.3,0.2l-0.3,1H115.6z"/>
<path class="st1" d="M150.4,71.6c-3.9,0-6.8-1.1-8.9-3.3c-2-2.2-2.6-5.4-1.5-9.5c0.8-3.1,3.2-6,7.1-8.7c3.9-2.6,9.4-4.6,16.7-6
	c1.2-0.2,2.4-0.4,3.8-0.6c1.4-0.2,2.8-0.5,4.4-0.8l2.1-7.9c1.2-4.5,1.5-7.7,0.9-9.5s-2-2.8-4.4-2.8c-1.6,0-3,0.5-4.2,1.5
	s-2.3,2.8-3.2,5.4l-0.5,1.1c-0.9,2.9-2.1,5-3.8,6.3c-1.6,1.3-3.3,2-5.2,2c-1.7,0-3.1-0.5-3.9-1.6c-0.8-1.1-1-2.5-0.5-4.3
	c0.7-2.7,2.2-5,4.6-6.9c2.4-1.9,5.3-3.3,8.7-4.2c3.3-0.9,6.9-1.4,10.6-1.4c5.9,0,10.1,1.5,12.6,4.4c2.4,2.9,2.9,7.6,1.1,14.2
	L181,61.1c-0.8,3,0.2,4.5,3,4.5h2.2l0.7,0.8c-1.7,1.6-3.5,2.8-5.2,3.7s-3.9,1.3-6.6,1.3c-2.9,0-5-0.7-6.5-2s-1.9-3.2-1.9-5.5
	c-2.6,2.1-5.1,4-7.6,5.5C156.6,70.9,153.7,71.6,150.4,71.6z M158.1,65.5c1.3,0,2.7-0.3,4.1-1c1.4-0.6,2.9-1.6,4.9-3l4.5-16.7
	c-0.7,0.1-1.4,0.3-2.1,0.4c-0.7,0.1-1.5,0.3-2.4,0.4c-3.3,0.8-6.1,2.2-8.4,4c-2.3,1.9-4,4.5-4.9,7.7c-0.7,2.7-0.7,4.8,0.3,6.1
	C155,64.8,156.3,65.5,158.1,65.5z"/>
</svg>
