<?xml version="1.0" encoding="utf-8"?>
<!-- Generator: Adobe Illustrator 23.0.0, SVG Export Plug-In . SVG Version: 6.00 Build 0)  -->
<svg version="1.1" id="Lag_1" xmlns="http://www.w3.org/2000/svg" xmlns:xlink="http://www.w3.org/1999/xlink" x="0px" y="0px"
	 viewBox="0 0 1759.02 373.25" style="enable-background:new 0 0 1759.02 373.25;" xml:space="preserve">
<g>
	<path d="M126.2,68.98c-1,2-2.33,3.33-3.66,3.33c-2,0-22.64-14.65-46.62-14.65c-15.32,0-31.3,5.99-31.3,25.97
		c0,25.31,38.96,29.97,68.26,51.61c16.98,12.65,28.64,30.3,28.64,55.6c0,42.28-29.97,70.26-71.92,70.26
		C35.63,261.1,0,246.45,0,241.12c0-1,1-3.33,1.67-5.33l7.66-21.97c0.67-2,2.33-3.33,3.66-3.33c2,0,26.64,14.65,55.27,14.65
		c18.65,0,29.97-9.99,29.97-30.63c0-29.63-33.96-32.63-67.93-53.28C12.65,130.57,1.33,117.26,1.33,89.62
		c0-47.95,34.63-67.93,73.25-67.93c31.63,0,64.26,14.65,64.26,20.31c0,1-0.33,2.33-1.66,4.99L126.2,68.98L126.2,68.98z"/>
	<path d="M208.45,69.31c-15.32,0-27.64-12.32-27.64-27.64c0-15.3,12.28-27.27,27.57-27.3h0.13c14.96,0.03,27.24,12,27.24,27.3
		C235.75,56.99,223.43,69.31,208.45,69.31L208.45,69.31z M229.76,250.78c0,3.66-0.67,4.66-4.66,4.66h-32.96
		c-4,0-4.66-0.99-4.66-4.66V121.92h-25.64c-4,0-4.66-1-4.66-4.66V95.61c0-3.67,0.67-4.66,4.66-4.66h63.26c4,0,4.66,0.99,4.66,4.66
		V250.78L229.76,250.78z"/>
	<path d="M421.22,236.13c1.66,1.66,3,3.66,3,4.99c0,1.33-0.33,2.33-1.66,2.99l-28.3,15.65c-1.33,0.67-2.66,1.33-4,1.33
		c-1.33,0-3-2-4-3.33l-60.94-79.58h-0.66v72.58c0,3.66-0.67,4.66-4.66,4.66h-32.96c-4,0-4.66-1-4.66-4.66V27.02
		c0-4.66,2.33-5.33,6.33-5.99l27.97-5.67c0.97-0.32,4.13-0.95,5.23-0.99h0.22c1.91,0.05,2.55,1.44,2.55,6.99v131.86l63.93-64.6
		c1-1.34,3.66-3.33,4.66-3.33c2,0,3.33,1.67,5.99,3.66l16.65,13.65c1.33,1.34,1.67,2.33,1.67,3.67c0,1.33-1.33,2.66-3,4.33
		l-53.94,52.61L421.22,236.13L421.22,236.13z"/>
	<path d="M528.12,180.85c-8.32,0-46.95-2.66-46.95,26.64c0,12.99,9.32,22.64,21.98,22.64c12.32,0,20.98-8.66,24.97-12.65V180.85
		L528.12,180.85z M548.43,259.77c-1.33,0.33-3,1.34-4.33,1.34c-3,0-7.99-11.66-9.66-19.98c-6.66,6.66-18.31,19.98-43.29,19.98
		c-30.63,0-49.95-19.98-49.95-51.28c0-56.27,60.6-56.27,86.91-56.27v-10.33c0-14.98-2.66-24.64-23.64-24.64
		c-18.64,0-36.96,9.99-41.29,9.99c-1.67,0-3-2-3.33-3.33l-6.66-20.31c-0.67-1.33-1-2.66-1-3.99c0-7.66,32.97-15.65,58.6-15.65
		c41.62,0,57.27,18.98,57.27,53.61v64.27c0,32.3,8.66,36.63,8.66,43.28c0,1.34-1.33,2.33-3,3L548.43,259.77L548.43,259.77z"/>
	<path d="M648.99,195.5c-13.99,0-25.64-11.32-25.64-25.31c0-13.98,11.32-25.64,25.64-25.64c13.99,0,25.31,11.65,25.31,25.64
		C674.3,184.19,662.64,195.5,648.99,195.5L648.99,195.5z"/>
	<path d="M793.51,219.48c37.63,0,51.61-16.31,51.61-79.91c0-59.6-14.32-76.25-51.61-76.25h-11.99v156.16H793.51L793.51,219.48z
		 M795.51,27.35c63.59,0,96.89,20.65,96.89,112.88c0,95.56-38.62,115.2-97.89,115.2h-50.94c-5.66,0-6.99-1.33-6.99-6.99V34.35
		c0-5.99,1.33-6.99,7.33-6.99H795.51L795.51,27.35z"/>
	<path d="M1013.95,153.55c0-13.65-0.99-37.3-23.97-37.3c-25.97,0-27.3,27.98-28.3,37.3H1013.95L1013.95,153.55z M1052.57,237.79
		c0.67,1,1,2.33,1,3.66c0,8.66-33.3,19.65-59.6,19.65c-43.95,0-74.59-24.97-74.59-86.24c0-52.94,28.3-89.57,72.92-89.57
		c56.61,0,66.6,50.61,66.6,90.9c0,6.33-1.34,8.33-7.66,8.33h-89.57c0,18.64,5.33,41.62,36.63,41.62c23.97,0,37.62-10.99,42.28-10.99
		c1.67,0,3,1.34,3.66,2.67L1052.57,237.79L1052.57,237.79z"/>
	<path d="M1190.1,124.25c-0.66,1.66-2.33,2.99-2.66,2.99c-1,0-17.32-8.66-38.63-8.66c-12.65,0-21.98,4.66-21.98,15.98
		c0,17.99,29.96,16.65,53.6,32.3c12.99,8.65,22.31,21.31,22.31,40.62c0,30.63-21.64,53.61-56.93,53.61
		c-24.64,0-62.6-12.65-62.6-21.64c0-1,1.33-2.99,1.66-4.33l7.33-18.98c0.66-1.67,1.33-3,2.66-3c1.33,0,26.97,14.65,47.62,14.65
		c10.99,0,20.31-4.66,20.31-16.65c0-19.31-32.63-19.31-54.6-33.96c-9.99-6.66-19.65-18.31-19.65-37.63
		c0-30.3,22.97-54.27,58.94-54.27c20.31,0,51.94,8.66,51.94,16.32c0,1-0.99,2.99-1.66,4.32L1190.1,124.25L1190.1,124.25z"/>
	<path d="M1270.69,69.31c-15.31,0-27.64-12.32-27.64-27.64c0-15.3,12.29-27.27,27.57-27.3h0.13c14.96,0.03,27.24,12,27.24,27.3
		C1297.99,56.99,1285.67,69.31,1270.69,69.31L1270.69,69.31z M1292,250.78c0,3.66-0.66,4.66-4.66,4.66h-32.97
		c-4,0-4.66-0.99-4.66-4.66V121.92h-25.64c-4,0-4.66-1-4.66-4.66V95.61c0-3.67,0.66-4.66,4.66-4.66h63.27c4,0,4.66,0.99,4.66,4.66
		V250.78L1292,250.78z"/>
	<path d="M1426.19,130.24c-4.33-3.33-11.33-9.99-26.31-9.99c-19.98,0-28.64,18.64-28.64,50.61c0,30.3,6.66,49.28,26.63,49.28
		c16.98,0,24.97-8.32,28.31-11.32V130.24L1426.19,130.24z M1466.15,190.84c0,21.98,1.67,56.27,1.67,74.92
		c0,36.29-17.98,60.27-64.27,60.27c-25.97,0-68.92-10.66-68.92-17.65c0-2.33,0.33-3.67,1.33-6.66l6.33-20.31
		c0.66-2.33,2-3.33,3.66-3.33c4,0,24.31,12.99,53.94,12.99c23.31,0,27.3-9.66,27.3-28.3c0-11.66-0.99-19.65-0.99-21.98
		c-5,3.33-17.65,12.65-40.29,12.65c-37.29,0-56.94-31.29-56.94-81.24c0-53.61,23.31-86.91,62.93-86.91
		c23.64,0,33.3,10.32,39.62,15.65c1-3,6.99-15.65,11.65-15.65c1,0,2.33,0.33,3.33,0.67l25.97,9.65c1.33,0.66,3,1.67,3,3
		c0,4.33-9.33,16.32-9.33,42.62V190.84L1466.15,190.84z"/>
	<path d="M1640.97,250.95c-0.02,3.53-0.73,4.49-4.66,4.49h-32.96c-4,0-4.66-1-4.66-4.66V148.22c0-12.65-1.67-27.97-18.65-27.97
		c-13.98,0-24.97,9.66-29.3,13.65v116.87c0,3.66-0.67,4.66-4.66,4.66h-32.96c-4,0-4.66-1-4.66-4.66V150.22
		c0-46.94-6.33-44.28-6.33-51.94c0-1.66,1.33-3,3.66-3.66l25.31-8.32c2-0.67,3.66-1,5-1c4.33,0,6.99,7.33,10.66,22.98
		c9.65-8.66,24.64-22.98,50.94-22.98c18.3,0,43.25,8.31,43.28,48.53V250.95L1640.97,250.95z"/>
	<path d="M56.39,370.79c0,1.1-0.16,1.78-0.47,2.05c-0.31,0.27-0.98,0.41-2,0.41H43c-1.02,0-1.68-0.14-2-0.41
		c-0.31-0.27-0.47-0.96-0.47-2.05v-32.76H18.22v32.76c0,1.1-0.16,1.78-0.47,2.05c-0.31,0.27-0.98,0.41-2,0.41H4.84
		c-1.02,0-1.68-0.14-2-0.41c-0.31-0.27-0.47-0.96-0.47-2.05v-75.51c0-1.1,0.16-1.78,0.47-2.05c0.31-0.27,0.98-0.41,2-0.41h10.92
		c1.02,0,1.68,0.14,2,0.41c0.31,0.27,0.47,0.96,0.47,2.05v30.06h22.31v-30.06c0-1.1,0.16-1.78,0.47-2.05c0.31-0.27,0.98-0.41,2-0.41
		h10.92c1.02,0,1.68,0.14,2,0.41c0.31,0.27,0.47,0.96,0.47,2.05V370.79L56.39,370.79z M93.87,370.79c-0.23,1.1-0.49,1.78-0.76,2.05
		c-0.27,0.27-0.84,0.41-1.7,0.41H79.55c-1.49,0-2.27-0.35-2.35-1.06c0-0.31,0.06-0.67,0.18-1.06c0.12-0.39,0.22-0.7,0.29-0.94
		l23.13-75.62c0.23-0.78,0.47-1.27,0.7-1.47c0.23-0.2,0.86-0.29,1.88-0.29h12.21c0.86,0,1.43,0.14,1.7,0.41
		c0.27,0.27,0.53,0.76,0.76,1.47l23.02,75.74c0.08,0.23,0.18,0.55,0.29,0.94c0.12,0.39,0.18,0.7,0.18,0.94
		c0,0.39-0.23,0.65-0.7,0.76c-0.47,0.12-1.02,0.18-1.64,0.18h-13.15c-0.63,0-1.04-0.14-1.23-0.41c-0.2-0.27-0.45-0.96-0.76-2.05
		l-5.17-19.02h-20.2L93.87,370.79L93.87,370.79z M111.13,321c-0.23-1.17-0.49-2.45-0.76-3.82c-0.27-1.37-0.51-2.8-0.7-4.29
		c-0.2-1.49-0.39-2.94-0.59-4.34c-0.2-1.41-0.37-2.74-0.53-3.99h-0.23c-0.23,2.51-0.59,5.28-1.06,8.34
		c-0.47,3.05-1.02,5.75-1.64,8.1l-5.17,20.2h15.5L111.13,321L111.13,321z M216.73,370.79c0,1.1-0.14,1.78-0.41,2.05
		c-0.27,0.27-0.96,0.41-2.06,0.41h-7.75c-0.86,0-1.43-0.1-1.7-0.29c-0.27-0.2-0.61-0.65-1-1.35l-21.49-40.04
		c-1.8-3.29-3.21-6.11-4.23-8.45c-1.02-2.35-1.84-4.85-2.47-7.52h-0.23c0,0.78,0.06,2.45,0.18,4.99c0.12,2.54,0.18,5.19,0.18,7.93
		v42.27c0,1.1-0.16,1.78-0.47,2.05c-0.31,0.27-0.98,0.41-2,0.41h-8.57c-1.02,0-1.68-0.14-2-0.41c-0.31-0.27-0.47-0.96-0.47-2.05
		v-75.51c0-1.1,0.16-1.78,0.47-2.05c0.31-0.27,0.98-0.41,2-0.41h9.63c0.86,0,1.43,0.1,1.7,0.29c0.27,0.2,0.61,0.61,1,1.23
		l19.38,36.4c1.64,3.13,3.03,6.15,4.17,9.04c1.14,2.9,2.06,5.56,2.76,7.99h0.23c0-0.94-0.02-2.11-0.06-3.52
		c-0.04-1.41-0.08-2.84-0.12-4.29c-0.04-1.45-0.08-2.84-0.12-4.17c-0.04-1.33-0.06-2.43-0.06-3.29v-37.23c0-1.1,0.16-1.78,0.47-2.05
		c0.31-0.27,0.98-0.41,2-0.41h8.57c1.02,0,1.68,0.14,2,0.41c0.31,0.27,0.47,0.96,0.47,2.05V370.79L216.73,370.79z M264.78,360.57
		c3.29,0,6.09-0.41,8.4-1.23c2.31-0.82,4.19-2.29,5.64-4.4c1.45-2.11,2.51-4.99,3.17-8.63c0.67-3.64,1-8.28,1-13.91
		c0-5.25-0.33-9.59-1-13.03c-0.67-3.44-1.72-6.2-3.17-8.28c-1.45-2.07-3.33-3.52-5.64-4.34c-2.31-0.82-5.11-1.23-8.4-1.23h-4.23
		v55.07H264.78L264.78,360.57z M265.48,292.82c5.64,0,10.57,0.55,14.8,1.64c4.23,1.1,7.79,3.11,10.69,6.05
		c2.9,2.94,5.07,6.99,6.52,12.15c1.45,5.17,2.17,11.82,2.17,19.96c0,8.45-0.82,15.32-2.47,20.61c-1.64,5.28-3.97,9.41-6.99,12.39
		c-3.01,2.97-6.63,4.99-10.86,6.05c-4.23,1.06-8.96,1.58-14.21,1.58h-17.97c-1.02,0-1.68-0.16-2-0.47c-0.31-0.31-0.47-0.98-0.47-2
		v-75.51c0-1.1,0.16-1.78,0.47-2.05c0.31-0.27,1.02-0.41,2.11-0.41H265.48L265.48,292.82z M387.17,370.79c0,1.1-0.16,1.78-0.47,2.05
		c-0.31,0.27-0.98,0.41-2,0.41h-10.33c-1.02,0-1.68-0.14-2-0.41c-0.31-0.27-0.47-0.96-0.47-2.05l-0.94-39.81
		c0-1.02-0.02-2.39-0.06-4.11c-0.04-1.72-0.08-3.48-0.12-5.28c-0.04-1.8-0.06-3.52-0.06-5.17c0-1.72,0-3.13,0-4.23h-0.23
		c-0.16,1.1-0.41,2.47-0.76,4.11s-0.72,3.35-1.12,5.11c-0.39,1.76-0.78,3.48-1.17,5.17c-0.39,1.68-0.74,3.03-1.06,4.05l-7.16,22.9
		c-0.24,0.86-0.47,1.41-0.7,1.64c-0.23,0.23-0.86,0.35-1.88,0.35h-7.28c-1.02,0-1.64-0.12-1.88-0.35c-0.23-0.24-0.47-0.78-0.7-1.64
		l-6.81-22.9c-0.31-1.02-0.67-2.37-1.06-4.05c-0.39-1.68-0.78-3.41-1.17-5.17c-0.39-1.76-0.76-3.46-1.12-5.11
		c-0.35-1.64-0.61-3.01-0.76-4.11h-0.23c0,1.1,0,2.51,0,4.23c0,1.64-0.02,3.37-0.06,5.17c-0.04,1.8-0.08,3.56-0.12,5.28
		c-0.04,1.72-0.06,3.09-0.06,4.11l-1.17,39.81c-0.08,1.1-0.25,1.78-0.53,2.05c-0.27,0.27-0.92,0.41-1.94,0.41h-8.57
		c-1.02,0-1.7-0.14-2.05-0.41c-0.35-0.27-0.49-0.96-0.41-2.05l3.29-75.51c0-1.1,0.16-1.78,0.47-2.05c0.31-0.27,0.98-0.41,2-0.41
		h11.27c0.94,0,1.53,0.1,1.76,0.29c0.23,0.2,0.51,0.72,0.82,1.58l9.51,29.59c0.78,2.35,1.47,4.72,2.06,7.1
		c0.59,2.39,1.08,4.72,1.47,6.99h0.23c0.16-1.17,0.33-2.19,0.53-3.05c0.2-0.86,0.41-1.8,0.65-2.82c0.23-1.02,0.57-2.15,1-3.41
		c0.43-1.25,0.96-2.86,1.59-4.81l9.98-29.59c0.31-0.86,0.59-1.39,0.82-1.58c0.23-0.2,0.9-0.29,2-0.29h11.27
		c1.02,0,1.64,0.23,1.88,0.7c0.23,0.47,0.43,1.49,0.59,3.05L387.17,370.79L387.17,370.79z M422.77,370.79
		c-0.23,1.1-0.49,1.78-0.76,2.05c-0.27,0.27-0.84,0.41-1.7,0.41h-11.86c-1.49,0-2.27-0.35-2.35-1.06c0-0.31,0.06-0.67,0.18-1.06
		c0.12-0.39,0.22-0.7,0.29-0.94l23.13-75.62c0.23-0.78,0.47-1.27,0.7-1.47c0.23-0.2,0.86-0.29,1.88-0.29h12.21
		c0.86,0,1.43,0.14,1.7,0.41c0.27,0.27,0.53,0.76,0.76,1.47l23.02,75.74c0.08,0.23,0.18,0.55,0.29,0.94
		c0.12,0.39,0.18,0.7,0.18,0.94c0,0.39-0.23,0.65-0.7,0.76c-0.47,0.12-1.02,0.18-1.64,0.18h-13.15c-0.63,0-1.04-0.14-1.23-0.41
		c-0.2-0.27-0.45-0.96-0.76-2.05l-5.17-19.02h-20.2L422.77,370.79L422.77,370.79z M440.03,321c-0.23-1.17-0.49-2.45-0.76-3.82
		c-0.27-1.37-0.51-2.8-0.7-4.29c-0.2-1.49-0.39-2.94-0.59-4.34c-0.2-1.41-0.37-2.74-0.53-3.99h-0.23c-0.23,2.51-0.59,5.28-1.06,8.34
		c-0.47,3.05-1.02,5.75-1.64,8.1l-5.17,20.2h15.5L440.03,321L440.03,321z M511.46,360.57c3.29,0,6.09-0.41,8.4-1.23
		c2.31-0.82,4.19-2.29,5.64-4.4c1.45-2.11,2.51-4.99,3.17-8.63c0.67-3.64,1-8.28,1-13.91c0-5.25-0.33-9.59-1-13.03
		c-0.67-3.44-1.72-6.2-3.17-8.28c-1.45-2.07-3.33-3.52-5.64-4.34c-2.31-0.82-5.11-1.23-8.4-1.23h-4.23v55.07H511.46L511.46,360.57z
		 M512.16,292.82c5.64,0,10.57,0.55,14.8,1.64c4.23,1.1,7.79,3.11,10.69,6.05c2.9,2.94,5.07,6.99,6.52,12.15
		c1.45,5.17,2.17,11.82,2.17,19.96c0,8.45-0.82,15.32-2.47,20.61c-1.64,5.28-3.97,9.41-6.99,12.39c-3.01,2.97-6.63,4.99-10.86,6.05
		c-4.23,1.06-8.96,1.58-14.21,1.58h-17.97c-1.02,0-1.68-0.16-2-0.47c-0.31-0.31-0.47-0.98-0.47-2v-75.51c0-1.1,0.16-1.78,0.47-2.05
		c0.31-0.27,1.02-0.41,2.11-0.41H512.16L512.16,292.82z M611.65,370.79c0,1.1-0.14,1.78-0.41,2.05c-0.27,0.27-0.92,0.41-1.94,0.41
		h-38.63c-1.02,0-1.68-0.14-2-0.41c-0.31-0.27-0.47-0.96-0.47-2.05v-75.51c0-1.1,0.16-1.78,0.47-2.05c0.31-0.27,0.98-0.41,2-0.41
		h38.52c1.17,0,1.96,0.08,2.35,0.23c0.39,0.16,0.59,0.51,0.59,1.06c0,0.31-0.02,0.57-0.06,0.76c-0.04,0.2-0.14,0.49-0.29,0.88
		l-2.23,7.87c-0.23,0.86-0.63,1.39-1.17,1.59c-0.55,0.2-1.06,0.29-1.53,0.29h-22.78v19.38h19.96c1.1,0,1.78,0.14,2.06,0.41
		c0.27,0.27,0.41,0.96,0.41,2.05v7.75c0,1.1-0.16,1.78-0.47,2.06c-0.31,0.27-0.98,0.41-2,0.41h-19.96v23.02h25.13
		c1.1,0,1.78,0.14,2.06,0.41c0.27,0.27,0.41,0.96,0.41,2.05V370.79L611.65,370.79z M684.6,370.79c0,1.1-0.14,1.78-0.41,2.05
		c-0.27,0.27-0.92,0.41-1.94,0.41h-11.04c-1.02,0-1.68-0.14-2-0.41c-0.31-0.27-0.47-0.96-0.47-2.05v-75.51
		c0-1.1,0.16-1.78,0.47-2.05c0.31-0.27,0.98-0.41,2-0.41h38.52c1.17,0,1.96,0.08,2.35,0.23c0.39,0.16,0.59,0.51,0.59,1.06
		c0,0.31-0.02,0.57-0.06,0.76c-0.04,0.2-0.14,0.49-0.29,0.88l-2.23,7.87c-0.23,0.86-0.63,1.39-1.17,1.59
		c-0.55,0.2-1.06,0.29-1.53,0.29H684.6v19.38h19.96c1.1,0,1.78,0.14,2.05,0.41c0.27,0.27,0.41,0.96,0.41,2.05v7.75
		c0,1.1-0.16,1.78-0.47,2.06c-0.31,0.27-0.98,0.41-2,0.41H684.6V370.79L684.6,370.79z M786.67,346.01c0,4.38-0.43,8.38-1.29,11.98
		c-0.86,3.6-2.37,6.67-4.52,9.22c-2.15,2.54-5.05,4.52-8.69,5.93c-3.64,1.41-8.24,2.11-13.8,2.11c-5.56,0-10.16-0.7-13.8-2.11
		c-3.64-1.41-6.54-3.39-8.69-5.93c-2.15-2.54-3.66-5.62-4.52-9.22c-0.86-3.6-1.29-7.59-1.29-11.98v-50.73c0-1.1,0.16-1.78,0.47-2.05
		c0.31-0.27,0.98-0.41,2-0.41h10.92c1.02,0,1.68,0.14,2,0.41c0.31,0.27,0.47,0.96,0.47,2.05v50.73c0,2.11,0.1,4.17,0.29,6.17
		c0.2,2,0.7,3.76,1.53,5.28c0.82,1.53,2.05,2.76,3.7,3.7c1.64,0.94,3.95,1.41,6.93,1.41c2.97,0,5.28-0.47,6.93-1.41
		c1.64-0.94,2.88-2.17,3.7-3.7c0.82-1.53,1.33-3.29,1.53-5.28c0.2-2,0.29-4.05,0.29-6.17v-50.73c0-1.1,0.16-1.78,0.47-2.05
		c0.31-0.27,0.98-0.41,2-0.41h10.92c1.02,0,1.68,0.14,2,0.41c0.31,0.27,0.47,0.96,0.47,2.05V346.01L786.67,346.01z M828.73,370.79
		c0,1.1-0.16,1.78-0.47,2.05c-0.31,0.27-0.98,0.41-2,0.41h-10.92c-1.02,0-1.68-0.14-2-0.41c-0.31-0.27-0.47-0.96-0.47-2.05v-75.51
		c0-1.1,0.16-1.78,0.47-2.05c0.31-0.27,0.98-0.41,2-0.41h19.02c1.49,0,3.21,0.04,5.17,0.12c1.96,0.08,3.95,0.35,5.99,0.82
		c2.04,0.47,4.01,1.17,5.93,2.11c1.92,0.94,3.64,2.25,5.17,3.93c1.53,1.68,2.76,3.8,3.7,6.34c0.94,2.54,1.41,5.66,1.41,9.34
		c0,3.76-0.49,6.91-1.47,9.45c-0.98,2.54-2.17,4.64-3.58,6.28c-1.41,1.64-2.88,2.92-4.4,3.82c-1.53,0.9-2.84,1.62-3.93,2.17
		l17.5,31.35c0.16,0.31,0.35,0.67,0.59,1.06c0.23,0.39,0.35,0.78,0.35,1.17s-0.23,0.68-0.7,0.88c-0.47,0.2-1.02,0.37-1.64,0.53
		l-9.86,2.82c-0.63,0.16-1.17,0.23-1.64,0.23c-0.55,0-1.45-1.21-2.7-3.64l-15.85-31.59h-5.64V370.79L828.73,370.79z M831.78,327.69
		c1.88,0,3.68-0.12,5.4-0.35c1.72-0.23,3.23-0.76,4.52-1.58c1.29-0.82,2.31-2.02,3.05-3.58c0.74-1.57,1.12-3.72,1.12-6.46
		c0-2.58-0.37-4.58-1.12-5.99c-0.74-1.41-1.74-2.45-2.99-3.11c-1.25-0.67-2.64-1.08-4.17-1.23c-1.53-0.16-3.03-0.23-4.52-0.23h-4.34
		v22.55H831.78L831.78,327.69z M941.37,370.79c0,1.1-0.14,1.78-0.41,2.05c-0.27,0.27-0.96,0.41-2.06,0.41h-7.75
		c-0.86,0-1.43-0.1-1.7-0.29c-0.27-0.2-0.61-0.65-1-1.35l-21.49-40.04c-1.8-3.29-3.21-6.11-4.23-8.45
		c-1.02-2.35-1.84-4.85-2.47-7.52h-0.23c0,0.78,0.06,2.45,0.18,4.99c0.12,2.54,0.18,5.19,0.18,7.93v42.27c0,1.1-0.16,1.78-0.47,2.05
		c-0.31,0.27-0.98,0.41-2,0.41h-8.57c-1.02,0-1.68-0.14-2-0.41c-0.31-0.27-0.47-0.96-0.47-2.05v-75.51c0-1.1,0.16-1.78,0.47-2.05
		c0.31-0.27,0.98-0.41,2-0.41h9.63c0.86,0,1.43,0.1,1.7,0.29c0.27,0.2,0.61,0.61,1,1.23l19.38,36.4c1.64,3.13,3.03,6.15,4.17,9.04
		c1.14,2.9,2.06,5.56,2.76,7.99h0.23c0-0.94-0.02-2.11-0.06-3.52c-0.04-1.41-0.08-2.84-0.12-4.29c-0.04-1.45-0.08-2.84-0.12-4.17
		c-0.04-1.33-0.06-2.43-0.06-3.29v-37.23c0-1.1,0.16-1.78,0.47-2.05c0.31-0.27,0.98-0.41,2-0.41h8.57c1.02,0,1.68,0.14,2,0.41
		c0.31,0.27,0.47,0.96,0.47,2.05V370.79L941.37,370.79z M997.88,370.79c0,1.1-0.16,1.78-0.47,2.05c-0.31,0.27-0.98,0.41-2,0.41
		h-28.77c-1.02,0-1.68-0.14-2-0.41c-0.31-0.27-0.47-0.96-0.47-2.05v-6.34c0-1.1,0.16-1.78,0.47-2.06c0.31-0.27,0.98-0.41,2-0.41
		h6.46v-57.89h-6.46c-1.02,0-1.68-0.14-2-0.41c-0.31-0.27-0.47-0.96-0.47-2.06v-6.34c0-1.1,0.16-1.78,0.47-2.05
		c0.31-0.27,0.98-0.41,2-0.41h28.77c1.02,0,1.68,0.14,2,0.41c0.31,0.27,0.47,0.96,0.47,2.05v6.34c0,1.1-0.16,1.78-0.47,2.06
		c-0.31,0.27-0.98,0.41-2,0.41h-6.46v57.89h6.46c1.02,0,1.68,0.14,2,0.41c0.31,0.27,0.47,0.96,0.47,2.06V370.79L997.88,370.79z
		 M1044.52,370.79c0,1.1-0.16,1.78-0.47,2.05c-0.31,0.27-0.98,0.41-2,0.41h-10.92c-1.02,0-1.68-0.14-2-0.41
		c-0.31-0.27-0.47-0.96-0.47-2.05v-63.88h-15.38c-0.86,0-1.41-0.12-1.64-0.35c-0.23-0.23-0.35-0.78-0.35-1.64v-10.1
		c0-0.86,0.12-1.41,0.35-1.64c0.23-0.23,0.78-0.35,1.64-0.35h48.38c1.17,0,1.96,0.08,2.35,0.23c0.39,0.16,0.59,0.51,0.59,1.06
		c0,0.31-0.02,0.57-0.06,0.76c-0.04,0.2-0.14,0.49-0.29,0.88l-2.47,9.28c-0.23,0.94-0.63,1.49-1.17,1.64
		c-0.55,0.16-1.06,0.23-1.53,0.23h-14.56V370.79L1044.52,370.79z M1136.73,346.01c0,4.38-0.43,8.38-1.29,11.98
		c-0.86,3.6-2.37,6.67-4.52,9.22c-2.15,2.54-5.05,4.52-8.69,5.93c-3.64,1.41-8.24,2.11-13.8,2.11c-5.56,0-10.16-0.7-13.8-2.11
		c-3.64-1.41-6.54-3.39-8.69-5.93c-2.15-2.54-3.66-5.62-4.52-9.22c-0.86-3.6-1.29-7.59-1.29-11.98v-50.73c0-1.1,0.16-1.78,0.47-2.05
		c0.31-0.27,0.98-0.41,2-0.41h10.92c1.02,0,1.68,0.14,2,0.41c0.31,0.27,0.47,0.96,0.47,2.05v50.73c0,2.11,0.1,4.17,0.29,6.17
		c0.2,2,0.7,3.76,1.53,5.28c0.82,1.53,2.06,2.76,3.7,3.7c1.64,0.94,3.95,1.41,6.93,1.41c2.98,0,5.28-0.47,6.93-1.41
		c1.64-0.94,2.88-2.17,3.7-3.7c0.82-1.53,1.33-3.29,1.53-5.28c0.2-2,0.29-4.05,0.29-6.17v-50.73c0-1.1,0.16-1.78,0.47-2.05
		c0.31-0.27,0.98-0.41,2-0.41h10.92c1.02,0,1.68,0.14,2,0.41c0.31,0.27,0.47,0.96,0.47,2.05V346.01L1136.73,346.01z M1178.79,370.79
		c0,1.1-0.16,1.78-0.47,2.05c-0.31,0.27-0.98,0.41-2,0.41h-10.92c-1.02,0-1.68-0.14-2-0.41c-0.31-0.27-0.47-0.96-0.47-2.05v-75.51
		c0-1.1,0.16-1.78,0.47-2.05c0.31-0.27,0.98-0.41,2-0.41h19.02c1.49,0,3.21,0.04,5.17,0.12c1.96,0.08,3.95,0.35,5.99,0.82
		c2.04,0.47,4.01,1.17,5.93,2.11c1.92,0.94,3.64,2.25,5.17,3.93c1.53,1.68,2.76,3.8,3.7,6.34c0.94,2.54,1.41,5.66,1.41,9.34
		c0,3.76-0.49,6.91-1.47,9.45c-0.98,2.54-2.17,4.64-3.58,6.28c-1.41,1.64-2.88,2.92-4.4,3.82c-1.53,0.9-2.84,1.62-3.93,2.17
		l17.5,31.35c0.16,0.31,0.35,0.67,0.59,1.06c0.23,0.39,0.35,0.78,0.35,1.17s-0.23,0.68-0.7,0.88c-0.47,0.2-1.02,0.37-1.64,0.53
		l-9.86,2.82c-0.63,0.16-1.17,0.23-1.64,0.23c-0.55,0-1.45-1.21-2.7-3.64l-15.85-31.59h-5.64V370.79L1178.79,370.79z
		 M1181.85,327.69c1.88,0,3.68-0.12,5.4-0.35c1.72-0.23,3.23-0.76,4.52-1.58c1.29-0.82,2.31-2.02,3.05-3.58
		c0.74-1.57,1.12-3.72,1.12-6.46c0-2.58-0.37-4.58-1.12-5.99c-0.74-1.41-1.74-2.45-2.99-3.11c-1.25-0.67-2.64-1.08-4.17-1.23
		c-1.53-0.16-3.03-0.23-4.52-0.23h-4.35v22.55H1181.85L1181.85,327.69z M1279.57,370.79c0,1.1-0.14,1.78-0.41,2.05
		c-0.27,0.27-0.92,0.41-1.94,0.41h-38.63c-1.02,0-1.68-0.14-2-0.41c-0.31-0.27-0.47-0.96-0.47-2.05v-75.51
		c0-1.1,0.16-1.78,0.47-2.05c0.31-0.27,0.98-0.41,2-0.41h38.52c1.17,0,1.96,0.08,2.35,0.23c0.39,0.16,0.59,0.51,0.59,1.06
		c0,0.31-0.02,0.57-0.06,0.76c-0.04,0.2-0.14,0.49-0.29,0.88l-2.23,7.87c-0.23,0.86-0.63,1.39-1.17,1.59
		c-0.55,0.2-1.06,0.29-1.53,0.29h-22.78v19.38h19.96c1.1,0,1.78,0.14,2.06,0.41c0.27,0.27,0.41,0.96,0.41,2.05v7.75
		c0,1.1-0.16,1.78-0.47,2.06c-0.31,0.27-0.98,0.41-2,0.41h-19.96v23.02h25.13c1.1,0,1.78,0.14,2.05,0.41
		c0.27,0.27,0.41,0.96,0.41,2.05V370.79L1279.57,370.79z"/>
	<path d="M1706.13,50.07c2.51,0,4.62-0.59,6.35-1.76s2.59-3.1,2.59-5.76c0-5.17-3.29-7.76-9.87-7.76h-11.75v15.28H1706.13
		L1706.13,50.07z M1726.82,82.99h-11.75l-9.17-23.51h-12.46v23.51h-10.58v-58.3h19.51c2.82,0,5.64,0.2,8.46,0.59
		c2.82,0.39,5.37,1.21,7.64,2.47c2.27,1.25,4.11,3.13,5.53,5.64c1.41,2.51,2.12,5.88,2.12,10.11c0,2.66-0.35,4.78-1.06,6.35
		c-0.71,1.57-1.57,2.9-2.59,4c-1.02,1.1-2.12,1.92-3.29,2.47c-1.18,0.55-2.23,1.06-3.17,1.53L1726.82,82.99L1726.82,82.99z
		 M1703.78,102.26c6.43,0,12.5-1.25,18.22-3.76c5.72-2.51,10.7-5.88,14.93-10.11c4.23-4.23,7.6-9.21,10.11-14.93
		c2.51-5.72,3.76-11.79,3.76-18.22c0-6.43-1.25-12.5-3.76-18.22c-2.51-5.72-5.88-10.7-10.11-14.93c-4.23-4.23-9.21-7.6-14.93-10.11
		c-5.72-2.51-11.79-3.76-18.22-3.76s-12.5,1.25-18.22,3.76c-5.72,2.51-10.7,5.88-14.93,10.11c-4.23,4.23-7.6,9.21-10.11,14.93
		c-2.51,5.72-3.76,11.79-3.76,18.22c0,6.43,1.25,12.5,3.76,18.22s5.88,10.7,10.11,14.93c4.23,4.23,9.21,7.6,14.93,10.11
		C1691.28,101.01,1697.35,102.26,1703.78,102.26L1703.78,102.26z M1759.02,55.25c0,7.68-1.45,14.85-4.35,21.51
		c-2.9,6.66-6.86,12.5-11.87,17.51c-5.02,5.02-10.89,8.97-17.63,11.87c-6.74,2.9-13.87,4.35-21.39,4.35s-14.65-1.45-21.39-4.35
		c-6.74-2.9-12.62-6.86-17.63-11.87c-5.02-5.02-8.97-10.85-11.87-17.51c-2.9-6.66-4.35-13.83-4.35-21.51
		c0-7.52,1.45-14.65,4.35-21.39c2.9-6.74,6.86-12.62,11.87-17.63c5.02-5.02,10.89-8.97,17.63-11.87c6.74-2.9,13.87-4.35,21.39-4.35
		s14.65,1.45,21.39,4.35c6.74,2.9,12.62,6.86,17.63,11.87c5.02,5.02,8.97,10.89,11.87,17.63
		C1757.57,40.59,1759.02,47.72,1759.02,55.25L1759.02,55.25z"/>
</g>
</svg>
